<svg xmlns="http://www.w3.org/2000/svg" xmlns:xlink="http://www.w3.org/1999/xlink" width="363" zoomAndPan="magnify" viewBox="0 0 272.25 272.249983" height="363" preserveAspectRatio="xMidYMid meet" version="1.0"><defs><g/><clipPath id="24b04aee07"><path d="M 0 0 L 271.503906 0 L 271.503906 271.503906 L 0 271.503906 Z M 0 0 " clip-rule="nonzero"/></clipPath><clipPath id="337cd82982"><path d="M 0 0 L 271.503906 0 L 271.503906 271.503906 L 0 271.503906 Z M 0 0 " clip-rule="nonzero"/></clipPath><clipPath id="30fa866e9c"><rect x="0" width="272" y="0" height="272"/></clipPath></defs><g clip-path="url(#24b04aee07)"><path fill="#ffffff" d="M 0 0 L 271.503906 0 L 271.503906 271.503906 L 0 271.503906 Z M 0 0 " fill-opacity="1" fill-rule="nonzero"/><g transform="matrix(1, 0, 0, 1, 0, -0.000000000000005812)"><g clip-path="url(#30fa866e9c)"><g clip-path="url(#337cd82982)"><path fill="#ffffff" d="M 0 0 L 271.625 0 L 271.625 271.625 L 0 271.625 Z M 0 0 " fill-opacity="1" fill-rule="nonzero"/></g><g fill="#000000" fill-opacity="1"><g transform="translate(93.321184, 144.530831)"><g><path d="M 27.296875 -17.75 C 27.734375 -16.507812 27.640625 -15.265625 27.015625 -14.015625 C 26.953125 -13.898438 26.878906 -13.796875 26.796875 -13.703125 C 26.710938 -13.609375 26.59375 -13.546875 26.4375 -13.515625 C 26.34375 -13.492188 26.253906 -13.515625 26.171875 -13.578125 C 26.097656 -13.648438 26.070312 -13.726562 26.09375 -13.8125 C 26.15625 -13.988281 26.210938 -14.15625 26.265625 -14.3125 C 26.304688 -14.394531 26.34375 -14.472656 26.375 -14.546875 C 26.6875 -15.410156 26.742188 -16.257812 26.546875 -17.09375 C 26.328125 -18.050781 25.753906 -18.679688 24.828125 -18.984375 C 24.285156 -19.148438 23.738281 -19.238281 23.1875 -19.25 C 22.632812 -19.269531 22.070312 -19.226562 21.5 -19.125 C 19.769531 -18.800781 18.082031 -18.296875 16.4375 -17.609375 C 13.894531 -16.578125 11.472656 -15.289062 9.171875 -13.75 C 7.191406 -12.425781 5.410156 -10.867188 3.828125 -9.078125 C 3.273438 -8.460938 2.773438 -7.804688 2.328125 -7.109375 C 1.890625 -6.421875 1.535156 -5.679688 1.265625 -4.890625 C 1.003906 -4.097656 0.878906 -3.300781 0.890625 -2.5 C 0.921875 -1.632812 1.140625 -0.894531 1.546875 -0.28125 C 1.953125 0.320312 2.492188 0.757812 3.171875 1.03125 C 3.859375 1.3125 4.628906 1.382812 5.484375 1.25 C 6.585938 1.0625 7.628906 0.664062 8.609375 0.0625 C 9.191406 -0.269531 9.734375 -0.648438 10.234375 -1.078125 C 10.742188 -1.515625 11.234375 -1.972656 11.703125 -2.453125 C 12.835938 -3.640625 13.847656 -4.914062 14.734375 -6.28125 C 15.253906 -7.09375 15.6875 -7.945312 16.03125 -8.84375 C 16.050781 -8.875 16.0625 -8.910156 16.0625 -8.953125 C 16.144531 -9.160156 16.238281 -9.363281 16.34375 -9.5625 C 16.5 -9.84375 16.75 -9.96875 17.09375 -9.9375 C 17.300781 -9.90625 17.414062 -9.78125 17.4375 -9.5625 C 17.4375 -9.238281 17.375 -8.925781 17.25 -8.625 C 16.5 -6.457031 15.675781 -4.3125 14.78125 -2.1875 C 14.757812 -2.132812 14.738281 -2.082031 14.71875 -2.03125 C 14.664062 -1.925781 14.625 -1.828125 14.59375 -1.734375 C 14.570312 -1.703125 14.5625 -1.671875 14.5625 -1.640625 C 14.507812 -1.523438 14.476562 -1.398438 14.46875 -1.265625 C 14.46875 -1.210938 14.484375 -1.175781 14.515625 -1.15625 C 14.546875 -1.132812 14.585938 -1.113281 14.640625 -1.09375 C 14.703125 -1.070312 14.753906 -1.039062 14.796875 -1 C 14.804688 -1 14.816406 -0.992188 14.828125 -0.984375 C 14.859375 -0.953125 14.882812 -0.921875 14.90625 -0.890625 C 14.925781 -0.867188 14.914062 -0.832031 14.875 -0.78125 C 14.84375 -0.726562 14.796875 -0.6875 14.734375 -0.65625 C 14.671875 -0.625 14.609375 -0.609375 14.546875 -0.609375 C 14.347656 -0.628906 14.191406 -0.585938 14.078125 -0.484375 C 13.972656 -0.378906 13.882812 -0.242188 13.8125 -0.078125 C 13.550781 0.484375 13.28125 1.046875 13 1.609375 C 12.414062 2.796875 11.765625 3.945312 11.046875 5.0625 C 10.597656 5.757812 10.09375 6.421875 9.53125 7.046875 C 8.945312 7.703125 8.257812 8.21875 7.46875 8.59375 C 7.039062 8.789062 6.601562 8.898438 6.15625 8.921875 C 5.632812 8.953125 5.210938 8.828125 4.890625 8.546875 C 4.566406 8.265625 4.382812 7.863281 4.34375 7.34375 C 4.3125 6.90625 4.367188 6.460938 4.515625 6.015625 C 4.828125 5.171875 5.289062 4.414062 5.90625 3.75 C 7.445312 1.96875 9.296875 0.644531 11.453125 -0.21875 C 11.804688 -0.363281 12.164062 -0.488281 12.53125 -0.59375 C 12.570312 -0.613281 12.617188 -0.628906 12.671875 -0.640625 C 12.929688 -0.710938 13.125 -0.875 13.25 -1.125 C 13.363281 -1.394531 13.476562 -1.660156 13.59375 -1.921875 C 13.925781 -2.609375 14.207031 -3.316406 14.4375 -4.046875 C 14.445312 -4.066406 14.445312 -4.085938 14.4375 -4.109375 C 14.425781 -4.117188 14.421875 -4.128906 14.421875 -4.140625 C 14.304688 -4.117188 14.21875 -4.070312 14.15625 -4 C 14.09375 -3.925781 14.03125 -3.851562 13.96875 -3.78125 C 13.9375 -3.726562 13.898438 -3.675781 13.859375 -3.625 C 13.097656 -2.707031 12.269531 -1.84375 11.375 -1.03125 C 10.289062 -0.0507812 9.09375 0.707031 7.78125 1.25 C 7.03125 1.550781 6.269531 1.75 5.5 1.84375 C 4.738281 1.9375 3.976562 1.910156 3.21875 1.765625 C 2.34375 1.585938 1.601562 1.164062 1 0.5 C 0.40625 -0.164062 0.046875 -1.003906 -0.078125 -2.015625 C -0.140625 -2.648438 -0.113281 -3.273438 0 -3.890625 C 0.101562 -4.503906 0.289062 -5.109375 0.5625 -5.703125 C 0.863281 -6.378906 1.210938 -7.015625 1.609375 -7.609375 C 2.015625 -8.210938 2.460938 -8.796875 2.953125 -9.359375 C 4.679688 -11.316406 6.648438 -13 8.859375 -14.40625 C 10.429688 -15.4375 12.046875 -16.347656 13.703125 -17.140625 C 15.367188 -17.929688 17.085938 -18.59375 18.859375 -19.125 C 19.640625 -19.363281 20.429688 -19.546875 21.234375 -19.671875 C 22.035156 -19.796875 22.835938 -19.84375 23.640625 -19.8125 C 24.472656 -19.78125 25.257812 -19.585938 26 -19.234375 C 26.632812 -18.910156 27.066406 -18.414062 27.296875 -17.75 Z M 12.578125 0.21875 C 12.597656 0.144531 12.585938 0.0820312 12.546875 0.03125 C 12.503906 -0.0078125 12.445312 -0.0195312 12.375 0 C 12.21875 0.0507812 12.066406 0.109375 11.921875 0.171875 C 10.078125 0.984375 8.453125 2.125 7.046875 3.59375 C 6.535156 4.125 6.101562 4.707031 5.75 5.34375 C 5.476562 5.789062 5.3125 6.320312 5.25 6.9375 C 5.25 6.945312 5.25 6.96875 5.25 7 C 5.238281 7.082031 5.238281 7.1875 5.25 7.3125 C 5.300781 7.769531 5.457031 8.078125 5.71875 8.234375 C 5.988281 8.390625 6.34375 8.378906 6.78125 8.203125 C 7.414062 7.910156 7.976562 7.5 8.46875 6.96875 C 9.0625 6.332031 9.585938 5.648438 10.046875 4.921875 C 10.515625 4.210938 10.941406 3.484375 11.328125 2.734375 C 11.722656 1.992188 12.101562 1.242188 12.46875 0.484375 C 12.507812 0.390625 12.546875 0.304688 12.578125 0.234375 C 12.578125 0.222656 12.578125 0.21875 12.578125 0.21875 Z M 12.578125 0.21875 "/></g></g></g><g fill="#000000" fill-opacity="1"><g transform="translate(110.853112, 144.530831)"><g><path d="M 1.078125 -1.609375 L 1.0625 -1.609375 C 0.40625 -1.617188 -0.0234375 -1.765625 -0.234375 -2.046875 C -0.441406 -2.335938 -0.4375 -2.71875 -0.21875 -3.1875 C -0.0195312 -3.550781 0.222656 -3.867188 0.515625 -4.140625 C 0.609375 -4.222656 0.707031 -4.289062 0.8125 -4.34375 C 0.914062 -4.40625 1.035156 -4.4375 1.171875 -4.4375 C 1.253906 -4.445312 1.34375 -4.429688 1.4375 -4.390625 C 1.46875 -4.378906 1.5 -4.367188 1.53125 -4.359375 C 1.613281 -4.367188 1.691406 -4.394531 1.765625 -4.4375 C 1.773438 -4.445312 1.796875 -4.457031 1.828125 -4.46875 C 1.984375 -4.53125 2.144531 -4.554688 2.3125 -4.546875 C 2.382812 -4.546875 2.457031 -4.546875 2.53125 -4.546875 C 2.789062 -4.503906 2.988281 -4.390625 3.125 -4.203125 C 3.257812 -4.015625 3.3125 -3.789062 3.28125 -3.53125 C 3.25 -3.375 3.195312 -3.222656 3.125 -3.078125 C 2.601562 -2.140625 1.9375 -1.648438 1.125 -1.609375 Z M 2.15625 -4.0625 C 1.800781 -4.070312 1.484375 -3.96875 1.203125 -3.75 C 0.921875 -3.53125 0.710938 -3.273438 0.578125 -2.984375 C 0.441406 -2.703125 0.40625 -2.46875 0.46875 -2.28125 C 0.53125 -2.09375 0.71875 -2.039062 1.03125 -2.125 C 1.394531 -2.238281 1.710938 -2.441406 1.984375 -2.734375 C 2.265625 -3.035156 2.429688 -3.320312 2.484375 -3.59375 C 2.546875 -3.863281 2.4375 -4.019531 2.15625 -4.0625 Z M 2.15625 -4.0625 "/></g></g></g><g fill="#000000" fill-opacity="1"><g transform="translate(114.472651, 144.530831)"><g><path d="M 3.296875 -3.25 C 3.453125 -3.40625 3.578125 -3.488281 3.671875 -3.5 C 3.773438 -3.519531 3.84375 -3.503906 3.875 -3.453125 C 3.90625 -3.410156 3.882812 -3.34375 3.8125 -3.25 C 3.414062 -2.769531 2.96875 -2.351562 2.46875 -2 C 1.96875 -1.65625 1.457031 -1.453125 0.9375 -1.390625 C 0.414062 -1.335938 0.0976562 -1.625 -0.015625 -2.25 C -0.0976562 -2.875 0.273438 -4.144531 1.109375 -6.0625 C 1.953125 -7.976562 2.617188 -9.546875 3.109375 -10.765625 C 3.148438 -10.878906 3.207031 -10.976562 3.28125 -11.0625 C 3.394531 -11.164062 3.523438 -11.1875 3.671875 -11.125 C 3.722656 -11.101562 3.773438 -11.066406 3.828125 -11.015625 C 3.878906 -10.972656 3.894531 -10.882812 3.875 -10.75 C 1.71875 -5.65625 0.675781 -2.882812 0.75 -2.4375 C 0.820312 -1.988281 1.109375 -1.875 1.609375 -2.09375 C 2.117188 -2.320312 2.507812 -2.550781 2.78125 -2.78125 C 3.0625 -3.019531 3.234375 -3.175781 3.296875 -3.25 Z M 3.296875 -3.25 "/></g></g></g><g fill="#000000" fill-opacity="1"><g transform="translate(117.874063, 144.530831)"><g><path d="M 6.046875 -3.578125 C 6.148438 -3.554688 6.203125 -3.523438 6.203125 -3.484375 C 6.210938 -3.441406 6.21875 -3.421875 6.21875 -3.421875 C 6.101562 -3.222656 5.976562 -3.046875 5.84375 -2.890625 C 5.519531 -2.535156 5.144531 -2.25 4.71875 -2.03125 C 4.507812 -1.914062 4.269531 -1.851562 4 -1.84375 C 3.394531 -1.832031 3.117188 -2.128906 3.171875 -2.734375 C 3.191406 -2.859375 3.21875 -2.984375 3.25 -3.109375 C 3.269531 -3.160156 3.285156 -3.21875 3.296875 -3.28125 C 3.359375 -3.5 3.375 -3.617188 3.34375 -3.640625 C 3.320312 -3.671875 3.253906 -3.609375 3.140625 -3.453125 C 3.109375 -3.429688 3.078125 -3.40625 3.046875 -3.375 C 2.867188 -3.15625 2.679688 -2.941406 2.484375 -2.734375 C 2.140625 -2.328125 1.742188 -1.988281 1.296875 -1.71875 C 1.023438 -1.5625 0.738281 -1.476562 0.4375 -1.46875 C -0.0507812 -1.445312 -0.328125 -1.671875 -0.390625 -2.140625 C -0.410156 -2.328125 -0.398438 -2.515625 -0.359375 -2.703125 C -0.160156 -3.484375 0.234375 -4.070312 0.828125 -4.46875 C 1.429688 -4.875 2.125 -5.019531 2.90625 -4.90625 C 3.113281 -4.84375 3.269531 -4.898438 3.375 -5.078125 C 3.414062 -5.148438 3.457031 -5.222656 3.5 -5.296875 C 3.707031 -5.648438 3.910156 -6.007812 4.109375 -6.375 C 4.484375 -7.0625 4.863281 -7.753906 5.25 -8.453125 C 5.5625 -9.003906 5.867188 -9.5625 6.171875 -10.125 C 6.265625 -10.289062 6.367188 -10.457031 6.484375 -10.625 C 6.523438 -10.695312 6.582031 -10.738281 6.65625 -10.75 C 6.738281 -10.769531 6.820312 -10.78125 6.90625 -10.78125 C 6.925781 -10.78125 6.945312 -10.78125 6.96875 -10.78125 C 7.050781 -10.78125 7.117188 -10.753906 7.171875 -10.703125 C 7.234375 -10.660156 7.25 -10.601562 7.21875 -10.53125 C 7.15625 -10.34375 7.082031 -10.160156 7 -9.984375 C 6.582031 -9.148438 6.1875 -8.300781 5.8125 -7.4375 C 5.445312 -6.582031 5.085938 -5.722656 4.734375 -4.859375 C 4.609375 -4.554688 4.484375 -4.253906 4.359375 -3.953125 C 4.210938 -3.609375 4.085938 -3.25 3.984375 -2.875 C 3.960938 -2.789062 3.953125 -2.707031 3.953125 -2.625 C 3.953125 -2.550781 3.988281 -2.484375 4.0625 -2.421875 C 4.113281 -2.390625 4.164062 -2.382812 4.21875 -2.40625 C 4.269531 -2.425781 4.332031 -2.453125 4.40625 -2.484375 C 4.40625 -2.492188 4.414062 -2.503906 4.4375 -2.515625 C 4.875 -2.765625 5.269531 -3.066406 5.625 -3.421875 C 5.6875 -3.472656 5.75 -3.519531 5.8125 -3.5625 C 5.875 -3.601562 5.953125 -3.609375 6.046875 -3.578125 Z M 2.6875 -4.03125 C 2.738281 -4.113281 2.753906 -4.191406 2.734375 -4.265625 C 2.710938 -4.335938 2.660156 -4.394531 2.578125 -4.4375 C 2.410156 -4.519531 2.234375 -4.53125 2.046875 -4.46875 C 1.578125 -4.320312 1.179688 -4.050781 0.859375 -3.65625 C 0.546875 -3.257812 0.375 -2.828125 0.34375 -2.359375 C 0.351562 -2.328125 0.359375 -2.3125 0.359375 -2.3125 C 0.359375 -2.269531 0.359375 -2.226562 0.359375 -2.1875 C 0.398438 -1.96875 0.535156 -1.921875 0.765625 -2.046875 C 0.992188 -2.179688 1.25 -2.398438 1.53125 -2.703125 C 1.820312 -3.003906 2.078125 -3.289062 2.296875 -3.5625 C 2.523438 -3.832031 2.65625 -3.988281 2.6875 -4.03125 Z M 2.6875 -4.03125 "/></g></g></g><g fill="#000000" fill-opacity="1"><g transform="translate(123.572621, 144.530831)"><g><path d="M 3.890625 -2.625 C 3.628906 -2.363281 3.320312 -2.140625 2.96875 -1.953125 C 2.613281 -1.765625 2.316406 -1.640625 2.078125 -1.578125 C 1.847656 -1.523438 1.609375 -1.5 1.359375 -1.5 C 0.953125 -1.476562 0.582031 -1.53125 0.25 -1.65625 C -0.300781 -1.875 -0.492188 -2.300781 -0.328125 -2.9375 C -0.160156 -3.476562 0.160156 -3.898438 0.640625 -4.203125 C 1.128906 -4.503906 1.632812 -4.648438 2.15625 -4.640625 C 2.15625 -4.640625 2.160156 -4.640625 2.171875 -4.640625 C 2.296875 -4.648438 2.421875 -4.644531 2.546875 -4.625 C 2.742188 -4.550781 2.867188 -4.429688 2.921875 -4.265625 C 2.984375 -4.097656 2.945312 -3.914062 2.8125 -3.71875 C 2.519531 -3.28125 2.125 -3.035156 1.625 -2.984375 C 1.289062 -2.953125 0.972656 -2.96875 0.671875 -3.03125 C 0.609375 -3.039062 0.550781 -3.023438 0.5 -2.984375 C 0.457031 -2.941406 0.4375 -2.890625 0.4375 -2.828125 C 0.34375 -2.441406 0.460938 -2.191406 0.796875 -2.078125 C 1.203125 -1.941406 1.625 -1.941406 2.0625 -2.078125 C 2.570312 -2.234375 3.054688 -2.53125 3.515625 -2.96875 C 3.972656 -3.414062 4.238281 -3.625 4.3125 -3.59375 C 4.382812 -3.5625 4.40625 -3.476562 4.375 -3.34375 C 4.3125 -3.125 4.148438 -2.882812 3.890625 -2.625 Z M 0.984375 -3.71875 C 0.953125 -3.6875 0.929688 -3.648438 0.921875 -3.609375 C 0.910156 -3.566406 0.925781 -3.53125 0.96875 -3.5 C 1.125 -3.414062 1.296875 -3.382812 1.484375 -3.40625 C 1.671875 -3.425781 1.828125 -3.492188 1.953125 -3.609375 C 2.085938 -3.734375 2.144531 -3.878906 2.125 -4.046875 C 2.113281 -4.109375 2.082031 -4.144531 2.03125 -4.15625 C 1.976562 -4.175781 1.925781 -4.179688 1.875 -4.171875 C 1.539062 -4.109375 1.242188 -3.957031 0.984375 -3.71875 Z M 0.984375 -3.71875 "/></g></g></g><g fill="#000000" fill-opacity="1"><g transform="translate(127.5398, 144.530831)"><g><path d="M 5.40625 -3.40625 C 5.476562 -3.3125 5.382812 -3.144531 5.125 -2.90625 C 4.875 -2.664062 4.601562 -2.460938 4.3125 -2.296875 C 4.03125 -2.128906 3.703125 -1.96875 3.328125 -1.8125 C 3.078125 -1.695312 2.804688 -1.65625 2.515625 -1.6875 C 2.234375 -1.726562 2.09375 -1.898438 2.09375 -2.203125 C 2.09375 -2.515625 2.164062 -2.816406 2.3125 -3.109375 C 2.457031 -3.421875 2.488281 -3.582031 2.40625 -3.59375 C 2.320312 -3.601562 2.15625 -3.53125 1.90625 -3.375 C 1.257812 -2.945312 0.65625 -2.457031 0.09375 -1.90625 C -0.0507812 -1.71875 -0.242188 -1.617188 -0.484375 -1.609375 C -0.597656 -1.609375 -0.6875 -1.644531 -0.75 -1.71875 C -0.820312 -1.789062 -0.832031 -1.867188 -0.78125 -1.953125 C -0.375 -2.691406 0.03125 -3.425781 0.4375 -4.15625 C 0.53125 -4.300781 0.664062 -4.394531 0.84375 -4.4375 C 0.925781 -4.445312 1 -4.421875 1.0625 -4.359375 C 1.125 -4.296875 1.15625 -4.226562 1.15625 -4.15625 C 1.144531 -4.082031 1.117188 -3.992188 1.078125 -3.890625 C 1.046875 -3.835938 1.019531 -3.78125 1 -3.71875 C 0.976562 -3.664062 0.972656 -3.617188 0.984375 -3.578125 C 0.992188 -3.546875 1.023438 -3.535156 1.078125 -3.546875 C 1.140625 -3.585938 1.207031 -3.628906 1.28125 -3.671875 C 1.445312 -3.765625 1.609375 -3.859375 1.765625 -3.953125 C 1.910156 -4.035156 2.0625 -4.109375 2.21875 -4.171875 C 2.375 -4.234375 2.535156 -4.273438 2.703125 -4.296875 C 2.972656 -4.316406 3.164062 -4.253906 3.28125 -4.109375 C 3.394531 -3.972656 3.410156 -3.78125 3.328125 -3.53125 C 3.234375 -3.300781 3.132812 -3.078125 3.03125 -2.859375 C 2.90625 -2.648438 2.882812 -2.488281 2.96875 -2.375 C 3.050781 -2.269531 3.429688 -2.394531 4.109375 -2.75 L 4.625 -3.0625 C 5.101562 -3.363281 5.363281 -3.476562 5.40625 -3.40625 Z M 5.40625 -3.40625 "/></g></g></g><g fill="#000000" fill-opacity="1"><g transform="translate(132.536263, 144.530831)"><g/></g></g><g fill="#000000" fill-opacity="1"><g transform="translate(137.689505, 144.530831)"><g><path d="M 35.234375 -19.6875 C 35.347656 -19.582031 35.453125 -19.46875 35.546875 -19.34375 C 35.648438 -19.21875 35.710938 -19.070312 35.734375 -18.90625 C 35.765625 -18.707031 35.695312 -18.5625 35.53125 -18.46875 C 35.4375 -18.414062 35.335938 -18.40625 35.234375 -18.4375 C 35.140625 -18.476562 35.070312 -18.550781 35.03125 -18.65625 C 34.925781 -18.957031 34.765625 -19.195312 34.546875 -19.375 C 34.328125 -19.550781 34.085938 -19.703125 33.828125 -19.828125 C 33.253906 -20.128906 32.660156 -20.375 32.046875 -20.5625 C 31.441406 -20.75 30.828125 -20.914062 30.203125 -21.0625 C 29.171875 -21.28125 27.796875 -21.421875 26.078125 -21.484375 C 24.367188 -21.554688 22.457031 -21.53125 20.34375 -21.40625 C 18.238281 -21.289062 16.082031 -21.066406 13.875 -20.734375 C 11.675781 -20.398438 9.566406 -19.941406 7.546875 -19.359375 C 5.535156 -18.773438 3.765625 -18.046875 2.234375 -17.171875 C 0.710938 -16.304688 -0.421875 -15.28125 -1.171875 -14.09375 C -1.796875 -13.070312 -1.921875 -11.988281 -1.546875 -10.84375 C -1.273438 -10.0625 -0.882812 -9.347656 -0.375 -8.703125 C 0.382812 -7.742188 1.226562 -6.867188 2.15625 -6.078125 C 2.925781 -5.359375 3.707031 -4.644531 4.5 -3.9375 C 5.269531 -3.257812 6.039062 -2.570312 6.8125 -1.875 C 7.675781 -1.082031 8.519531 -0.28125 9.34375 0.53125 C 9.425781 0.601562 9.507812 0.675781 9.59375 0.75 C 10.039062 1.175781 10.4375 1.644531 10.78125 2.15625 C 11.125 2.726562 11.1875 3.175781 10.96875 3.5 C 10.757812 3.820312 10.351562 4.039062 9.75 4.15625 C 9.144531 4.269531 8.441406 4.300781 7.640625 4.25 C 6.835938 4.207031 6.03125 4.109375 5.21875 3.953125 C 4.40625 3.796875 3.679688 3.609375 3.046875 3.390625 C 2.421875 3.171875 1.976562 2.945312 1.71875 2.71875 C 1.207031 2.238281 1.175781 1.726562 1.625 1.1875 C 2.113281 0.644531 2.707031 0.25 3.40625 0 C 4.414062 -0.394531 5.441406 -0.429688 6.484375 -0.109375 C 6.679688 -0.0351562 6.867188 0.0625 7.046875 0.1875 C 7.066406 0.195312 7.082031 0.207031 7.09375 0.21875 C 7.144531 0.25 7.179688 0.289062 7.203125 0.34375 C 7.222656 0.394531 7.210938 0.453125 7.171875 0.515625 C 7.085938 0.617188 6.988281 0.648438 6.875 0.609375 C 6.757812 0.566406 6.648438 0.515625 6.546875 0.453125 C 5.835938 0.0976562 5.101562 0.0234375 4.34375 0.234375 C 3.582031 0.441406 2.941406 0.851562 2.421875 1.46875 C 2.191406 1.769531 2.175781 2.03125 2.375 2.25 C 2.582031 2.476562 2.894531 2.671875 3.3125 2.828125 C 3.738281 2.984375 4.160156 3.101562 4.578125 3.1875 C 5.003906 3.28125 5.320312 3.347656 5.53125 3.390625 C 5.570312 3.390625 5.601562 3.390625 5.625 3.390625 C 5.664062 3.390625 5.71875 3.394531 5.78125 3.40625 C 6.039062 3.46875 6.40625 3.53125 6.875 3.59375 C 7.34375 3.664062 7.820312 3.710938 8.3125 3.734375 C 8.8125 3.753906 9.238281 3.71875 9.59375 3.625 C 9.945312 3.539062 10.144531 3.367188 10.1875 3.109375 C 10.238281 2.847656 10.046875 2.460938 9.609375 1.953125 C 9.140625 1.410156 8.640625 0.882812 8.109375 0.375 C 6.816406 -0.875 5.484375 -2.09375 4.109375 -3.28125 C 3.617188 -3.71875 3.128906 -4.160156 2.640625 -4.609375 C 1.816406 -5.335938 1.007812 -6.09375 0.21875 -6.875 C -0.507812 -7.582031 -1.15625 -8.359375 -1.71875 -9.203125 C -2.113281 -9.828125 -2.390625 -10.492188 -2.546875 -11.203125 C -2.785156 -12.367188 -2.570312 -13.453125 -1.90625 -14.453125 C -1.164062 -15.554688 -0.0976562 -16.535156 1.296875 -17.390625 C 2.703125 -18.242188 4.328125 -18.972656 6.171875 -19.578125 C 8.015625 -20.179688 9.976562 -20.671875 12.0625 -21.046875 C 14.15625 -21.421875 16.265625 -21.6875 18.390625 -21.84375 C 20.523438 -22 22.566406 -22.050781 24.515625 -22 C 26.472656 -21.957031 28.242188 -21.8125 29.828125 -21.5625 C 31.421875 -21.320312 32.722656 -20.984375 33.734375 -20.546875 C 34.273438 -20.335938 34.773438 -20.050781 35.234375 -19.6875 Z M 35.234375 -19.6875 "/></g></g></g><g fill="#000000" fill-opacity="1"><g transform="translate(147.736963, 144.530831)"><g><path d="M 4.265625 -3.296875 C 3.648438 -2.578125 3.050781 -2.046875 2.46875 -1.703125 C 1.882812 -1.359375 1.257812 -1.242188 0.59375 -1.359375 C -0.0703125 -1.484375 -0.34375 -1.929688 -0.21875 -2.703125 C -0.144531 -3.097656 -0.0351562 -3.484375 0.109375 -3.859375 C 0.460938 -4.722656 0.816406 -5.585938 1.171875 -6.453125 C 1.285156 -6.753906 1.410156 -7.0625 1.546875 -7.375 C 1.578125 -7.445312 1.609375 -7.515625 1.640625 -7.578125 C 1.691406 -7.691406 1.738281 -7.8125 1.78125 -7.9375 C 1.851562 -8.132812 1.773438 -8.238281 1.546875 -8.25 C 1.410156 -8.25 1.28125 -8.25 1.15625 -8.25 C 1.101562 -8.25 1.039062 -8.25 0.96875 -8.25 C 0.894531 -8.238281 0.820312 -8.226562 0.75 -8.21875 C 0.632812 -8.207031 0.515625 -8.203125 0.390625 -8.203125 C 0.273438 -8.203125 0.171875 -8.234375 0.078125 -8.296875 C 0.046875 -8.304688 0.0195312 -8.320312 0 -8.34375 C -0.0078125 -8.363281 -0.015625 -8.394531 -0.015625 -8.4375 C -0.00390625 -8.445312 0.0078125 -8.460938 0.03125 -8.484375 C 0.0507812 -8.515625 0.078125 -8.535156 0.109375 -8.546875 C 0.210938 -8.585938 0.316406 -8.617188 0.421875 -8.640625 C 0.703125 -8.648438 0.984375 -8.660156 1.265625 -8.671875 C 1.367188 -8.671875 1.460938 -8.671875 1.546875 -8.671875 C 1.734375 -8.671875 1.867188 -8.675781 1.953125 -8.6875 C 2.046875 -8.695312 2.117188 -8.742188 2.171875 -8.828125 C 2.222656 -8.910156 2.285156 -9.035156 2.359375 -9.203125 C 2.398438 -9.296875 2.453125 -9.398438 2.515625 -9.515625 C 2.660156 -9.828125 2.804688 -10.148438 2.953125 -10.484375 C 3.023438 -10.628906 3.097656 -10.773438 3.171875 -10.921875 C 3.234375 -11.054688 3.328125 -11.164062 3.453125 -11.25 C 3.578125 -11.3125 3.679688 -11.304688 3.765625 -11.234375 C 3.796875 -11.210938 3.816406 -11.179688 3.828125 -11.140625 C 3.847656 -11.097656 3.859375 -11.0625 3.859375 -11.03125 C 3.859375 -10.851562 3.8125 -10.679688 3.71875 -10.515625 C 3.707031 -10.472656 3.6875 -10.425781 3.65625 -10.375 C 3.601562 -10.21875 3.539062 -10.054688 3.46875 -9.890625 C 3.34375 -9.578125 3.21875 -9.257812 3.09375 -8.9375 C 3.0625 -8.875 3.0625 -8.816406 3.09375 -8.765625 C 3.125 -8.722656 3.164062 -8.703125 3.21875 -8.703125 C 3.539062 -8.703125 3.859375 -8.703125 4.171875 -8.703125 C 4.328125 -8.703125 4.488281 -8.703125 4.65625 -8.703125 C 5.15625 -8.691406 5.351562 -8.617188 5.25 -8.484375 C 5.1875 -8.410156 5.113281 -8.363281 5.03125 -8.34375 C 4.945312 -8.332031 4.863281 -8.335938 4.78125 -8.359375 C 4.738281 -8.359375 4.691406 -8.359375 4.640625 -8.359375 C 4.128906 -8.328125 3.625 -8.304688 3.125 -8.296875 C 2.894531 -8.296875 2.738281 -8.191406 2.65625 -7.984375 C 2.570312 -7.785156 2.492188 -7.582031 2.421875 -7.375 C 2.304688 -7.113281 2.195312 -6.859375 2.09375 -6.609375 C 2 -6.367188 1.898438 -6.128906 1.796875 -5.890625 C 1.535156 -5.285156 1.285156 -4.675781 1.046875 -4.0625 C 0.898438 -3.65625 0.785156 -3.242188 0.703125 -2.828125 C 0.503906 -2.066406 0.796875 -1.773438 1.578125 -1.953125 C 2.335938 -2.140625 3.132812 -2.691406 3.96875 -3.609375 C 4.332031 -3.835938 4.429688 -3.734375 4.265625 -3.296875 Z M 4.265625 -3.296875 "/></g></g></g><g fill="#000000" fill-opacity="1"><g transform="translate(151.608711, 144.530831)"><g><path d="M 3.265625 -4.1875 C 3.234375 -3.875 3.085938 -3.671875 2.828125 -3.578125 C 2.578125 -3.484375 2.492188 -3.609375 2.578125 -3.953125 C 2.671875 -4.296875 2.515625 -4.378906 2.109375 -4.203125 C 1.710938 -4.035156 1.382812 -3.820312 1.125 -3.5625 C 0.726562 -3.15625 0.375 -2.71875 0.0625 -2.25 C 0.03125 -2.207031 0.00390625 -2.171875 -0.015625 -2.140625 C -0.109375 -2.003906 -0.195312 -1.878906 -0.28125 -1.765625 C -0.34375 -1.679688 -0.410156 -1.628906 -0.484375 -1.609375 C -0.566406 -1.585938 -0.648438 -1.585938 -0.734375 -1.609375 C -0.816406 -1.609375 -0.875 -1.632812 -0.90625 -1.6875 C -0.945312 -1.738281 -0.953125 -1.800781 -0.921875 -1.875 C -0.878906 -1.988281 -0.820312 -2.113281 -0.75 -2.25 C -0.34375 -3.007812 0.0703125 -3.769531 0.5 -4.53125 C 0.507812 -4.539062 0.515625 -4.550781 0.515625 -4.5625 C 0.566406 -4.675781 0.632812 -4.785156 0.71875 -4.890625 C 0.8125 -4.984375 0.914062 -5.019531 1.03125 -5 C 1.15625 -4.988281 1.238281 -4.921875 1.28125 -4.796875 C 1.320312 -4.640625 1.359375 -4.550781 1.390625 -4.53125 C 1.429688 -4.507812 1.519531 -4.519531 1.65625 -4.5625 C 1.925781 -4.664062 2.191406 -4.738281 2.453125 -4.78125 C 2.710938 -4.820312 2.921875 -4.8125 3.078125 -4.75 C 3.242188 -4.6875 3.304688 -4.5 3.265625 -4.1875 Z M 3.265625 -4.1875 "/></g></g></g><g fill="#000000" fill-opacity="1"><g transform="translate(155.01694, 144.530831)"><g><path d="M 4.9375 -3.46875 C 5.050781 -3.414062 5.0625 -3.269531 4.96875 -3.03125 C 4.84375 -2.851562 4.703125 -2.6875 4.546875 -2.53125 C 4.398438 -2.382812 4.238281 -2.253906 4.0625 -2.140625 C 4.039062 -2.140625 4.03125 -2.132812 4.03125 -2.125 C 3.914062 -2.039062 3.789062 -1.972656 3.65625 -1.921875 C 2.570312 -1.523438 2.019531 -1.753906 2 -2.609375 C 1.5625 -2.222656 1.265625 -1.988281 1.109375 -1.90625 C 0.753906 -1.6875 0.367188 -1.585938 -0.046875 -1.609375 C -0.359375 -1.628906 -0.570312 -1.722656 -0.6875 -1.890625 C -0.800781 -2.066406 -0.789062 -2.300781 -0.65625 -2.59375 C -0.457031 -3.050781 -0.171875 -3.457031 0.203125 -3.8125 C 0.628906 -4.21875 1.109375 -4.539062 1.640625 -4.78125 C 1.921875 -4.925781 2.21875 -4.976562 2.53125 -4.9375 C 2.832031 -4.925781 3.015625 -4.753906 3.078125 -4.421875 C 3.109375 -4.316406 3.085938 -4.226562 3.015625 -4.15625 C 2.910156 -4.0625 2.789062 -4.039062 2.65625 -4.09375 C 2.644531 -4.09375 2.628906 -4.09375 2.609375 -4.09375 C 2.597656 -4.101562 2.585938 -4.113281 2.578125 -4.125 C 2.453125 -4.300781 2.320312 -4.375 2.1875 -4.34375 C 2.050781 -4.3125 1.910156 -4.253906 1.765625 -4.171875 C 1.054688 -3.753906 0.535156 -3.179688 0.203125 -2.453125 C 0.179688 -2.421875 0.164062 -2.382812 0.15625 -2.34375 C 0.15625 -2.3125 0.171875 -2.28125 0.203125 -2.25 C 0.285156 -2.226562 0.375 -2.234375 0.46875 -2.265625 C 0.570312 -2.304688 0.671875 -2.363281 0.765625 -2.4375 C 0.867188 -2.519531 0.953125 -2.582031 1.015625 -2.625 C 1.023438 -2.644531 1.03125 -2.65625 1.03125 -2.65625 C 1.363281 -2.925781 1.691406 -3.207031 2.015625 -3.5 C 2.148438 -3.65625 2.320312 -3.742188 2.53125 -3.765625 C 2.832031 -3.765625 2.957031 -3.628906 2.90625 -3.359375 C 2.882812 -3.253906 2.859375 -3.15625 2.828125 -3.0625 C 2.703125 -2.625 2.691406 -2.367188 2.796875 -2.296875 C 2.910156 -2.222656 3.082031 -2.222656 3.3125 -2.296875 C 3.539062 -2.367188 3.765625 -2.507812 3.984375 -2.71875 C 4.210938 -2.9375 4.398438 -3.128906 4.546875 -3.296875 C 4.703125 -3.472656 4.832031 -3.53125 4.9375 -3.46875 Z M 4.9375 -3.46875 "/></g></g></g><g fill="#000000" fill-opacity="1"><g transform="translate(159.536251, 144.530831)"><g><path d="M 4.265625 -3.296875 C 3.648438 -2.578125 3.050781 -2.046875 2.46875 -1.703125 C 1.882812 -1.359375 1.257812 -1.242188 0.59375 -1.359375 C -0.0703125 -1.484375 -0.34375 -1.929688 -0.21875 -2.703125 C -0.144531 -3.097656 -0.0351562 -3.484375 0.109375 -3.859375 C 0.460938 -4.722656 0.816406 -5.585938 1.171875 -6.453125 C 1.285156 -6.753906 1.410156 -7.0625 1.546875 -7.375 C 1.578125 -7.445312 1.609375 -7.515625 1.640625 -7.578125 C 1.691406 -7.691406 1.738281 -7.8125 1.78125 -7.9375 C 1.851562 -8.132812 1.773438 -8.238281 1.546875 -8.25 C 1.410156 -8.25 1.28125 -8.25 1.15625 -8.25 C 1.101562 -8.25 1.039062 -8.25 0.96875 -8.25 C 0.894531 -8.238281 0.820312 -8.226562 0.75 -8.21875 C 0.632812 -8.207031 0.515625 -8.203125 0.390625 -8.203125 C 0.273438 -8.203125 0.171875 -8.234375 0.078125 -8.296875 C 0.046875 -8.304688 0.0195312 -8.320312 0 -8.34375 C -0.0078125 -8.363281 -0.015625 -8.394531 -0.015625 -8.4375 C -0.00390625 -8.445312 0.0078125 -8.460938 0.03125 -8.484375 C 0.0507812 -8.515625 0.078125 -8.535156 0.109375 -8.546875 C 0.210938 -8.585938 0.316406 -8.617188 0.421875 -8.640625 C 0.703125 -8.648438 0.984375 -8.660156 1.265625 -8.671875 C 1.367188 -8.671875 1.460938 -8.671875 1.546875 -8.671875 C 1.734375 -8.671875 1.867188 -8.675781 1.953125 -8.6875 C 2.046875 -8.695312 2.117188 -8.742188 2.171875 -8.828125 C 2.222656 -8.910156 2.285156 -9.035156 2.359375 -9.203125 C 2.398438 -9.296875 2.453125 -9.398438 2.515625 -9.515625 C 2.660156 -9.828125 2.804688 -10.148438 2.953125 -10.484375 C 3.023438 -10.628906 3.097656 -10.773438 3.171875 -10.921875 C 3.234375 -11.054688 3.328125 -11.164062 3.453125 -11.25 C 3.578125 -11.3125 3.679688 -11.304688 3.765625 -11.234375 C 3.796875 -11.210938 3.816406 -11.179688 3.828125 -11.140625 C 3.847656 -11.097656 3.859375 -11.0625 3.859375 -11.03125 C 3.859375 -10.851562 3.8125 -10.679688 3.71875 -10.515625 C 3.707031 -10.472656 3.6875 -10.425781 3.65625 -10.375 C 3.601562 -10.21875 3.539062 -10.054688 3.46875 -9.890625 C 3.34375 -9.578125 3.21875 -9.257812 3.09375 -8.9375 C 3.0625 -8.875 3.0625 -8.816406 3.09375 -8.765625 C 3.125 -8.722656 3.164062 -8.703125 3.21875 -8.703125 C 3.539062 -8.703125 3.859375 -8.703125 4.171875 -8.703125 C 4.328125 -8.703125 4.488281 -8.703125 4.65625 -8.703125 C 5.15625 -8.691406 5.351562 -8.617188 5.25 -8.484375 C 5.1875 -8.410156 5.113281 -8.363281 5.03125 -8.34375 C 4.945312 -8.332031 4.863281 -8.335938 4.78125 -8.359375 C 4.738281 -8.359375 4.691406 -8.359375 4.640625 -8.359375 C 4.128906 -8.328125 3.625 -8.304688 3.125 -8.296875 C 2.894531 -8.296875 2.738281 -8.191406 2.65625 -7.984375 C 2.570312 -7.785156 2.492188 -7.582031 2.421875 -7.375 C 2.304688 -7.113281 2.195312 -6.859375 2.09375 -6.609375 C 2 -6.367188 1.898438 -6.128906 1.796875 -5.890625 C 1.535156 -5.285156 1.285156 -4.675781 1.046875 -4.0625 C 0.898438 -3.65625 0.785156 -3.242188 0.703125 -2.828125 C 0.503906 -2.066406 0.796875 -1.773438 1.578125 -1.953125 C 2.335938 -2.140625 3.132812 -2.691406 3.96875 -3.609375 C 4.332031 -3.835938 4.429688 -3.734375 4.265625 -3.296875 Z M 4.265625 -3.296875 "/></g></g></g><g fill="#000000" fill-opacity="1"><g transform="translate(163.407999, 144.530831)"><g><path d="M 3.890625 -2.625 C 3.628906 -2.363281 3.320312 -2.140625 2.96875 -1.953125 C 2.613281 -1.765625 2.316406 -1.640625 2.078125 -1.578125 C 1.847656 -1.523438 1.609375 -1.5 1.359375 -1.5 C 0.953125 -1.476562 0.582031 -1.53125 0.25 -1.65625 C -0.300781 -1.875 -0.492188 -2.300781 -0.328125 -2.9375 C -0.160156 -3.476562 0.160156 -3.898438 0.640625 -4.203125 C 1.128906 -4.503906 1.632812 -4.648438 2.15625 -4.640625 C 2.15625 -4.640625 2.160156 -4.640625 2.171875 -4.640625 C 2.296875 -4.648438 2.421875 -4.644531 2.546875 -4.625 C 2.742188 -4.550781 2.867188 -4.429688 2.921875 -4.265625 C 2.984375 -4.097656 2.945312 -3.914062 2.8125 -3.71875 C 2.519531 -3.28125 2.125 -3.035156 1.625 -2.984375 C 1.289062 -2.953125 0.972656 -2.96875 0.671875 -3.03125 C 0.609375 -3.039062 0.550781 -3.023438 0.5 -2.984375 C 0.457031 -2.941406 0.4375 -2.890625 0.4375 -2.828125 C 0.34375 -2.441406 0.460938 -2.191406 0.796875 -2.078125 C 1.203125 -1.941406 1.625 -1.941406 2.0625 -2.078125 C 2.570312 -2.234375 3.054688 -2.53125 3.515625 -2.96875 C 3.972656 -3.414062 4.238281 -3.625 4.3125 -3.59375 C 4.382812 -3.5625 4.40625 -3.476562 4.375 -3.34375 C 4.3125 -3.125 4.148438 -2.882812 3.890625 -2.625 Z M 0.984375 -3.71875 C 0.953125 -3.6875 0.929688 -3.648438 0.921875 -3.609375 C 0.910156 -3.566406 0.925781 -3.53125 0.96875 -3.5 C 1.125 -3.414062 1.296875 -3.382812 1.484375 -3.40625 C 1.671875 -3.425781 1.828125 -3.492188 1.953125 -3.609375 C 2.085938 -3.734375 2.144531 -3.878906 2.125 -4.046875 C 2.113281 -4.109375 2.082031 -4.144531 2.03125 -4.15625 C 1.976562 -4.175781 1.925781 -4.179688 1.875 -4.171875 C 1.539062 -4.109375 1.242188 -3.957031 0.984375 -3.71875 Z M 0.984375 -3.71875 "/></g></g></g><g fill="#000000" fill-opacity="1"><g transform="translate(167.375177, 144.530831)"><g><path d="M 6.015625 -3.65625 C 6.054688 -3.664062 6.097656 -3.664062 6.140625 -3.65625 C 6.191406 -3.644531 6.226562 -3.625 6.25 -3.59375 C 6.269531 -3.539062 6.265625 -3.488281 6.234375 -3.4375 C 6.210938 -3.394531 6.171875 -3.359375 6.109375 -3.328125 C 5.703125 -3.128906 5.289062 -2.921875 4.875 -2.703125 C 4.382812 -2.453125 3.894531 -2.203125 3.40625 -1.953125 C 3.332031 -1.929688 3.265625 -1.898438 3.203125 -1.859375 C 3.085938 -1.796875 2.976562 -1.738281 2.875 -1.6875 C 2.625 -1.5625 2.457031 -1.375 2.375 -1.125 C 2.15625 -0.5 1.925781 0.113281 1.6875 0.71875 C 1.375 1.53125 0.988281 2.304688 0.53125 3.046875 C 0.269531 3.472656 -0.046875 3.847656 -0.421875 4.171875 C -0.859375 4.585938 -1.363281 4.847656 -1.9375 4.953125 C -2.875 5.148438 -3.78125 5.09375 -4.65625 4.78125 C -5.007812 4.644531 -5.316406 4.4375 -5.578125 4.15625 C -5.929688 3.78125 -5.945312 3.378906 -5.625 2.953125 C -5.488281 2.765625 -5.332031 2.59375 -5.15625 2.4375 C -4.769531 2.082031 -4.351562 1.769531 -3.90625 1.5 C -2.289062 0.46875 -0.628906 -0.484375 1.078125 -1.359375 C 1.253906 -1.453125 1.429688 -1.546875 1.609375 -1.640625 C 1.640625 -1.660156 1.675781 -1.707031 1.71875 -1.78125 C 1.769531 -1.863281 1.804688 -1.941406 1.828125 -2.015625 C 1.859375 -2.085938 1.851562 -2.140625 1.8125 -2.171875 C 1.78125 -2.210938 1.6875 -2.195312 1.53125 -2.125 C 1.476562 -2.101562 1.425781 -2.078125 1.375 -2.046875 C 1.238281 -1.984375 1.101562 -1.925781 0.96875 -1.875 C 0.195312 -1.695312 -0.1875 -2 -0.1875 -2.78125 C -0.164062 -3.257812 -0.0234375 -3.6875 0.234375 -4.0625 C 0.503906 -4.4375 0.84375 -4.734375 1.25 -4.953125 C 1.664062 -5.171875 2.113281 -5.253906 2.59375 -5.203125 C 2.644531 -5.203125 2.695312 -5.195312 2.75 -5.1875 C 2.882812 -5.164062 3.015625 -5.15625 3.140625 -5.15625 C 3.273438 -5.15625 3.414062 -5.1875 3.5625 -5.25 C 3.707031 -5.300781 3.816406 -5.28125 3.890625 -5.1875 C 3.972656 -5.09375 3.988281 -4.972656 3.9375 -4.828125 C 3.800781 -4.546875 3.671875 -4.257812 3.546875 -3.96875 C 3.453125 -3.789062 3.363281 -3.609375 3.28125 -3.421875 C 3.195312 -3.210938 3.109375 -3.003906 3.015625 -2.796875 C 2.898438 -2.523438 2.882812 -2.382812 2.96875 -2.375 C 3.050781 -2.363281 3.195312 -2.410156 3.40625 -2.515625 C 3.4375 -2.523438 3.46875 -2.535156 3.5 -2.546875 C 3.882812 -2.722656 4.269531 -2.898438 4.65625 -3.078125 C 4.925781 -3.203125 5.195312 -3.328125 5.46875 -3.453125 C 5.644531 -3.535156 5.828125 -3.601562 6.015625 -3.65625 Z M 1.171875 0 C 1.316406 -0.394531 1.378906 -0.65625 1.359375 -0.78125 C 1.335938 -0.90625 1.25 -0.9375 1.09375 -0.875 C 0.9375 -0.820312 0.734375 -0.710938 0.484375 -0.546875 C 0.328125 -0.453125 0.148438 -0.351562 -0.046875 -0.25 C -1.191406 0.375 -2.3125 1.039062 -3.40625 1.75 C -3.882812 2.03125 -4.3125 2.367188 -4.6875 2.765625 C -5.09375 3.191406 -5.082031 3.570312 -4.65625 3.90625 C -4.40625 4.101562 -4.125 4.242188 -3.8125 4.328125 C -3.507812 4.410156 -3.171875 4.453125 -2.796875 4.453125 C -2.367188 4.484375 -1.96875 4.398438 -1.59375 4.203125 C -1.226562 4.015625 -0.890625 3.726562 -0.578125 3.34375 C -0.390625 3.09375 -0.210938 2.835938 -0.046875 2.578125 C 0.453125 1.753906 0.859375 0.894531 1.171875 0 Z M 0.71875 -2.40625 C 0.84375 -2.351562 1.015625 -2.394531 1.234375 -2.53125 C 1.460938 -2.664062 1.691406 -2.851562 1.921875 -3.09375 C 2.160156 -3.332031 2.347656 -3.578125 2.484375 -3.828125 C 2.628906 -4.078125 2.664062 -4.289062 2.59375 -4.46875 C 2.582031 -4.519531 2.554688 -4.566406 2.515625 -4.609375 C 2.441406 -4.691406 2.359375 -4.726562 2.265625 -4.71875 C 2.179688 -4.71875 2.085938 -4.703125 1.984375 -4.671875 C 1.648438 -4.546875 1.351562 -4.320312 1.09375 -4 C 0.84375 -3.675781 0.675781 -3.359375 0.59375 -3.046875 C 0.507812 -2.734375 0.550781 -2.519531 0.71875 -2.40625 Z M 0.71875 -2.40625 "/></g></g></g><g fill="#000000" fill-opacity="1"><g transform="translate(173.196432, 144.530831)"><g><path d="M 5.34375 -3.5625 C 5.40625 -3.445312 5.304688 -3.269531 5.046875 -3.03125 C 4.796875 -2.789062 4.351562 -2.5 3.71875 -2.15625 C 3.476562 -2.050781 3.300781 -1.96875 3.1875 -1.90625 C 3.082031 -1.851562 3.003906 -1.78125 2.953125 -1.6875 C 2.898438 -1.601562 2.847656 -1.460938 2.796875 -1.265625 C 2.742188 -1.128906 2.675781 -0.941406 2.59375 -0.703125 C 2.476562 -0.410156 2.367188 -0.109375 2.265625 0.203125 C 2.066406 0.828125 1.828125 1.445312 1.546875 2.0625 C 1.273438 2.6875 0.921875 3.226562 0.484375 3.6875 C 0.046875 4.144531 -0.515625 4.445312 -1.203125 4.59375 C -1.890625 4.726562 -2.554688 4.75 -3.203125 4.65625 C -3.847656 4.5625 -4.484375 4.382812 -5.109375 4.125 C -5.359375 4.007812 -5.582031 3.859375 -5.78125 3.671875 C -6.113281 3.328125 -6.140625 2.945312 -5.859375 2.53125 C -5.703125 2.3125 -5.523438 2.117188 -5.328125 1.953125 C -4.929688 1.628906 -4.515625 1.335938 -4.078125 1.078125 C -3.253906 0.578125 -2.414062 0.125 -1.5625 -0.28125 C -0.71875 -0.6875 0.132812 -1.082031 1 -1.46875 C 1.0625 -1.488281 1.128906 -1.519531 1.203125 -1.5625 C 1.441406 -1.664062 1.6875 -1.769531 1.9375 -1.875 C 2.101562 -1.945312 2.21875 -2.066406 2.28125 -2.234375 C 2.300781 -2.285156 2.304688 -2.335938 2.296875 -2.390625 C 2.285156 -2.421875 2.265625 -2.4375 2.234375 -2.4375 C 2.210938 -2.445312 2.1875 -2.441406 2.15625 -2.421875 C 2.070312 -2.378906 1.984375 -2.320312 1.890625 -2.25 C 1.835938 -2.226562 1.78125 -2.195312 1.71875 -2.15625 C 1.40625 -1.96875 1.082031 -1.890625 0.75 -1.921875 C 0.21875 -1.921875 -0.0507812 -2.15625 -0.0625 -2.625 C -0.0703125 -3.019531 -0.00390625 -3.390625 0.140625 -3.734375 C 0.285156 -4.085938 0.488281 -4.421875 0.75 -4.734375 C 0.78125 -4.765625 0.816406 -4.789062 0.859375 -4.8125 C 0.910156 -4.832031 0.960938 -4.847656 1.015625 -4.859375 C 1.023438 -4.859375 1.035156 -4.863281 1.046875 -4.875 C 1.148438 -4.882812 1.226562 -4.859375 1.28125 -4.796875 C 1.332031 -4.734375 1.34375 -4.65625 1.3125 -4.5625 C 1.257812 -4.4375 1.203125 -4.3125 1.140625 -4.1875 C 1.085938 -4.082031 1.035156 -3.976562 0.984375 -3.875 C 0.785156 -3.488281 0.695312 -3.082031 0.71875 -2.65625 C 0.726562 -2.5625 0.765625 -2.492188 0.828125 -2.453125 C 0.898438 -2.410156 0.984375 -2.410156 1.078125 -2.453125 C 1.347656 -2.566406 1.582031 -2.722656 1.78125 -2.921875 C 2.320312 -3.410156 2.765625 -3.976562 3.109375 -4.625 C 3.160156 -4.707031 3.21875 -4.78125 3.28125 -4.84375 C 3.351562 -4.90625 3.441406 -4.941406 3.546875 -4.953125 C 3.691406 -4.972656 3.800781 -4.941406 3.875 -4.859375 C 3.945312 -4.785156 3.96875 -4.6875 3.9375 -4.5625 C 3.8125 -4.15625 3.679688 -3.753906 3.546875 -3.359375 C 3.535156 -3.328125 3.519531 -3.296875 3.5 -3.265625 C 3.46875 -3.171875 3.4375 -3.070312 3.40625 -2.96875 C 3.375 -2.875 3.359375 -2.789062 3.359375 -2.71875 C 3.359375 -2.644531 3.390625 -2.609375 3.453125 -2.609375 C 3.703125 -2.660156 4.066406 -2.859375 4.546875 -3.203125 C 5.023438 -3.554688 5.289062 -3.675781 5.34375 -3.5625 Z M 1.78125 -0.8125 C 1.78125 -0.84375 1.785156 -0.863281 1.796875 -0.875 C 1.828125 -0.925781 1.84375 -0.976562 1.84375 -1.03125 C 1.851562 -1.09375 1.835938 -1.160156 1.796875 -1.234375 C 1.765625 -1.234375 1.738281 -1.234375 1.71875 -1.234375 C 1.65625 -1.210938 1.601562 -1.195312 1.5625 -1.1875 C 1.457031 -1.144531 1.351562 -1.097656 1.25 -1.046875 C 0.445312 -0.671875 -0.347656 -0.289062 -1.140625 0.09375 C -1.941406 0.488281 -2.726562 0.90625 -3.5 1.34375 C -3.96875 1.613281 -4.410156 1.925781 -4.828125 2.28125 C -5.160156 2.582031 -5.316406 2.84375 -5.296875 3.0625 C -5.285156 3.289062 -5.09375 3.5 -4.71875 3.6875 C -3.84375 4.132812 -2.90625 4.316406 -1.90625 4.234375 C -1.226562 4.171875 -0.675781 3.914062 -0.25 3.46875 C 0.175781 3.019531 0.523438 2.484375 0.796875 1.859375 C 1.066406 1.242188 1.300781 0.625 1.5 0 C 1.582031 -0.289062 1.675781 -0.5625 1.78125 -0.8125 Z M 1.78125 -0.8125 "/></g></g></g></g></g></g></svg>