<svg xmlns="http://www.w3.org/2000/svg" xmlns:xlink="http://www.w3.org/1999/xlink" width="246" zoomAndPan="magnify" viewBox="0 0 1440 809.999993" height="81" preserveAspectRatio="xMidYMid meet" version="1.0"><defs><g/><clipPath id="8c4d463d9e"><path d="M 0 168.75 L 1440 168.75 L 1440 641.25 L 0 641.25 Z M 0 168.75 " clip-rule="nonzero"/></clipPath><clipPath id="b199f51f32"><path d="M 0 0.75 L 1440 0.75 L 1440 473.25 L 0 473.25 Z M 0 0.75 " clip-rule="nonzero"/></clipPath><clipPath id="402f13b604"><path d="M 355 118 L 1084 118 L 1084 473.25 L 355 473.25 Z M 355 118 " clip-rule="nonzero"/></clipPath><clipPath id="10d026d151"><rect x="0" width="729" y="0" height="356"/></clipPath><clipPath id="6db0de7d61"><rect x="0" width="1440" y="0" height="474"/></clipPath></defs><path fill="#ffffff" d="M 0 168.75 L 1440 168.75 L 1440 641.25 L 0 641.25 Z M 0 168.75 " fill-opacity="1" fill-rule="nonzero"/><g clip-path="url(#8c4d463d9e)"><g transform="matrix(1, 0, 0, 1, 0, 168)"><g clip-path="url(#6db0de7d61)"><g clip-path="url(#b199f51f32)"><path fill="#ffffff" d="M 0 0.75 L 1441.9375 0.75 L 1441.9375 475.535156 L 0 475.535156 Z M 0 0.75 " fill-opacity="1" fill-rule="nonzero"/></g><g clip-path="url(#402f13b604)"><g transform="matrix(1, 0, 0, 1, 355, 118)"><g clip-path="url(#10d026d151)"><g fill="#000000" fill-opacity="1"><g transform="translate(160.187708, 92.363283)"><g><path d="M 11.054688 0 L 30.96875 0 L 30.96875 -1.421875 C 28.1875 -1.679688 27.476562 -2.199219 27.476562 -4.007812 L 27.476562 -41.699219 C 32.261719 -40.925781 36.269531 -37.238281 39.566406 -30.839844 L 40.988281 -30.839844 L 39.050781 -44.222656 C 38.984375 -44.609375 38.726562 -44.804688 38.339844 -44.738281 C 36.527344 -44.351562 32.066406 -43.960938 30.191406 -43.960938 L 11.832031 -43.960938 C 9.957031 -43.960938 5.496094 -44.351562 3.683594 -44.738281 C 3.296875 -44.804688 3.039062 -44.609375 2.972656 -44.222656 L 1.035156 -30.839844 L 2.457031 -30.839844 C 5.753906 -37.238281 9.761719 -40.925781 14.546875 -41.699219 L 14.546875 -4.007812 C 14.546875 -2.199219 13.835938 -1.679688 11.054688 -1.421875 Z M 11.054688 0 "/></g></g></g><g fill="#000000" fill-opacity="1"><g transform="translate(202.211125, 92.363283)"><g><path d="M 2.132812 0 L 22.046875 0 L 22.046875 -1.421875 C 19.265625 -1.679688 18.554688 -2.199219 18.554688 -4.007812 L 18.554688 -20.945312 L 31.097656 -20.945312 L 31.097656 -4.007812 C 31.097656 -2.199219 30.386719 -1.679688 27.605469 -1.421875 L 27.605469 0 L 47.519531 0 L 47.519531 -1.421875 C 44.738281 -1.679688 44.027344 -2.199219 44.027344 -4.007812 L 44.027344 -39.953125 C 44.027344 -41.765625 44.738281 -42.28125 47.519531 -42.539062 L 47.519531 -43.960938 L 27.605469 -43.960938 L 27.605469 -42.539062 C 30.386719 -42.28125 31.097656 -41.765625 31.097656 -39.953125 L 31.097656 -23.144531 L 18.554688 -23.144531 L 18.554688 -39.953125 C 18.554688 -41.765625 19.265625 -42.28125 22.046875 -42.539062 L 22.046875 -43.960938 L 2.132812 -43.960938 L 2.132812 -42.539062 C 4.914062 -42.28125 5.625 -41.765625 5.625 -39.953125 L 5.625 -4.007812 C 5.625 -2.199219 4.914062 -1.679688 2.132812 -1.421875 Z M 2.132812 0 "/></g></g></g><g fill="#000000" fill-opacity="1"><g transform="translate(252.122071, 92.363283)"><g><path d="M 2.261719 0 L 37.691406 0 L 39.632812 -13.125 L 38.207031 -13.125 C 35.363281 -7.757812 31.097656 -2.132812 24.308594 -2.132812 L 18.683594 -2.132812 L 18.683594 -23.984375 L 19.589844 -23.984375 C 24.375 -23.984375 29.15625 -23.015625 29.15625 -18.878906 L 30.578125 -18.878906 L 30.578125 -31.160156 L 29.15625 -31.160156 C 29.15625 -27.410156 24.4375 -26.117188 19.589844 -26.117188 L 18.683594 -26.117188 L 18.683594 -41.828125 L 22.691406 -41.828125 C 29.480469 -41.828125 33.746094 -36.203125 36.59375 -30.839844 L 38.015625 -30.839844 L 36.074219 -43.960938 L 2.261719 -43.960938 L 2.261719 -42.539062 C 4.914062 -42.21875 5.753906 -41.765625 5.753906 -39.953125 L 5.753906 -4.007812 C 5.753906 -2.199219 4.914062 -1.746094 2.261719 -1.421875 Z M 2.261719 0 "/></g></g></g><g fill="#000000" fill-opacity="1"><g transform="translate(294.339498, 92.363283)"><g/></g></g><g fill="#000000" fill-opacity="1"><g transform="translate(308.498183, 92.363283)"><g><path d="M 20.363281 0.90625 L 22.304688 0.90625 L 33.230469 -29.609375 L 44.933594 0.90625 L 46.871094 0.90625 L 59.996094 -35.882812 C 61.613281 -40.34375 63.875 -42.539062 66.847656 -42.539062 L 66.847656 -43.960938 L 51.527344 -43.960938 L 51.527344 -42.539062 C 54.824219 -42.539062 57.476562 -40.601562 57.476562 -37.820312 C 57.476562 -35.882812 55.277344 -28.769531 50.878906 -16.550781 L 43.316406 -39.179688 C 42.605469 -41.246094 42.410156 -42.539062 46.097656 -42.539062 L 46.097656 -43.960938 L 25.40625 -43.960938 L 25.40625 -42.539062 C 27.671875 -42.539062 28.769531 -41.183594 29.480469 -39.308594 L 31.808594 -33.230469 C 30.710938 -29.15625 28.898438 -23.664062 26.378906 -16.484375 L 21.980469 -29.351562 C 18.683594 -39.179688 17.457031 -42.539062 21.207031 -42.539062 L 21.207031 -43.960938 L 0.648438 -43.960938 L 0.648438 -42.539062 C 3.234375 -42.539062 4.332031 -40.859375 5.949219 -36.722656 Z M 20.363281 0.90625 "/></g></g></g><g fill="#000000" fill-opacity="1"><g transform="translate(371.921248, 92.363283)"><g><path d="M 24.761719 0.96875 C 38.015625 0.96875 46.871094 -8.210938 46.871094 -21.980469 C 46.871094 -35.753906 38.015625 -44.933594 24.761719 -44.933594 C 11.507812 -44.933594 2.652344 -35.753906 2.652344 -21.980469 C 2.652344 -8.210938 11.507812 0.96875 24.761719 0.96875 Z M 24.761719 -1.035156 C 19.71875 -1.035156 16.355469 -9.4375 16.355469 -21.980469 C 16.355469 -34.523438 19.71875 -42.929688 24.761719 -42.929688 C 29.804688 -42.929688 33.164062 -34.523438 33.164062 -21.980469 C 33.164062 -9.4375 29.804688 -1.035156 24.761719 -1.035156 Z M 24.761719 -1.035156 "/></g></g></g><g fill="#000000" fill-opacity="1"><g transform="translate(421.638183, 92.363283)"><g><path d="M 2.261719 0 L 22.175781 0 L 22.175781 -1.421875 C 19.394531 -1.679688 18.683594 -2.199219 18.683594 -4.007812 L 18.683594 -19.203125 L 21.65625 -19.523438 L 28.835938 -4.007812 C 29.675781 -2.199219 28.835938 -1.679688 26.054688 -1.421875 L 26.054688 0 L 45.449219 0 L 45.449219 -1.421875 C 43.898438 -1.550781 42.734375 -2.519531 41.957031 -4.007812 L 32.261719 -22.691406 C 37.496094 -24.503906 40.925781 -27.671875 40.925781 -33.164062 C 40.925781 -41.117188 34.070312 -43.960938 24.242188 -43.960938 L 2.261719 -43.960938 L 2.261719 -42.539062 C 4.914062 -42.21875 5.753906 -41.765625 5.753906 -39.953125 L 5.753906 -4.007812 C 5.753906 -2.199219 5.042969 -1.679688 2.261719 -1.421875 Z M 18.683594 -21.398438 L 18.683594 -41.828125 L 20.429688 -41.828125 C 25.148438 -41.828125 28.511719 -39.566406 28.445312 -32.003906 C 28.382812 -25.667969 24.890625 -22.5625 20.816406 -21.789062 Z M 18.683594 -21.398438 "/></g></g></g><g fill="#000000" fill-opacity="1"><g transform="translate(467.476051, 92.363283)"><g><path d="M 2.261719 0 L 34.652344 0 L 36.59375 -13.125 L 35.171875 -13.125 C 32.324219 -7.757812 28.058594 -2.132812 21.269531 -2.132812 L 18.683594 -2.132812 L 18.683594 -39.953125 C 18.683594 -41.765625 19.394531 -42.28125 22.175781 -42.539062 L 22.175781 -43.960938 L 2.261719 -43.960938 L 2.261719 -42.539062 C 5.042969 -42.28125 5.753906 -41.765625 5.753906 -39.953125 L 5.753906 -4.007812 C 5.753906 -2.199219 4.914062 -1.746094 2.261719 -1.421875 Z M 2.261719 0 "/></g></g></g><g fill="#000000" fill-opacity="1"><g transform="translate(506.00834, 92.363283)"><g><path d="M 2.261719 0 L 21.65625 0 C 36.398438 0 46.742188 -8.015625 46.742188 -21.980469 C 46.742188 -36.074219 36.074219 -43.960938 21.65625 -43.960938 L 2.261719 -43.960938 L 2.261719 -42.539062 C 4.914062 -42.21875 5.753906 -41.765625 5.753906 -39.953125 L 5.753906 -4.007812 C 5.753906 -2.199219 4.914062 -1.746094 2.261719 -1.421875 Z M 18.75 -2.070312 L 18.75 -41.894531 L 21.917969 -41.894531 C 29.351562 -41.894531 33.035156 -35.234375 33.035156 -21.980469 C 33.035156 -8.726562 29.351562 -2.070312 21.917969 -2.070312 Z M 18.75 -2.070312 "/></g></g></g><g fill="#000000" fill-opacity="1"><g transform="translate(555.417516, 92.363283)"><g/></g></g><g fill="#000000" fill-opacity="1"><g transform="translate(204.466912, 167.789457)"><g><path d="M 22.628906 0.96875 C 32.261719 0.96875 37.367188 -4.394531 41.054688 -10.410156 L 40.019531 -11.507812 C 35.882812 -8.792969 33.101562 -7.824219 29.609375 -7.824219 C 21.464844 -7.824219 16.746094 -15.257812 16.746094 -26.3125 C 16.746094 -35.558594 19.136719 -42.929688 25.925781 -42.929688 C 30.710938 -42.929688 34.460938 -37.625 36.722656 -29.15625 L 38.144531 -29.15625 L 39.371094 -42.347656 C 35.753906 -44.09375 31.226562 -44.933594 25.925781 -44.933594 C 11.121094 -44.933594 2.652344 -35.234375 2.652344 -20.945312 C 2.652344 -7.175781 11.25 0.96875 22.628906 0.96875 Z M 22.628906 0.96875 "/></g></g></g><g fill="#000000" fill-opacity="1"><g transform="translate(245.649917, 167.789457)"><g><path d="M 0 0 L 15 0 L 15 -1.421875 C 8.535156 -1.421875 7.5625 -4.203125 10.992188 -12.347656 L 11.832031 -14.289062 L 25.085938 -14.289062 L 27.089844 -9.050781 C 29.09375 -3.878906 29.351562 -1.421875 26.054688 -1.421875 L 26.054688 0 L 45.644531 0 L 45.644531 -1.421875 C 43.121094 -1.421875 42.28125 -2.199219 41.441406 -4.203125 L 24.824219 -44.933594 L 21.980469 -44.933594 L 6.789062 -8.082031 C 4.914062 -3.554688 2.78125 -1.421875 0 -1.421875 Z M 12.734375 -16.484375 L 18.75 -30.710938 L 24.242188 -16.484375 Z M 12.734375 -16.484375 "/></g></g></g><g fill="#000000" fill-opacity="1"><g transform="translate(291.94034, 167.789457)"><g><path d="M 35.171875 0.195312 L 40.34375 0.195312 L 40.34375 -35.300781 C 40.34375 -40.148438 41.636719 -42.539062 45.707031 -42.539062 L 45.707031 -43.960938 L 31.484375 -43.960938 L 31.484375 -42.539062 C 36.464844 -42.539062 37.496094 -39.371094 37.625 -33.488281 C 37.757812 -28.835938 37.820312 -23.855469 37.886719 -17.328125 L 18.878906 -43.960938 L 2.585938 -43.960938 L 2.585938 -42.539062 C 5.238281 -42.21875 6.078125 -41.765625 6.078125 -39.953125 L 6.078125 -8.664062 C 6.078125 -3.8125 4.785156 -1.421875 0.710938 -1.421875 L 0.710938 0 L 14.933594 0 L 14.933594 -1.421875 C 10.085938 -1.421875 8.921875 -4.589844 8.792969 -10.472656 L 8.40625 -36.851562 Z M 35.171875 0.195312 "/></g></g></g><g fill="#000000" fill-opacity="1"><g transform="translate(337.648895, 167.789457)"><g/></g></g><g fill="#000000" fill-opacity="1"><g transform="translate(351.80758, 167.789457)"><g><path d="M 20.363281 0.90625 L 22.304688 0.90625 L 33.230469 -29.609375 L 44.933594 0.90625 L 46.871094 0.90625 L 59.996094 -35.882812 C 61.613281 -40.34375 63.875 -42.539062 66.847656 -42.539062 L 66.847656 -43.960938 L 51.527344 -43.960938 L 51.527344 -42.539062 C 54.824219 -42.539062 57.476562 -40.601562 57.476562 -37.820312 C 57.476562 -35.882812 55.277344 -28.769531 50.878906 -16.550781 L 43.316406 -39.179688 C 42.605469 -41.246094 42.410156 -42.539062 46.097656 -42.539062 L 46.097656 -43.960938 L 25.40625 -43.960938 L 25.40625 -42.539062 C 27.671875 -42.539062 28.769531 -41.183594 29.480469 -39.308594 L 31.808594 -33.230469 C 30.710938 -29.15625 28.898438 -23.664062 26.378906 -16.484375 L 21.980469 -29.351562 C 18.683594 -39.179688 17.457031 -42.539062 21.207031 -42.539062 L 21.207031 -43.960938 L 0.648438 -43.960938 L 0.648438 -42.539062 C 3.234375 -42.539062 4.332031 -40.859375 5.949219 -36.722656 Z M 20.363281 0.90625 "/></g></g></g><g fill="#000000" fill-opacity="1"><g transform="translate(412.57993, 167.789457)"><g><path d="M 0 0 L 15 0 L 15 -1.421875 C 8.535156 -1.421875 7.5625 -4.203125 10.992188 -12.347656 L 11.832031 -14.289062 L 25.085938 -14.289062 L 27.089844 -9.050781 C 29.09375 -3.878906 29.351562 -1.421875 26.054688 -1.421875 L 26.054688 0 L 45.644531 0 L 45.644531 -1.421875 C 43.121094 -1.421875 42.28125 -2.199219 41.441406 -4.203125 L 24.824219 -44.933594 L 21.980469 -44.933594 L 6.789062 -8.082031 C 4.914062 -3.554688 2.78125 -1.421875 0 -1.421875 Z M 12.734375 -16.484375 L 18.75 -30.710938 L 24.242188 -16.484375 Z M 12.734375 -16.484375 "/></g></g></g><g fill="#000000" fill-opacity="1"><g transform="translate(458.870353, 167.789457)"><g><path d="M 2.261719 0 L 22.175781 0 L 22.175781 -1.421875 C 19.394531 -1.679688 18.683594 -2.199219 18.683594 -4.007812 L 18.683594 -39.953125 C 18.683594 -41.765625 19.394531 -42.28125 22.175781 -42.539062 L 22.175781 -43.960938 L 2.261719 -43.960938 L 2.261719 -42.539062 C 5.042969 -42.28125 5.753906 -41.765625 5.753906 -39.953125 L 5.753906 -4.007812 C 5.753906 -2.199219 5.042969 -1.679688 2.261719 -1.421875 Z M 2.261719 0 "/></g></g></g><g fill="#000000" fill-opacity="1"><g transform="translate(483.308573, 167.789457)"><g><path d="M 11.054688 0 L 30.96875 0 L 30.96875 -1.421875 C 28.1875 -1.679688 27.476562 -2.199219 27.476562 -4.007812 L 27.476562 -41.699219 C 32.261719 -40.925781 36.269531 -37.238281 39.566406 -30.839844 L 40.988281 -30.839844 L 39.050781 -44.222656 C 38.984375 -44.609375 38.726562 -44.804688 38.339844 -44.738281 C 36.527344 -44.351562 32.066406 -43.960938 30.191406 -43.960938 L 11.832031 -43.960938 C 9.957031 -43.960938 5.496094 -44.351562 3.683594 -44.738281 C 3.296875 -44.804688 3.039062 -44.609375 2.972656 -44.222656 L 1.035156 -30.839844 L 2.457031 -30.839844 C 5.753906 -37.238281 9.761719 -40.925781 14.546875 -41.699219 L 14.546875 -4.007812 C 14.546875 -2.199219 13.835938 -1.679688 11.054688 -1.421875 Z M 11.054688 0 "/></g></g></g><g fill="#000000" fill-opacity="1"><g transform="translate(142.341337, 243.21563)"><g><path d="M 19.71875 1.035156 C 30.773438 1.035156 36.851562 -4.527344 36.851562 -11.832031 C 36.851562 -18.296875 32.84375 -21.398438 23.726562 -27.671875 C 18.359375 -31.355469 15.902344 -33.941406 15.902344 -38.015625 C 15.902344 -40.859375 17.972656 -42.929688 20.816406 -42.929688 C 25.40625 -42.929688 29.15625 -37.757812 31.421875 -30.578125 L 32.84375 -30.578125 L 34.070312 -42.347656 C 30.449219 -44.15625 25.925781 -44.933594 20.363281 -44.933594 C 9.308594 -44.933594 4.136719 -39.890625 4.136719 -32.324219 C 4.136719 -26.117188 8.015625 -21.464844 15.191406 -16.9375 C 22.628906 -12.21875 24.566406 -9.4375 24.566406 -5.6875 C 24.566406 -2.78125 22.371094 -1.035156 19.523438 -1.035156 C 13.964844 -1.035156 9.050781 -7.824219 6.789062 -15 L 5.367188 -15 L 4.136719 -3.234375 C 8.40625 -0.453125 14.160156 1.035156 19.71875 1.035156 Z M 19.71875 1.035156 "/></g></g></g><g fill="#000000" fill-opacity="1"><g transform="translate(182.554533, 243.21563)"><g><path d="M 11.054688 0 L 30.96875 0 L 30.96875 -1.421875 C 28.1875 -1.679688 27.476562 -2.199219 27.476562 -4.007812 L 27.476562 -41.699219 C 32.261719 -40.925781 36.269531 -37.238281 39.566406 -30.839844 L 40.988281 -30.839844 L 39.050781 -44.222656 C 38.984375 -44.609375 38.726562 -44.804688 38.339844 -44.738281 C 36.527344 -44.351562 32.066406 -43.960938 30.191406 -43.960938 L 11.832031 -43.960938 C 9.957031 -43.960938 5.496094 -44.351562 3.683594 -44.738281 C 3.296875 -44.804688 3.039062 -44.609375 2.972656 -44.222656 L 1.035156 -30.839844 L 2.457031 -30.839844 C 5.753906 -37.238281 9.761719 -40.925781 14.546875 -41.699219 L 14.546875 -4.007812 C 14.546875 -2.199219 13.835938 -1.679688 11.054688 -1.421875 Z M 11.054688 0 "/></g></g></g><g fill="#000000" fill-opacity="1"><g transform="translate(224.57795, 243.21563)"><g><path d="M 2.261719 0 L 22.175781 0 L 22.175781 -1.421875 C 19.394531 -1.679688 18.683594 -2.199219 18.683594 -4.007812 L 18.683594 -39.953125 C 18.683594 -41.765625 19.394531 -42.28125 22.175781 -42.539062 L 22.175781 -43.960938 L 2.261719 -43.960938 L 2.261719 -42.539062 C 5.042969 -42.28125 5.753906 -41.765625 5.753906 -39.953125 L 5.753906 -4.007812 C 5.753906 -2.199219 5.042969 -1.679688 2.261719 -1.421875 Z M 2.261719 0 "/></g></g></g><g fill="#000000" fill-opacity="1"><g transform="translate(249.01617, 243.21563)"><g><path d="M 2.261719 0 L 34.652344 0 L 36.59375 -13.125 L 35.171875 -13.125 C 32.324219 -7.757812 28.058594 -2.132812 21.269531 -2.132812 L 18.683594 -2.132812 L 18.683594 -39.953125 C 18.683594 -41.765625 19.394531 -42.28125 22.175781 -42.539062 L 22.175781 -43.960938 L 2.261719 -43.960938 L 2.261719 -42.539062 C 5.042969 -42.28125 5.753906 -41.765625 5.753906 -39.953125 L 5.753906 -4.007812 C 5.753906 -2.199219 4.914062 -1.746094 2.261719 -1.421875 Z M 2.261719 0 "/></g></g></g><g fill="#000000" fill-opacity="1"><g transform="translate(287.548459, 243.21563)"><g><path d="M 2.261719 0 L 34.652344 0 L 36.59375 -13.125 L 35.171875 -13.125 C 32.324219 -7.757812 28.058594 -2.132812 21.269531 -2.132812 L 18.683594 -2.132812 L 18.683594 -39.953125 C 18.683594 -41.765625 19.394531 -42.28125 22.175781 -42.539062 L 22.175781 -43.960938 L 2.261719 -43.960938 L 2.261719 -42.539062 C 5.042969 -42.28125 5.753906 -41.765625 5.753906 -39.953125 L 5.753906 -4.007812 C 5.753906 -2.199219 4.914062 -1.746094 2.261719 -1.421875 Z M 2.261719 0 "/></g></g></g><g fill="#000000" fill-opacity="1"><g transform="translate(326.080748, 243.21563)"><g><path d="M 35.171875 0.195312 L 40.34375 0.195312 L 40.34375 -35.300781 C 40.34375 -40.148438 41.636719 -42.539062 45.707031 -42.539062 L 45.707031 -43.960938 L 31.484375 -43.960938 L 31.484375 -42.539062 C 36.464844 -42.539062 37.496094 -39.371094 37.625 -33.488281 C 37.757812 -28.835938 37.820312 -23.855469 37.886719 -17.328125 L 18.878906 -43.960938 L 2.585938 -43.960938 L 2.585938 -42.539062 C 5.238281 -42.21875 6.078125 -41.765625 6.078125 -39.953125 L 6.078125 -8.664062 C 6.078125 -3.8125 4.785156 -1.421875 0.710938 -1.421875 L 0.710938 0 L 14.933594 0 L 14.933594 -1.421875 C 10.085938 -1.421875 8.921875 -4.589844 8.792969 -10.472656 L 8.40625 -36.851562 Z M 35.171875 0.195312 "/></g></g></g><g fill="#000000" fill-opacity="1"><g transform="translate(371.789304, 243.21563)"><g><path d="M 2.261719 0 L 37.691406 0 L 39.632812 -13.125 L 38.207031 -13.125 C 35.363281 -7.757812 31.097656 -2.132812 24.308594 -2.132812 L 18.683594 -2.132812 L 18.683594 -23.984375 L 19.589844 -23.984375 C 24.375 -23.984375 29.15625 -23.015625 29.15625 -18.878906 L 30.578125 -18.878906 L 30.578125 -31.160156 L 29.15625 -31.160156 C 29.15625 -27.410156 24.4375 -26.117188 19.589844 -26.117188 L 18.683594 -26.117188 L 18.683594 -41.828125 L 22.691406 -41.828125 C 29.480469 -41.828125 33.746094 -36.203125 36.59375 -30.839844 L 38.015625 -30.839844 L 36.074219 -43.960938 L 2.261719 -43.960938 L 2.261719 -42.539062 C 4.914062 -42.21875 5.753906 -41.765625 5.753906 -39.953125 L 5.753906 -4.007812 C 5.753906 -2.199219 4.914062 -1.746094 2.261719 -1.421875 Z M 2.261719 0 "/></g></g></g><g fill="#000000" fill-opacity="1"><g transform="translate(414.006732, 243.21563)"><g><path d="M 19.71875 1.035156 C 30.773438 1.035156 36.851562 -4.527344 36.851562 -11.832031 C 36.851562 -18.296875 32.84375 -21.398438 23.726562 -27.671875 C 18.359375 -31.355469 15.902344 -33.941406 15.902344 -38.015625 C 15.902344 -40.859375 17.972656 -42.929688 20.816406 -42.929688 C 25.40625 -42.929688 29.15625 -37.757812 31.421875 -30.578125 L 32.84375 -30.578125 L 34.070312 -42.347656 C 30.449219 -44.15625 25.925781 -44.933594 20.363281 -44.933594 C 9.308594 -44.933594 4.136719 -39.890625 4.136719 -32.324219 C 4.136719 -26.117188 8.015625 -21.464844 15.191406 -16.9375 C 22.628906 -12.21875 24.566406 -9.4375 24.566406 -5.6875 C 24.566406 -2.78125 22.371094 -1.035156 19.523438 -1.035156 C 13.964844 -1.035156 9.050781 -7.824219 6.789062 -15 L 5.367188 -15 L 4.136719 -3.234375 C 8.40625 -0.453125 14.160156 1.035156 19.71875 1.035156 Z M 19.71875 1.035156 "/></g></g></g><g fill="#000000" fill-opacity="1"><g transform="translate(454.219928, 243.21563)"><g><path d="M 19.71875 1.035156 C 30.773438 1.035156 36.851562 -4.527344 36.851562 -11.832031 C 36.851562 -18.296875 32.84375 -21.398438 23.726562 -27.671875 C 18.359375 -31.355469 15.902344 -33.941406 15.902344 -38.015625 C 15.902344 -40.859375 17.972656 -42.929688 20.816406 -42.929688 C 25.40625 -42.929688 29.15625 -37.757812 31.421875 -30.578125 L 32.84375 -30.578125 L 34.070312 -42.347656 C 30.449219 -44.15625 25.925781 -44.933594 20.363281 -44.933594 C 9.308594 -44.933594 4.136719 -39.890625 4.136719 -32.324219 C 4.136719 -26.117188 8.015625 -21.464844 15.191406 -16.9375 C 22.628906 -12.21875 24.566406 -9.4375 24.566406 -5.6875 C 24.566406 -2.78125 22.371094 -1.035156 19.523438 -1.035156 C 13.964844 -1.035156 9.050781 -7.824219 6.789062 -15 L 5.367188 -15 L 4.136719 -3.234375 C 8.40625 -0.453125 14.160156 1.035156 19.71875 1.035156 Z M 19.71875 1.035156 "/></g></g></g><g fill="#000000" fill-opacity="1"><g transform="translate(494.433125, 243.21563)"><g/></g></g><g fill="#000000" fill-opacity="1"><g transform="translate(508.591809, 243.21563)"><g><path d="M 2.261719 0 L 22.175781 0 L 22.175781 -1.421875 C 19.394531 -1.679688 18.683594 -2.199219 18.683594 -4.007812 L 18.683594 -39.953125 C 18.683594 -41.765625 19.394531 -42.28125 22.175781 -42.539062 L 22.175781 -43.960938 L 2.261719 -43.960938 L 2.261719 -42.539062 C 5.042969 -42.28125 5.753906 -41.765625 5.753906 -39.953125 L 5.753906 -4.007812 C 5.753906 -2.199219 5.042969 -1.679688 2.261719 -1.421875 Z M 2.261719 0 "/></g></g></g><g fill="#000000" fill-opacity="1"><g transform="translate(533.030029, 243.21563)"><g><path d="M 19.71875 1.035156 C 30.773438 1.035156 36.851562 -4.527344 36.851562 -11.832031 C 36.851562 -18.296875 32.84375 -21.398438 23.726562 -27.671875 C 18.359375 -31.355469 15.902344 -33.941406 15.902344 -38.015625 C 15.902344 -40.859375 17.972656 -42.929688 20.816406 -42.929688 C 25.40625 -42.929688 29.15625 -37.757812 31.421875 -30.578125 L 32.84375 -30.578125 L 34.070312 -42.347656 C 30.449219 -44.15625 25.925781 -44.933594 20.363281 -44.933594 C 9.308594 -44.933594 4.136719 -39.890625 4.136719 -32.324219 C 4.136719 -26.117188 8.015625 -21.464844 15.191406 -16.9375 C 22.628906 -12.21875 24.566406 -9.4375 24.566406 -5.6875 C 24.566406 -2.78125 22.371094 -1.035156 19.523438 -1.035156 C 13.964844 -1.035156 9.050781 -7.824219 6.789062 -15 L 5.367188 -15 L 4.136719 -3.234375 C 8.40625 -0.453125 14.160156 1.035156 19.71875 1.035156 Z M 19.71875 1.035156 "/></g></g></g><g fill="#000000" fill-opacity="1"><g transform="translate(573.263887, 243.21563)"><g/></g></g><g fill="#000000" fill-opacity="1"><g transform="translate(3.021787, 318.641803)"><g><path d="M 0 0 L 15 0 L 15 -1.421875 C 8.535156 -1.421875 7.5625 -4.203125 10.992188 -12.347656 L 11.832031 -14.289062 L 25.085938 -14.289062 L 27.089844 -9.050781 C 29.09375 -3.878906 29.351562 -1.421875 26.054688 -1.421875 L 26.054688 0 L 45.644531 0 L 45.644531 -1.421875 C 43.121094 -1.421875 42.28125 -2.199219 41.441406 -4.203125 L 24.824219 -44.933594 L 21.980469 -44.933594 L 6.789062 -8.082031 C 4.914062 -3.554688 2.78125 -1.421875 0 -1.421875 Z M 12.734375 -16.484375 L 18.75 -30.710938 L 24.242188 -16.484375 Z M 12.734375 -16.484375 "/></g></g></g><g fill="#000000" fill-opacity="1"><g transform="translate(49.31221, 318.641803)"><g/></g></g><g fill="#000000" fill-opacity="1"><g transform="translate(63.470894, 318.641803)"><g><path d="M 2.261719 0 L 22.175781 0 L 22.175781 -1.421875 C 19.394531 -1.679688 18.683594 -2.199219 18.683594 -4.007812 L 18.75 -21.398438 L 19.652344 -21.398438 C 25.085938 -21.398438 27.089844 -19.976562 29.804688 -14.351562 L 31.226562 -14.351562 L 31.226562 -30.515625 L 29.804688 -30.515625 C 27.152344 -25.34375 25.148438 -23.53125 19.652344 -23.53125 L 18.75 -23.53125 L 18.75 -41.828125 L 22.691406 -41.828125 C 29.480469 -41.828125 33.746094 -36.203125 36.59375 -30.839844 L 38.015625 -30.839844 L 36.074219 -43.960938 L 2.261719 -43.960938 L 2.261719 -42.539062 C 4.914062 -42.21875 5.753906 -41.765625 5.753906 -39.953125 L 5.753906 -4.007812 C 5.753906 -2.199219 5.042969 -1.679688 2.261719 -1.421875 Z M 2.261719 0 "/></g></g></g><g fill="#000000" fill-opacity="1"><g transform="translate(101.486013, 318.641803)"><g><path d="M 24.761719 0.96875 C 38.015625 0.96875 46.871094 -8.210938 46.871094 -21.980469 C 46.871094 -35.753906 38.015625 -44.933594 24.761719 -44.933594 C 11.507812 -44.933594 2.652344 -35.753906 2.652344 -21.980469 C 2.652344 -8.210938 11.507812 0.96875 24.761719 0.96875 Z M 24.761719 -1.035156 C 19.71875 -1.035156 16.355469 -9.4375 16.355469 -21.980469 C 16.355469 -34.523438 19.71875 -42.929688 24.761719 -42.929688 C 29.804688 -42.929688 33.164062 -34.523438 33.164062 -21.980469 C 33.164062 -9.4375 29.804688 -1.035156 24.761719 -1.035156 Z M 24.761719 -1.035156 "/></g></g></g><g fill="#000000" fill-opacity="1"><g transform="translate(151.202949, 318.641803)"><g><path d="M 2.261719 0 L 22.175781 0 L 22.175781 -1.421875 C 19.394531 -1.679688 18.683594 -2.199219 18.683594 -4.007812 L 18.683594 -19.203125 L 21.65625 -19.523438 L 28.835938 -4.007812 C 29.675781 -2.199219 28.835938 -1.679688 26.054688 -1.421875 L 26.054688 0 L 45.449219 0 L 45.449219 -1.421875 C 43.898438 -1.550781 42.734375 -2.519531 41.957031 -4.007812 L 32.261719 -22.691406 C 37.496094 -24.503906 40.925781 -27.671875 40.925781 -33.164062 C 40.925781 -41.117188 34.070312 -43.960938 24.242188 -43.960938 L 2.261719 -43.960938 L 2.261719 -42.539062 C 4.914062 -42.21875 5.753906 -41.765625 5.753906 -39.953125 L 5.753906 -4.007812 C 5.753906 -2.199219 5.042969 -1.679688 2.261719 -1.421875 Z M 18.683594 -21.398438 L 18.683594 -41.828125 L 20.429688 -41.828125 C 25.148438 -41.828125 28.511719 -39.566406 28.445312 -32.003906 C 28.382812 -25.667969 24.890625 -22.5625 20.816406 -21.789062 Z M 18.683594 -21.398438 "/></g></g></g><g fill="#000000" fill-opacity="1"><g transform="translate(197.040817, 318.641803)"><g><path d="M 22.5625 0.195312 L 26.699219 0.195312 L 40.664062 -38.402344 L 40.664062 -4.007812 C 40.664062 -2.199219 39.953125 -1.679688 37.175781 -1.421875 L 37.175781 0 L 57.085938 0 L 57.085938 -1.421875 C 54.308594 -1.679688 53.59375 -2.199219 53.59375 -4.007812 L 53.59375 -39.953125 C 53.59375 -41.765625 54.4375 -42.21875 57.085938 -42.539062 L 57.085938 -43.960938 L 40.148438 -43.960938 L 30.191406 -16.292969 L 20.234375 -43.960938 L 2.585938 -43.960938 L 2.585938 -42.539062 C 5.238281 -42.21875 6.078125 -41.765625 6.078125 -39.953125 L 6.078125 -8.664062 C 6.078125 -3.8125 4.785156 -1.421875 0.710938 -1.421875 L 0.710938 0 L 14.933594 0 L 14.933594 -1.421875 C 9.957031 -1.421875 8.921875 -4.589844 8.792969 -10.472656 C 8.664062 -18.8125 8.46875 -28.769531 8.339844 -38.789062 Z M 22.5625 0.195312 "/></g></g></g><g fill="#000000" fill-opacity="1"><g transform="translate(256.390886, 318.641803)"><g/></g></g><g fill="#000000" fill-opacity="1"><g transform="translate(270.54957, 318.641803)"><g><path d="M 24.761719 0.96875 C 38.015625 0.96875 46.871094 -8.210938 46.871094 -21.980469 C 46.871094 -35.753906 38.015625 -44.933594 24.761719 -44.933594 C 11.507812 -44.933594 2.652344 -35.753906 2.652344 -21.980469 C 2.652344 -8.210938 11.507812 0.96875 24.761719 0.96875 Z M 24.761719 -1.035156 C 19.71875 -1.035156 16.355469 -9.4375 16.355469 -21.980469 C 16.355469 -34.523438 19.71875 -42.929688 24.761719 -42.929688 C 29.804688 -42.929688 33.164062 -34.523438 33.164062 -21.980469 C 33.164062 -9.4375 29.804688 -1.035156 24.761719 -1.035156 Z M 24.761719 -1.035156 "/></g></g></g><g fill="#000000" fill-opacity="1"><g transform="translate(320.266506, 318.641803)"><g><path d="M 2.261719 0 L 22.175781 0 L 22.175781 -1.421875 C 19.394531 -1.679688 18.683594 -2.199219 18.683594 -4.007812 L 18.75 -21.398438 L 19.652344 -21.398438 C 25.085938 -21.398438 27.089844 -19.976562 29.804688 -14.351562 L 31.226562 -14.351562 L 31.226562 -30.515625 L 29.804688 -30.515625 C 27.152344 -25.34375 25.148438 -23.53125 19.652344 -23.53125 L 18.75 -23.53125 L 18.75 -41.828125 L 22.691406 -41.828125 C 29.480469 -41.828125 33.746094 -36.203125 36.59375 -30.839844 L 38.015625 -30.839844 L 36.074219 -43.960938 L 2.261719 -43.960938 L 2.261719 -42.539062 C 4.914062 -42.21875 5.753906 -41.765625 5.753906 -39.953125 L 5.753906 -4.007812 C 5.753906 -2.199219 5.042969 -1.679688 2.261719 -1.421875 Z M 2.261719 0 "/></g></g></g><g fill="#000000" fill-opacity="1"><g transform="translate(359.509977, 318.641803)"><g/></g></g><g fill="#000000" fill-opacity="1"><g transform="translate(373.668661, 318.641803)"><g><path d="M 19.71875 1.035156 C 30.773438 1.035156 36.851562 -4.527344 36.851562 -11.832031 C 36.851562 -18.296875 32.84375 -21.398438 23.726562 -27.671875 C 18.359375 -31.355469 15.902344 -33.941406 15.902344 -38.015625 C 15.902344 -40.859375 17.972656 -42.929688 20.816406 -42.929688 C 25.40625 -42.929688 29.15625 -37.757812 31.421875 -30.578125 L 32.84375 -30.578125 L 34.070312 -42.347656 C 30.449219 -44.15625 25.925781 -44.933594 20.363281 -44.933594 C 9.308594 -44.933594 4.136719 -39.890625 4.136719 -32.324219 C 4.136719 -26.117188 8.015625 -21.464844 15.191406 -16.9375 C 22.628906 -12.21875 24.566406 -9.4375 24.566406 -5.6875 C 24.566406 -2.78125 22.371094 -1.035156 19.523438 -1.035156 C 13.964844 -1.035156 9.050781 -7.824219 6.789062 -15 L 5.367188 -15 L 4.136719 -3.234375 C 8.40625 -0.453125 14.160156 1.035156 19.71875 1.035156 Z M 19.71875 1.035156 "/></g></g></g><g fill="#000000" fill-opacity="1"><g transform="translate(413.881858, 318.641803)"><g><path d="M 11.054688 0 L 30.96875 0 L 30.96875 -1.421875 C 28.1875 -1.679688 27.476562 -2.199219 27.476562 -4.007812 L 27.476562 -41.699219 C 32.261719 -40.925781 36.269531 -37.238281 39.566406 -30.839844 L 40.988281 -30.839844 L 39.050781 -44.222656 C 38.984375 -44.609375 38.726562 -44.804688 38.339844 -44.738281 C 36.527344 -44.351562 32.066406 -43.960938 30.191406 -43.960938 L 11.832031 -43.960938 C 9.957031 -43.960938 5.496094 -44.351562 3.683594 -44.738281 C 3.296875 -44.804688 3.039062 -44.609375 2.972656 -44.222656 L 1.035156 -30.839844 L 2.457031 -30.839844 C 5.753906 -37.238281 9.761719 -40.925781 14.546875 -41.699219 L 14.546875 -4.007812 C 14.546875 -2.199219 13.835938 -1.679688 11.054688 -1.421875 Z M 11.054688 0 "/></g></g></g><g fill="#000000" fill-opacity="1"><g transform="translate(455.905274, 318.641803)"><g><path d="M 2.261719 0 L 22.175781 0 L 22.175781 -1.421875 C 19.394531 -1.679688 18.683594 -2.199219 18.683594 -4.007812 L 18.683594 -19.203125 L 21.65625 -19.523438 L 28.835938 -4.007812 C 29.675781 -2.199219 28.835938 -1.679688 26.054688 -1.421875 L 26.054688 0 L 45.449219 0 L 45.449219 -1.421875 C 43.898438 -1.550781 42.734375 -2.519531 41.957031 -4.007812 L 32.261719 -22.691406 C 37.496094 -24.503906 40.925781 -27.671875 40.925781 -33.164062 C 40.925781 -41.117188 34.070312 -43.960938 24.242188 -43.960938 L 2.261719 -43.960938 L 2.261719 -42.539062 C 4.914062 -42.21875 5.753906 -41.765625 5.753906 -39.953125 L 5.753906 -4.007812 C 5.753906 -2.199219 5.042969 -1.679688 2.261719 -1.421875 Z M 18.683594 -21.398438 L 18.683594 -41.828125 L 20.429688 -41.828125 C 25.148438 -41.828125 28.511719 -39.566406 28.445312 -32.003906 C 28.382812 -25.667969 24.890625 -22.5625 20.816406 -21.789062 Z M 18.683594 -21.398438 "/></g></g></g><g fill="#000000" fill-opacity="1"><g transform="translate(501.743142, 318.641803)"><g><path d="M 2.261719 0 L 37.691406 0 L 39.632812 -13.125 L 38.207031 -13.125 C 35.363281 -7.757812 31.097656 -2.132812 24.308594 -2.132812 L 18.683594 -2.132812 L 18.683594 -23.984375 L 19.589844 -23.984375 C 24.375 -23.984375 29.15625 -23.015625 29.15625 -18.878906 L 30.578125 -18.878906 L 30.578125 -31.160156 L 29.15625 -31.160156 C 29.15625 -27.410156 24.4375 -26.117188 19.589844 -26.117188 L 18.683594 -26.117188 L 18.683594 -41.828125 L 22.691406 -41.828125 C 29.480469 -41.828125 33.746094 -36.203125 36.59375 -30.839844 L 38.015625 -30.839844 L 36.074219 -43.960938 L 2.261719 -43.960938 L 2.261719 -42.539062 C 4.914062 -42.21875 5.753906 -41.765625 5.753906 -39.953125 L 5.753906 -4.007812 C 5.753906 -2.199219 4.914062 -1.746094 2.261719 -1.421875 Z M 2.261719 0 "/></g></g></g><g fill="#000000" fill-opacity="1"><g transform="translate(543.96057, 318.641803)"><g><path d="M 35.171875 0.195312 L 40.34375 0.195312 L 40.34375 -35.300781 C 40.34375 -40.148438 41.636719 -42.539062 45.707031 -42.539062 L 45.707031 -43.960938 L 31.484375 -43.960938 L 31.484375 -42.539062 C 36.464844 -42.539062 37.496094 -39.371094 37.625 -33.488281 C 37.757812 -28.835938 37.820312 -23.855469 37.886719 -17.328125 L 18.878906 -43.960938 L 2.585938 -43.960938 L 2.585938 -42.539062 C 5.238281 -42.21875 6.078125 -41.765625 6.078125 -39.953125 L 6.078125 -8.664062 C 6.078125 -3.8125 4.785156 -1.421875 0.710938 -1.421875 L 0.710938 0 L 14.933594 0 L 14.933594 -1.421875 C 10.085938 -1.421875 8.921875 -4.589844 8.792969 -10.472656 L 8.40625 -36.851562 Z M 35.171875 0.195312 "/></g></g></g><g fill="#000000" fill-opacity="1"><g transform="translate(589.022641, 318.641803)"><g><path d="M 24.179688 0.96875 C 31.484375 0.96875 38.078125 -2.003906 42.28125 -8.210938 L 42.28125 -16.875 C 42.28125 -18.683594 42.992188 -19.203125 45.773438 -19.460938 L 45.773438 -20.882812 L 27.734375 -20.882812 L 27.734375 -19.460938 C 30.578125 -19.136719 31.226562 -18.683594 31.226562 -16.875 L 31.226562 -11.765625 C 31.226562 -4.589844 28.898438 -1.164062 25.085938 -1.164062 C 20.042969 -1.164062 16.355469 -9.050781 16.355469 -23.082031 C 16.355469 -35.429688 20.105469 -42.929688 26.183594 -42.929688 C 30.96875 -42.929688 34.71875 -37.625 36.980469 -29.15625 L 38.402344 -29.15625 L 39.632812 -42.347656 C 36.011719 -44.09375 31.484375 -44.933594 26.183594 -44.933594 C 11.441406 -44.933594 2.652344 -36.269531 2.652344 -21.980469 C 2.652344 -8.210938 11.574219 0.96875 24.179688 0.96875 Z M 24.179688 0.96875 "/></g></g></g><g fill="#000000" fill-opacity="1"><g transform="translate(634.795894, 318.641803)"><g><path d="M 11.054688 0 L 30.96875 0 L 30.96875 -1.421875 C 28.1875 -1.679688 27.476562 -2.199219 27.476562 -4.007812 L 27.476562 -41.699219 C 32.261719 -40.925781 36.269531 -37.238281 39.566406 -30.839844 L 40.988281 -30.839844 L 39.050781 -44.222656 C 38.984375 -44.609375 38.726562 -44.804688 38.339844 -44.738281 C 36.527344 -44.351562 32.066406 -43.960938 30.191406 -43.960938 L 11.832031 -43.960938 C 9.957031 -43.960938 5.496094 -44.351562 3.683594 -44.738281 C 3.296875 -44.804688 3.039062 -44.609375 2.972656 -44.222656 L 1.035156 -30.839844 L 2.457031 -30.839844 C 5.753906 -37.238281 9.761719 -40.925781 14.546875 -41.699219 L 14.546875 -4.007812 C 14.546875 -2.199219 13.835938 -1.679688 11.054688 -1.421875 Z M 11.054688 0 "/></g></g></g><g fill="#000000" fill-opacity="1"><g transform="translate(676.81931, 318.641803)"><g><path d="M 2.132812 0 L 22.046875 0 L 22.046875 -1.421875 C 19.265625 -1.679688 18.554688 -2.199219 18.554688 -4.007812 L 18.554688 -20.945312 L 31.097656 -20.945312 L 31.097656 -4.007812 C 31.097656 -2.199219 30.386719 -1.679688 27.605469 -1.421875 L 27.605469 0 L 47.519531 0 L 47.519531 -1.421875 C 44.738281 -1.679688 44.027344 -2.199219 44.027344 -4.007812 L 44.027344 -39.953125 C 44.027344 -41.765625 44.738281 -42.28125 47.519531 -42.539062 L 47.519531 -43.960938 L 27.605469 -43.960938 L 27.605469 -42.539062 C 30.386719 -42.28125 31.097656 -41.765625 31.097656 -39.953125 L 31.097656 -23.144531 L 18.554688 -23.144531 L 18.554688 -39.953125 C 18.554688 -41.765625 19.265625 -42.28125 22.046875 -42.539062 L 22.046875 -43.960938 L 2.132812 -43.960938 L 2.132812 -42.539062 C 4.914062 -42.28125 5.625 -41.765625 5.625 -39.953125 L 5.625 -4.007812 C 5.625 -2.199219 4.914062 -1.679688 2.132812 -1.421875 Z M 2.132812 0 "/></g></g></g></g></g></g><g fill="#000000" fill-opacity="1"><g transform="translate(159.818508, 106.153221)"><g><path d="M 3.421875 0 L 35.359375 0 L 35.359375 -2.28125 C 30.898438 -2.695312 29.757812 -3.527344 29.757812 -6.429688 L 29.757812 -26.234375 L 37.949219 -27.167969 C 54.023438 -29.035156 64.289062 -35.566406 64.289062 -50.289062 C 64.289062 -63.457031 54.75 -70.507812 38.988281 -70.507812 L 3.421875 -70.507812 L 3.421875 -68.226562 C 7.671875 -67.710938 9.019531 -66.984375 9.019531 -64.082031 L 9.019531 -6.429688 C 9.019531 -3.527344 7.878906 -2.695312 3.421875 -2.28125 Z M 29.757812 -29.65625 L 29.757812 -67.085938 L 32.558594 -67.085938 C 40.4375 -67.085938 44.378906 -61.175781 44.378906 -49.046875 C 44.378906 -37.433594 39.921875 -31.105469 33.285156 -30.175781 Z M 29.757812 -29.65625 "/></g></g></g><g fill="#000000" fill-opacity="1"><g transform="translate(216.942657, 106.153221)"><g><path d="M 0 0 L 24.054688 0 L 24.054688 -2.28125 C 13.6875 -2.28125 12.132812 -6.738281 17.628906 -19.804688 L 18.976562 -22.914062 L 40.230469 -22.914062 L 43.445312 -14.515625 C 46.660156 -6.222656 47.074219 -2.28125 41.789062 -2.28125 L 41.789062 0 L 73.207031 0 L 73.207031 -2.28125 C 69.160156 -2.28125 67.8125 -3.527344 66.464844 -6.738281 L 39.816406 -72.066406 L 35.253906 -72.066406 L 10.886719 -12.960938 C 7.878906 -5.703125 4.457031 -2.28125 0 -2.28125 Z M 20.425781 -26.441406 L 30.070312 -49.253906 L 38.882812 -26.441406 Z M 20.425781 -26.441406 "/></g></g></g><g fill="#000000" fill-opacity="1"><g transform="translate(287.234607, 106.153221)"><g><path d="M 36.085938 1.554688 C 56.199219 1.554688 63.25 -8.710938 63.25 -29.34375 L 63.25 -56.613281 C 63.25 -64.390625 65.015625 -68.226562 71.859375 -68.226562 L 71.859375 -70.507812 L 49.046875 -70.507812 L 49.046875 -68.226562 C 55.992188 -68.226562 58.6875 -63.148438 58.894531 -53.710938 C 59.105469 -45.105469 59.414062 -39.089844 59.207031 -28.515625 C 58.894531 -13.6875 55.265625 -4.667969 43.757812 -4.667969 C 30.796875 -4.667969 28.617188 -12.234375 28.617188 -27.167969 L 28.617188 -64.082031 C 28.617188 -66.984375 29.757812 -67.8125 34.21875 -68.226562 L 34.21875 -70.507812 L 2.28125 -70.507812 L 2.28125 -68.226562 C 6.738281 -67.8125 7.878906 -66.984375 7.878906 -64.082031 L 7.878906 -27.0625 C 7.878906 -7.984375 17.210938 1.554688 36.085938 1.554688 Z M 36.085938 1.554688 "/></g></g></g><g fill="#000000" fill-opacity="1"><g transform="translate(358.563791, 106.153221)"><g><path d="M 31.625 1.660156 C 49.355469 1.660156 59.105469 -7.257812 59.105469 -18.976562 C 59.105469 -29.34375 52.675781 -34.320312 38.054688 -44.378906 C 29.449219 -50.289062 25.507812 -54.4375 25.507812 -60.96875 C 25.507812 -65.53125 28.824219 -68.851562 33.386719 -68.851562 C 40.75 -68.851562 46.765625 -60.554688 50.394531 -49.046875 L 52.675781 -49.046875 L 54.644531 -67.917969 C 48.839844 -70.820312 41.578125 -72.066406 32.664062 -72.066406 C 14.929688 -72.066406 6.636719 -63.976562 6.636719 -51.84375 C 6.636719 -41.890625 12.859375 -34.425781 24.367188 -27.167969 C 36.292969 -19.597656 39.402344 -15.140625 39.402344 -9.125 C 39.402344 -4.457031 35.878906 -1.660156 31.316406 -1.660156 C 22.398438 -1.660156 14.515625 -12.546875 10.886719 -24.054688 L 8.605469 -24.054688 L 6.636719 -5.183594 C 13.480469 -0.726562 22.707031 1.660156 31.625 1.660156 Z M 31.625 1.660156 "/></g></g></g><g fill="#000000" fill-opacity="1"><g transform="translate(423.05046, 106.153221)"><g><path d="M 3.628906 0 L 60.453125 0 L 63.5625 -21.050781 L 61.28125 -21.050781 C 56.71875 -12.441406 49.875 -3.421875 38.988281 -3.421875 L 29.964844 -3.421875 L 29.964844 -38.46875 L 31.417969 -38.46875 C 39.089844 -38.46875 46.765625 -36.914062 46.765625 -30.277344 L 49.046875 -30.277344 L 49.046875 -49.980469 L 46.765625 -49.980469 C 46.765625 -43.964844 39.195312 -41.890625 31.417969 -41.890625 L 29.964844 -41.890625 L 29.964844 -67.085938 L 36.394531 -67.085938 C 47.28125 -67.085938 54.125 -58.066406 58.6875 -49.460938 L 60.96875 -49.460938 L 57.859375 -70.507812 L 3.628906 -70.507812 L 3.628906 -68.226562 C 7.878906 -67.710938 9.226562 -66.984375 9.226562 -64.082031 L 9.226562 -6.429688 C 9.226562 -3.527344 7.878906 -2.800781 3.628906 -2.28125 Z M 3.628906 0 "/></g></g></g><g fill="#000000" fill-opacity="1"><g transform="translate(490.751065, 106.153221)"><g/></g></g><g fill="#000000" fill-opacity="1"><g transform="translate(513.456208, 106.153221)"><g><path d="M 0 0 L 24.054688 0 L 24.054688 -2.28125 C 13.6875 -2.28125 12.132812 -6.738281 17.628906 -19.804688 L 18.976562 -22.914062 L 40.230469 -22.914062 L 43.445312 -14.515625 C 46.660156 -6.222656 47.074219 -2.28125 41.789062 -2.28125 L 41.789062 0 L 73.207031 0 L 73.207031 -2.28125 C 69.160156 -2.28125 67.8125 -3.527344 66.464844 -6.738281 L 39.816406 -72.066406 L 35.253906 -72.066406 L 10.886719 -12.960938 C 7.878906 -5.703125 4.457031 -2.28125 0 -2.28125 Z M 20.425781 -26.441406 L 30.070312 -49.253906 L 38.882812 -26.441406 Z M 20.425781 -26.441406 "/></g></g></g><g fill="#000000" fill-opacity="1"><g transform="translate(587.688435, 106.153221)"><g><path d="M 56.40625 0.3125 L 64.703125 0.3125 L 64.703125 -56.613281 C 64.703125 -64.390625 66.777344 -68.226562 73.308594 -68.226562 L 73.308594 -70.507812 L 50.496094 -70.507812 L 50.496094 -68.226562 C 58.480469 -68.226562 60.140625 -63.148438 60.347656 -53.710938 C 60.554688 -46.246094 60.660156 -38.261719 60.761719 -27.789062 L 30.277344 -70.507812 L 4.148438 -70.507812 L 4.148438 -68.226562 C 8.398438 -67.710938 9.746094 -66.984375 9.746094 -64.082031 L 9.746094 -13.894531 C 9.746094 -6.117188 7.671875 -2.28125 1.140625 -2.28125 L 1.140625 0 L 23.953125 0 L 23.953125 -2.28125 C 16.175781 -2.28125 14.308594 -7.363281 14.101562 -16.796875 L 13.480469 -59.105469 Z M 56.40625 0.3125 "/></g></g></g><g fill="#000000" fill-opacity="1"><g transform="translate(660.987625, 106.153221)"><g><path d="M 3.628906 0 L 34.738281 0 C 58.378906 0 74.96875 -12.859375 74.96875 -35.253906 C 74.96875 -57.859375 57.859375 -70.507812 34.738281 -70.507812 L 3.628906 -70.507812 L 3.628906 -68.226562 C 7.878906 -67.710938 9.226562 -66.984375 9.226562 -64.082031 L 9.226562 -6.429688 C 9.226562 -3.527344 7.878906 -2.800781 3.628906 -2.28125 Z M 30.070312 -3.316406 L 30.070312 -67.191406 L 35.152344 -67.191406 C 47.074219 -67.191406 52.984375 -56.511719 52.984375 -35.253906 C 52.984375 -14 47.074219 -3.316406 35.152344 -3.316406 Z M 30.070312 -3.316406 "/></g></g></g><g fill="#000000" fill-opacity="1"><g transform="translate(740.196293, 106.153221)"><g/></g></g><g fill="#000000" fill-opacity="1"><g transform="translate(762.901435, 106.153221)"><g><path d="M 3.628906 0 L 42.304688 0 C 59 0 68.332031 -6.636719 68.332031 -20.21875 C 68.332031 -32.558594 60.660156 -38.675781 47.492188 -40.542969 C 57.546875 -43.03125 62.941406 -48.113281 62.941406 -56.304688 C 62.941406 -64.910156 54.644531 -70.507812 39.816406 -70.507812 L 3.628906 -70.507812 L 3.628906 -68.226562 C 7.878906 -67.710938 9.226562 -66.984375 9.226562 -64.082031 L 9.226562 -6.429688 C 9.226562 -3.527344 7.878906 -2.800781 3.628906 -2.28125 Z M 29.964844 -40.128906 L 29.964844 -67.085938 L 34.113281 -67.085938 C 40.855469 -67.085938 43.964844 -62.214844 43.964844 -54.644531 C 43.964844 -46.660156 40.542969 -41.269531 33.804688 -40.542969 Z M 29.964844 -3.421875 L 29.964844 -37.015625 L 33.179688 -37.433594 C 42.71875 -38.675781 47.699219 -33.699219 47.699219 -20.53125 C 47.699219 -8.085938 43.136719 -3.421875 33.492188 -3.421875 Z M 29.964844 -3.421875 "/></g></g></g><g fill="#000000" fill-opacity="1"><g transform="translate(833.815887, 106.153221)"><g><path d="M 3.628906 0 L 35.566406 0 L 35.566406 -2.28125 C 31.105469 -2.695312 29.964844 -3.527344 29.964844 -6.429688 L 29.964844 -30.796875 L 34.738281 -31.316406 L 46.246094 -6.429688 C 47.59375 -3.527344 46.246094 -2.695312 41.789062 -2.28125 L 41.789062 0 L 72.894531 0 L 72.894531 -2.28125 C 70.40625 -2.488281 68.539062 -4.042969 67.296875 -6.429688 L 51.742188 -36.394531 C 60.140625 -39.296875 65.636719 -44.378906 65.636719 -53.191406 C 65.636719 -65.945312 54.644531 -70.507812 38.882812 -70.507812 L 3.628906 -70.507812 L 3.628906 -68.226562 C 7.878906 -67.710938 9.226562 -66.984375 9.226562 -64.082031 L 9.226562 -6.429688 C 9.226562 -3.527344 8.085938 -2.695312 3.628906 -2.28125 Z M 29.964844 -34.320312 L 29.964844 -67.085938 L 32.765625 -67.085938 C 40.335938 -67.085938 45.726562 -63.457031 45.625 -51.328125 C 45.519531 -41.164062 39.921875 -36.1875 33.386719 -34.945312 Z M 29.964844 -34.320312 "/></g></g></g><g fill="#000000" fill-opacity="1"><g transform="translate(907.322398, 106.153221)"><g><path d="M 3.628906 0 L 60.453125 0 L 63.5625 -21.050781 L 61.28125 -21.050781 C 56.71875 -12.441406 49.875 -3.421875 38.988281 -3.421875 L 29.964844 -3.421875 L 29.964844 -38.46875 L 31.417969 -38.46875 C 39.089844 -38.46875 46.765625 -36.914062 46.765625 -30.277344 L 49.046875 -30.277344 L 49.046875 -49.980469 L 46.765625 -49.980469 C 46.765625 -43.964844 39.195312 -41.890625 31.417969 -41.890625 L 29.964844 -41.890625 L 29.964844 -67.085938 L 36.394531 -67.085938 C 47.28125 -67.085938 54.125 -58.066406 58.6875 -49.460938 L 60.96875 -49.460938 L 57.859375 -70.507812 L 3.628906 -70.507812 L 3.628906 -68.226562 C 7.878906 -67.710938 9.226562 -66.984375 9.226562 -64.082031 L 9.226562 -6.429688 C 9.226562 -3.527344 7.878906 -2.800781 3.628906 -2.28125 Z M 3.628906 0 "/></g></g></g><g fill="#000000" fill-opacity="1"><g transform="translate(974.60827, 106.153221)"><g><path d="M 0 0 L 24.054688 0 L 24.054688 -2.28125 C 13.6875 -2.28125 12.132812 -6.738281 17.628906 -19.804688 L 18.976562 -22.914062 L 40.230469 -22.914062 L 43.445312 -14.515625 C 46.660156 -6.222656 47.074219 -2.28125 41.789062 -2.28125 L 41.789062 0 L 73.207031 0 L 73.207031 -2.28125 C 69.160156 -2.28125 67.8125 -3.527344 66.464844 -6.738281 L 39.816406 -72.066406 L 35.253906 -72.066406 L 10.886719 -12.960938 C 7.878906 -5.703125 4.457031 -2.28125 0 -2.28125 Z M 20.425781 -26.441406 L 30.070312 -49.253906 L 38.882812 -26.441406 Z M 20.425781 -26.441406 "/></g></g></g><g fill="#000000" fill-opacity="1"><g transform="translate(1042.100569, 106.153221)"><g><path d="M 17.730469 0 L 49.667969 0 L 49.667969 -2.28125 C 45.210938 -2.695312 44.070312 -3.527344 44.070312 -6.429688 L 44.070312 -66.878906 C 51.742188 -65.636719 58.171875 -59.726562 63.457031 -49.460938 L 65.738281 -49.460938 L 62.628906 -70.925781 C 62.527344 -71.546875 62.109375 -71.859375 61.488281 -71.753906 C 58.585938 -71.132812 51.429688 -70.507812 48.421875 -70.507812 L 18.976562 -70.507812 C 15.96875 -70.507812 8.8125 -71.132812 5.910156 -71.753906 C 5.289062 -71.859375 4.875 -71.546875 4.769531 -70.925781 L 1.660156 -49.460938 L 3.941406 -49.460938 C 9.226562 -59.726562 15.65625 -65.636719 23.332031 -66.878906 L 23.332031 -6.429688 C 23.332031 -3.527344 22.191406 -2.695312 17.730469 -2.28125 Z M 17.730469 0 "/></g></g></g><g fill="#000000" fill-opacity="1"><g transform="translate(1109.490191, 106.153221)"><g><path d="M 3.421875 0 L 35.359375 0 L 35.359375 -2.28125 C 30.898438 -2.695312 29.757812 -3.527344 29.757812 -6.429688 L 29.757812 -33.597656 L 49.875 -33.597656 L 49.875 -6.429688 C 49.875 -3.527344 48.734375 -2.695312 44.277344 -2.28125 L 44.277344 0 L 76.210938 0 L 76.210938 -2.28125 C 71.753906 -2.695312 70.613281 -3.527344 70.613281 -6.429688 L 70.613281 -64.082031 C 70.613281 -66.984375 71.753906 -67.8125 76.210938 -68.226562 L 76.210938 -70.507812 L 44.277344 -70.507812 L 44.277344 -68.226562 C 48.734375 -67.8125 49.875 -66.984375 49.875 -64.082031 L 49.875 -37.121094 L 29.757812 -37.121094 L 29.757812 -64.082031 C 29.757812 -66.984375 30.898438 -67.8125 35.359375 -68.226562 L 35.359375 -70.507812 L 3.421875 -70.507812 L 3.421875 -68.226562 C 7.878906 -67.8125 9.019531 -66.984375 9.019531 -64.082031 L 9.019531 -6.429688 C 9.019531 -3.527344 7.878906 -2.695312 3.421875 -2.28125 Z M 3.421875 0 "/></g></g></g><g fill="#000000" fill-opacity="1"><g transform="translate(1189.528325, 106.153221)"><g><path d="M 3.628906 0 L 60.453125 0 L 63.5625 -21.050781 L 61.28125 -21.050781 C 56.71875 -12.441406 49.875 -3.421875 38.988281 -3.421875 L 29.964844 -3.421875 L 29.964844 -38.46875 L 31.417969 -38.46875 C 39.089844 -38.46875 46.765625 -36.914062 46.765625 -30.277344 L 49.046875 -30.277344 L 49.046875 -49.980469 L 46.765625 -49.980469 C 46.765625 -43.964844 39.195312 -41.890625 31.417969 -41.890625 L 29.964844 -41.890625 L 29.964844 -67.085938 L 36.394531 -67.085938 C 47.28125 -67.085938 54.125 -58.066406 58.6875 -49.460938 L 60.96875 -49.460938 L 57.859375 -70.507812 L 3.628906 -70.507812 L 3.628906 -68.226562 C 7.878906 -67.710938 9.226562 -66.984375 9.226562 -64.082031 L 9.226562 -6.429688 C 9.226562 -3.527344 7.878906 -2.800781 3.628906 -2.28125 Z M 3.628906 0 "/></g></g></g><g fill="#000000" fill-opacity="1"><g transform="translate(1257.299947, 106.153221)"><g/></g></g></g></g></g></svg>