<svg xmlns="http://www.w3.org/2000/svg" xmlns:xlink="http://www.w3.org/1999/xlink" width="246" zoomAndPan="magnify" viewBox="0 0 1440 809.999993" height="81" preserveAspectRatio="xMidYMid meet" version="1.0"><defs><clipPath id="2dbda83383"><path d="M 0 168.75 L 1440 168.75 L 1440 641.25 L 0 641.25 Z M 0 168.75 " clip-rule="nonzero"/></clipPath><clipPath id="42530ccc0e"><path d="M 0 0.75 L 1440 0.75 L 1440 473.25 L 0 473.25 Z M 0 0.75 " clip-rule="nonzero"/></clipPath><clipPath id="95311649c0"><path d="M 371 20.472656 L 1118 20.472656 L 1118 254 L 371 254 Z M 371 20.472656 " clip-rule="nonzero"/></clipPath><clipPath id="efef023d58"><path d="M 979 444 L 983 444 L 983 448.363281 L 979 448.363281 Z M 979 444 " clip-rule="nonzero"/></clipPath><clipPath id="1cf44e3cad"><rect x="0" width="1440" y="0" height="474"/></clipPath></defs><path fill="#ffffff" d="M 0 168.75 L 1440 168.75 L 1440 641.25 L 0 641.25 Z M 0 168.75 " fill-opacity="1" fill-rule="nonzero"/><g clip-path="url(#2dbda83383)"><g transform="matrix(1, 0, 0, 1, 0, 168)"><g clip-path="url(#1cf44e3cad)"><g clip-path="url(#42530ccc0e)"><path fill="#ffffff" d="M 0 0.75 L 1441.9375 0.75 L 1441.9375 475.535156 L 0 475.535156 Z M 0 0.75 " fill-opacity="1" fill-rule="nonzero"/></g><g clip-path="url(#95311649c0)"><path fill="#000000" d="M 488.941406 146.078125 C 488.390625 146.183594 487.941406 146.46875 487.898438 147.046875 C 487.84375 147.675781 488.304688 148.066406 488.859375 147.90625 C 489.292969 147.777344 489.863281 147.355469 489.953125 146.96875 C 490.082031 146.394531 489.488281 146.148438 488.941406 146.078125 Z M 919.460938 191.128906 C 920.027344 191.050781 920.496094 190.679688 920.351562 190.167969 C 920.242188 189.792969 919.703125 189.4375 919.277344 189.289062 C 918.796875 189.117188 918.226562 189.351562 918.1875 189.925781 C 918.136719 190.730469 918.804688 190.972656 919.460938 191.128906 Z M 912.214844 205.414062 C 911.582031 205.660156 910.921875 205.921875 910.855469 206.707031 C 910.84375 206.839844 911.375 207.148438 911.664062 207.160156 C 912.425781 207.183594 912.972656 206.785156 912.949219 205.96875 C 912.941406 205.777344 912.476562 205.601562 912.214844 205.414062 Z M 907.089844 158.445312 C 906.332031 158.898438 905.929688 159.5625 906.195312 160.480469 C 906.386719 161.128906 906.765625 161.789062 907.546875 161.574219 C 908.550781 161.300781 908.570312 160.402344 908.429688 159.554688 C 908.308594 158.851562 907.9375 158.367188 907.089844 158.445312 Z M 782.597656 90.425781 C 782.804688 91.296875 783.398438 91.792969 784.390625 91.710938 C 785.390625 91.625 785.992188 90.957031 786.003906 90.046875 C 786.019531 88.757812 785.097656 88.242188 783.941406 88.460938 C 783.035156 88.632812 782.53125 89.335938 782.597656 90.425781 Z M 672.664062 195.105469 C 671.070312 195.753906 670.492188 197.101562 670.503906 198.730469 C 670.507812 199.234375 671.046875 199.65625 671.589844 199.472656 C 673.089844 198.960938 674.484375 198.273438 674.136719 196.277344 C 674.007812 195.519531 673.476562 195.148438 672.664062 195.105469 Z M 956.894531 122.21875 C 955.644531 122.511719 955.066406 123.425781 955.195312 124.769531 C 955.277344 125.582031 955.359375 126.769531 956.433594 126.617188 C 958.121094 126.382812 958.160156 124.78125 958.277344 123.476562 C 958.34375 122.765625 957.851562 122.238281 956.894531 122.21875 Z M 486.867188 151.917969 C 485.449219 151.054688 484.082031 151.175781 482.742188 152.011719 C 482.15625 152.378906 481.828125 152.996094 482.09375 153.734375 C 482.367188 154.503906 482.957031 154.75 483.652344 154.382812 C 484.773438 153.792969 486.273438 153.71875 486.867188 151.917969 Z M 492.175781 143.335938 C 493.65625 143.5625 494.304688 142.261719 495.367188 141.796875 C 496.78125 141.179688 498.214844 140.441406 498.15625 138.535156 C 498.148438 138.257812 497.84375 137.773438 497.625 137.742188 C 495.953125 137.488281 494.675781 138.277344 493.550781 139.421875 C 492.464844 140.519531 491.269531 141.558594 492.175781 143.335938 Z M 1103.367188 118.867188 C 1103.78125 122.019531 1104.261719 123.953125 1105.433594 125.632812 C 1106.046875 126.519531 1107.019531 127.09375 1108.019531 126.226562 C 1108.867188 125.496094 1109.097656 124.316406 1108.34375 123.480469 C 1107.125 122.117188 1105.675781 120.96875 1103.367188 118.867188 Z M 923.148438 189.371094 C 924.714844 187.484375 925.828125 186.402344 926.605469 185.121094 C 927.328125 183.929688 929.503906 182.585938 927.890625 181.292969 C 926.835938 180.441406 925.195312 182.285156 924.320312 183.421875 C 923.242188 184.828125 922.257812 186.472656 923.148438 189.371094 Z M 897.695312 210.402344 C 894.035156 210.273438 891.15625 211.386719 889.671875 214.78125 C 889.25 215.75 889.097656 216.871094 890.082031 217.613281 C 891.261719 218.496094 891.890625 217.433594 892.597656 216.71875 C 894.484375 214.820312 895.519531 212.214844 897.695312 210.402344 Z M 983.296875 79.476562 C 980.691406 80.917969 977.929688 82.148438 975.527344 83.875 C 974.265625 84.789062 975.125 86.09375 976.480469 86.582031 C 979.085938 87.515625 984.480469 83.996094 984.792969 81.183594 C 984.910156 80.121094 984.242188 79.65625 983.296875 79.476562 Z M 909.023438 209.988281 C 902.097656 214.222656 898.816406 221.085938 896.109375 228.363281 C 903.261719 224.335938 905.984375 217.082031 909.023438 209.988281 Z M 972.359375 86.160156 C 970.355469 87.96875 967.625 89.042969 965.707031 91.355469 C 960.714844 97.371094 955.699219 103.375 949.402344 108.132812 C 948.878906 108.523438 948.210938 109.085938 948.125 109.644531 C 947.414062 114.316406 944.941406 118.039062 942.03125 121.574219 C 941.136719 122.65625 941.214844 123.929688 942.398438 124.703125 C 943.574219 125.472656 944.347656 124.382812 944.824219 123.535156 C 947.769531 118.265625 951.871094 114 956.230469 109.914062 C 957.472656 108.753906 958.855469 107.476562 959.488281 105.96875 C 961.410156 101.375 964.8125 98.269531 968.460938 95.082031 C 970.492188 93.308594 973.328125 91.683594 973.824219 88.453125 C 973.996094 87.382812 974.132812 86.355469 972.359375 86.160156 Z M 1000.574219 37.964844 C 1003.273438 37.257812 1005.746094 38.035156 1007.839844 38.867188 C 1013.226562 41.019531 1019.144531 41.921875 1023.9375 45.519531 C 1024.757812 46.132812 1025.664062 46.707031 1026.621094 47.046875 C 1035.960938 50.363281 1041.996094 57.753906 1048.359375 64.722656 C 1050.296875 66.847656 1051.667969 69.515625 1054.640625 70.542969 C 1055.910156 70.984375 1056.171875 72.320312 1056.660156 73.40625 C 1058.101562 76.628906 1060.617188 78.597656 1064.011719 79.191406 C 1065.726562 79.492188 1067.085938 80.425781 1067.8125 81.605469 C 1069.734375 84.707031 1073.578125 86.410156 1074.027344 90.636719 C 1074.203125 92.28125 1077.707031 93.9375 1079.476562 93.613281 C 1081.191406 93.296875 1081.976562 91.746094 1081.320312 90.539062 C 1079.636719 87.421875 1078.964844 83.589844 1075.609375 81.535156 C 1074.1875 80.667969 1071.890625 79.957031 1073.234375 77.828125 C 1074.34375 76.070312 1075.980469 73.867188 1078.550781 74.511719 C 1080.886719 75.097656 1083.792969 74.65625 1085.222656 77.628906 C 1085.675781 78.578125 1087.070312 79.097656 1088.0625 79.765625 C 1089.234375 80.546875 1090.28125 80.726562 1090.882812 79.0625 C 1091.996094 75.980469 1093.328125 77.441406 1094.304688 79.054688 C 1099.480469 87.570312 1104.492188 96.160156 1108.46875 105.363281 C 1110.882812 110.988281 1112.078125 117.195312 1116.089844 122.125 C 1117.507812 123.875 1117.753906 125.777344 1115.945312 127.695312 C 1114.347656 129.382812 1115.089844 130.976562 1115.765625 133.171875 C 1117.285156 138.140625 1119.789062 143.511719 1115.511719 148.996094 C 1113.859375 145.691406 1111.179688 143.359375 1109.121094 140.511719 C 1107.484375 138.242188 1106.058594 137.945312 1104.539062 139.347656 C 1102.488281 141.242188 1102.503906 142.527344 1104.765625 144.660156 C 1105.28125 145.152344 1105.976562 145.453125 1105.402344 146.222656 C 1104.917969 146.878906 1104.210938 146.730469 1103.582031 146.34375 C 1102.886719 145.921875 1101.867188 144.890625 1101.453125 146 C 1100.214844 149.292969 1098.085938 147.914062 1096.011719 147.421875 C 1094.875 147.152344 1093.511719 146.613281 1092.890625 148.164062 C 1092.4375 149.300781 1093.347656 150.097656 1094.09375 150.796875 C 1097.046875 153.5625 1097.054688 153.554688 1094.972656 157.496094 C 1092.683594 156.882812 1091.46875 154.792969 1089.632812 153.554688 C 1086.898438 151.703125 1086.140625 151.699219 1083.84375 153.839844 C 1081.265625 156.246094 1078.816406 156.566406 1076.277344 154.507812 C 1074.96875 153.441406 1073.414062 152.542969 1072.566406 150.960938 C 1070.242188 146.613281 1066.34375 143.960938 1062.417969 141.277344 C 1061.171875 140.421875 1060.160156 139.160156 1059.214844 137.945312 C 1053.957031 131.152344 1048.699219 124.363281 1043.554688 117.488281 C 1041.140625 114.257812 1039.589844 110.460938 1036.855469 107.390625 C 1034.195312 104.410156 1030.683594 104.300781 1029.097656 107.914062 C 1028.039062 110.332031 1026.449219 111.816406 1024.480469 113.21875 C 1019.972656 116.4375 1016.238281 120.453125 1012.496094 124.519531 C 1009.257812 128.039062 1005.648438 131.261719 1001.898438 134.222656 C 996.472656 138.507812 992.164062 143.539062 988.839844 149.652344 C 986.730469 153.539062 983.5625 156.839844 980.953125 160.460938 C 978.570312 163.757812 975.324219 166.535156 974.582031 170.855469 C 974.496094 171.339844 974.179688 171.8125 973.871094 172.214844 C 968.535156 179.179688 966.003906 187.769531 960.746094 194.8125 C 959.378906 196.648438 959.070312 199.292969 958.351562 201.589844 C 958.144531 202.25 958.265625 203.042969 959.066406 203.292969 C 962.191406 204.273438 960.914062 206.097656 959.773438 207.609375 C 953.976562 215.296875 948.074219 222.921875 941.335938 229.796875 C 938.988281 232.1875 935.742188 233.765625 932.742188 235.417969 C 931.164062 236.28125 929.703125 236.804688 929.707031 239 C 929.714844 240.984375 928.457031 241.945312 926.621094 241.164062 C 922.578125 239.445312 919.355469 241.484375 916.78125 243.839844 C 914.355469 246.0625 912.683594 245.710938 910.566406 243.992188 C 909.898438 243.449219 909.160156 242.980469 908.546875 242.386719 C 906.503906 240.394531 904.824219 240.199219 902.363281 242.253906 C 899.609375 244.546875 896.101562 245.8125 892.394531 246.144531 C 890.511719 246.3125 888.691406 246.738281 886.859375 247.269531 C 881.921875 248.703125 877.6875 247.144531 873.257812 244.632812 C 867.832031 241.550781 863.402344 237.378906 860.410156 232.324219 C 856.15625 225.140625 850.109375 218.921875 848.019531 210.5 C 847.621094 208.914062 846.460938 207.800781 845.289062 206.816406 C 842.546875 204.496094 840.917969 201.4375 839.851562 198.175781 C 837.980469 192.433594 835.703125 186.890625 833.070312 181.472656 C 832.621094 180.546875 832.054688 179.582031 831.960938 178.59375 C 831.242188 170.996094 827.71875 164.050781 826.898438 156.492188 C 826.5 152.84375 823.898438 149.945312 823.722656 146.171875 C 823.363281 138.433594 822.292969 130.714844 822.285156 122.984375 C 822.273438 110.753906 821.734375 98.507812 822.9375 86.28125 C 823.347656 82.140625 822.226562 78.085938 820.65625 74.222656 C 820.332031 73.429688 819.898438 72.675781 819.636719 71.867188 C 817.753906 66.140625 814.113281 65.347656 809.886719 69.738281 C 806.746094 73 802.835938 75.121094 798.871094 77.179688 C 794.898438 79.253906 790.890625 81.300781 789.089844 85.890625 C 788.640625 87.03125 787.796875 88.105469 789.179688 89.0625 C 791.617188 90.746094 790.683594 92.289062 788.871094 93.464844 C 786.449219 95.035156 784.433594 97.335938 781.363281 97.832031 C 779.75 98.089844 778.644531 99.300781 777.527344 100.351562 C 775.511719 102.253906 773.4375 103.902344 770.722656 104.859375 C 768.230469 105.738281 766.316406 107.816406 765.53125 110.308594 C 764.589844 113.308594 762.652344 115.472656 760.457031 117.316406 C 757.402344 119.882812 755.03125 122.996094 752.445312 125.949219 C 751.636719 126.875 750.964844 127.824219 750.519531 128.96875 C 749.191406 132.359375 747.964844 135.808594 743.65625 136.570312 C 742.585938 136.761719 742.195312 137.976562 741.835938 138.945312 C 739.769531 144.46875 735.777344 148.519531 731.433594 152.199219 C 728.472656 154.703125 727.0625 158.261719 724.941406 161.292969 C 722.359375 164.972656 719.566406 168.429688 716.621094 171.773438 C 713.988281 174.765625 711.605469 177.902344 709.625 181.34375 C 707.464844 185.097656 704.414062 188.160156 701.84375 191.589844 C 697.519531 197.359375 693.6875 203.5 689.644531 209.484375 C 688.96875 210.480469 688.496094 211.839844 687.554688 212.398438 C 682.109375 215.601562 684.8125 220.40625 685.027344 224.6875 C 685.0625 225.410156 686.347656 225.796875 686.070312 226.976562 C 684.855469 227.722656 683.4375 228.375 682.296875 229.347656 C 680.347656 231.007812 678.519531 231.671875 676.390625 229.710938 C 675.25 228.65625 674.125 229.027344 673.292969 230.132812 C 672.242188 231.527344 670.984375 232.675781 669.613281 233.71875 C 669.082031 234.121094 668.222656 234.972656 668.066406 234.859375 C 664.375 232.15625 661.613281 235.90625 658.402344 236.332031 C 655.054688 236.769531 651.386719 237.621094 648.679688 239.488281 C 643.304688 243.191406 637.066406 244.78125 631.433594 247.753906 C 631.148438 247.898438 630.753906 248.171875 630.722656 248.417969 C 630.457031 250.835938 629.035156 251.933594 626.765625 252.515625 C 623.234375 253.417969 619.742188 254.332031 616.128906 253.089844 C 607.355469 250.074219 599.976562 245.0625 593.65625 238.191406 C 587.40625 231.40625 581.046875 224.625 576.335938 216.753906 C 570.960938 207.769531 565.085938 199.085938 560.132812 189.820312 C 557.460938 184.828125 554.824219 179.789062 552.359375 174.714844 C 546.964844 163.609375 542.140625 152.21875 539.347656 140.097656 C 538.8125 137.796875 538.734375 134.84375 535.714844 134.480469 C 533.054688 134.15625 531.914062 136.757812 530.960938 138.632812 C 527.417969 145.613281 522.160156 151.304688 517.34375 157.308594 C 514.570312 160.773438 511.292969 163.855469 508.078125 166.941406 C 504.1875 170.675781 499.019531 172.421875 494.527344 175.234375 C 491.496094 177.128906 488.449219 179.097656 484.921875 180.144531 C 483.679688 180.511719 482.28125 181.429688 481.636719 182.507812 C 480.542969 184.328125 479.511719 184.972656 477.539062 183.933594 C 476.347656 183.300781 475.222656 184.054688 474.113281 184.519531 C 469.910156 186.285156 465.675781 186.234375 461.097656 185.957031 C 452.484375 185.441406 443.882812 183.046875 435.070312 185.871094 C 431.351562 187.0625 426.96875 187.042969 422.875 186.175781 C 422.035156 186 421.09375 185.449219 420.386719 185.671875 C 417.3125 186.644531 415.078125 185.558594 413.128906 183.257812 C 411.882812 181.792969 410.085938 181.863281 408.363281 181.761719 C 401.769531 181.371094 395.546875 179.523438 389.453125 177.054688 C 385.535156 175.46875 382.59375 173.152344 381.769531 168.777344 C 381.179688 165.675781 379.421875 163.664062 376.644531 162.105469 C 372.964844 160.039062 372.878906 159.558594 374.058594 155.523438 C 374.488281 154.039062 374.449219 152.859375 373.582031 151.652344 C 372.449219 150.070312 372.507812 148.066406 371.898438 146.417969 C 370.210938 141.871094 372.867188 139.242188 375.382812 136.597656 C 379.679688 132.078125 383.453125 127.175781 386.886719 122.003906 C 388.070312 120.21875 389.738281 119.054688 391.335938 117.753906 C 393.054688 116.351562 394.699219 115.398438 396.753906 117.304688 C 397.683594 118.167969 399.449219 118.539062 399.976562 117.390625 C 402.03125 112.921875 406.976562 112.023438 410.011719 108.785156 C 411.527344 107.164062 413.195312 105.707031 414.597656 103.9375 C 420.214844 96.855469 427.316406 91.398438 434.46875 86.023438 C 435.859375 84.976562 437.164062 84.089844 437.777344 82.28125 C 438.523438 80.074219 440.4375 78.609375 442.269531 77.414062 C 447.375 74.078125 451.332031 69.722656 454.886719 64.816406 C 456.570312 62.496094 458.761719 60.519531 461.492188 59.171875 C 464.769531 57.554688 467.273438 55.027344 469.238281 51.820312 C 471.558594 48.023438 475.09375 45.203125 478.027344 41.964844 C 481.886719 37.695312 487.929688 35.660156 490.175781 29.796875 C 490.929688 27.84375 492.785156 26.761719 494.800781 25.9375 C 499.449219 24.027344 504.25 22.96875 509.203125 22.132812 C 515.316406 21.101562 521.378906 20.703125 527.566406 20.582031 C 534.664062 20.4375 541.308594 22.097656 547.585938 24.691406 C 552.730469 26.820312 558.425781 28.101562 562.707031 32.222656 C 564.035156 33.5 566.070312 33.640625 568.089844 33.328125 C 572.742188 32.625 577.222656 33.066406 581.660156 35.082031 C 585.425781 36.789062 589.667969 36.972656 593.792969 37.195312 C 595.789062 37.308594 597.464844 37.796875 598.707031 39.515625 C 601.433594 43.28125 605.417969 44.832031 609.820312 45.082031 C 617.117188 45.488281 622.238281 49.085938 626.589844 54.785156 C 631.546875 61.277344 634.652344 68.160156 635.183594 76.460938 C 635.445312 80.652344 637.261719 84.785156 638.652344 88.851562 C 639.496094 91.308594 640.351562 93.765625 640.582031 96.332031 C 641.074219 101.882812 642.957031 107.082031 644.410156 112.375 C 645.851562 117.617188 645.84375 122.921875 645.816406 128.207031 C 645.792969 132.671875 645.214844 137.089844 645.984375 141.59375 C 646.652344 145.488281 644.792969 149.367188 645.238281 153.351562 C 645.332031 154.1875 645.015625 155.070312 645.117188 155.90625 C 645.398438 158.210938 646.628906 158.90625 648.648438 157.691406 C 650.667969 156.472656 652.421875 155.011719 654.0625 153.121094 C 658.769531 147.699219 663.015625 141.863281 668.660156 137.230469 C 671.769531 134.683594 673.777344 130.898438 676.480469 127.816406 C 678.75 125.226562 680.828125 122.5 683.640625 120.460938 C 684.195312 120.058594 684.808594 119.644531 685.183594 119.09375 C 689.921875 112.082031 696.199219 106.371094 701.390625 99.742188 C 702.023438 98.933594 702.46875 97.882812 703.265625 97.304688 C 707.792969 94.027344 710.855469 89.367188 714.53125 85.308594 C 720.414062 78.8125 726.179688 72.296875 733.710938 67.566406 C 736.117188 66.054688 738.003906 63.625 739.917969 61.433594 C 743.675781 57.128906 748.207031 53.578125 752.738281 50.328125 C 756.34375 47.746094 759.695312 44.238281 764.429688 43.328125 C 765.046875 43.214844 765.613281 42.65625 766.125 42.207031 C 774.019531 35.253906 783.042969 30.46875 793.308594 28.222656 C 795.554688 27.730469 797.40625 26.503906 799.535156 25.835938 C 809.824219 22.59375 819.523438 24.785156 828.933594 29.054688 C 833 30.894531 836.746094 33.4375 840.804688 35.296875 C 845.398438 37.402344 847.574219 41.542969 849.9375 45.488281 C 852.085938 49.066406 856.238281 50.472656 858.449219 53.917969 C 858.671875 54.257812 859.421875 54.511719 859.851562 54.425781 C 864.273438 53.539062 865.796875 56.722656 867.601562 59.722656 C 869.265625 62.496094 870.828125 65.285156 872.957031 67.835938 C 875.9375 71.40625 875.996094 76.257812 875.835938 80.6875 C 875.648438 85.828125 876.324219 91.023438 874.972656 96.144531 C 874.492188 97.964844 873.96875 100.503906 876.710938 101.414062 C 879.007812 102.179688 881.066406 101.617188 882.753906 99.699219 C 883.5 98.855469 883.503906 97.355469 885.140625 97.054688 C 885.949219 99.277344 885.308594 101.453125 885.015625 103.59375 C 884.058594 110.589844 883.019531 117.574219 882.015625 124.5625 C 881.964844 124.90625 881.886719 125.253906 881.917969 125.59375 C 882.046875 127.03125 881.125 129.0625 883.246094 129.539062 C 885.335938 130.003906 885.382812 127.894531 886.09375 126.582031 C 889.40625 120.535156 889.765625 113.796875 890.800781 107.207031 C 891.351562 103.71875 891.359375 103.71875 894.410156 101.765625 C 895.566406 103.078125 894.53125 104.382812 894.300781 105.625 C 893.496094 109.851562 892.480469 114.042969 891.988281 118.335938 C 891.847656 119.539062 891.550781 120.699219 891.890625 121.902344 C 892.140625 122.769531 892.550781 123.578125 893.539062 123.640625 C 894.273438 123.691406 894.648438 123 895.066406 122.457031 C 899.726562 116.386719 905.226562 111.015625 909.621094 104.710938 C 915.128906 96.8125 921.851562 89.878906 927.6875 82.21875 C 933.207031 74.980469 939.367188 68.167969 945.8125 61.742188 C 949.417969 58.148438 954.597656 56.550781 959.394531 54.71875 C 960.25 54.390625 961.058594 54.597656 961.644531 55.429688 C 964.210938 59.070312 968.21875 58.210938 971.417969 57.667969 C 976.109375 56.867188 980.605469 54.890625 985.347656 53.996094 C 985.515625 53.964844 985.671875 53.886719 985.84375 53.863281 C 988.476562 53.523438 987.894531 50.335938 989.667969 49.425781 C 991.417969 48.53125 993.535156 48.742188 994.679688 46.378906 C 996.207031 43.25 997.808594 43 1000.851562 44.589844 C 1001.917969 45.144531 1002.894531 45.867188 1003.980469 46.375 C 1005.140625 46.917969 1006.503906 47.082031 1007.105469 45.695312 C 1007.796875 44.109375 1006.917969 42.972656 1005.304688 42.714844 C 1002.859375 42.320312 1000.429688 42.046875 1000.296875 38.769531 C 1000.289062 38.609375 1000.40625 38.445312 1000.574219 37.964844 " fill-opacity="1" fill-rule="nonzero"/></g><path fill="#000000" d="M 730.890625 395.285156 C 730.742188 394.996094 730.652344 394.519531 730.429688 394.449219 C 729.84375 394.269531 729.4375 394.648438 729.414062 395.230469 C 729.394531 395.8125 729.777344 396.21875 730.371094 396.078125 C 730.59375 396.03125 730.71875 395.5625 730.890625 395.285156 Z M 1029.109375 299.859375 C 1028.851562 300.019531 1028.4375 300.128906 1028.363281 300.351562 C 1028.179688 300.914062 1028.53125 301.308594 1029.085938 301.339844 C 1029.34375 301.355469 1029.789062 301.105469 1029.84375 300.898438 C 1029.992188 300.351562 1029.652344 299.992188 1029.109375 299.859375 Z M 537.75 274.769531 C 537.671875 275.179688 537.835938 275.417969 538.234375 275.410156 C 538.375 275.40625 538.632812 275.265625 538.628906 275.203125 C 538.617188 274.914062 538.617188 274.5 538.441406 274.378906 C 538.140625 274.167969 537.851562 274.386719 537.75 274.769531 Z M 839.003906 327.691406 C 839.191406 327.910156 839.375 328.316406 839.566406 328.316406 C 840.226562 328.316406 840.226562 327.796875 840.03125 327.371094 C 839.925781 327.144531 839.566406 327.039062 839.320312 326.882812 C 839.214844 327.152344 839.109375 327.417969 839.003906 327.691406 Z M 1024.113281 324.757812 C 1024.054688 324.167969 1023.664062 323.761719 1023.144531 323.882812 C 1022.742188 323.976562 1022.210938 324.398438 1022.121094 324.769531 C 1021.988281 325.3125 1022.496094 325.664062 1023.050781 325.625 C 1023.5625 325.59375 1023.980469 325.316406 1024.113281 324.757812 Z M 712.664062 376.582031 C 712.09375 376.679688 711.816406 376.984375 712.015625 377.289062 C 712.269531 377.671875 712.683594 378.121094 713.097656 378.199219 C 713.660156 378.300781 714.035156 377.765625 713.742188 377.265625 C 713.53125 376.902344 712.960938 376.753906 712.664062 376.582031 Z M 720.59375 337.722656 C 720.835938 337.921875 721.089844 338.296875 721.320312 338.28125 C 721.894531 338.246094 722.207031 337.800781 722.039062 337.238281 C 721.964844 336.992188 721.570312 336.664062 721.335938 336.675781 C 720.753906 336.703125 720.519531 337.140625 720.59375 337.722656 Z M 695.484375 377.585938 C 695.421875 378.144531 695.65625 378.574219 696.191406 378.65625 C 697.117188 378.800781 697.800781 378.363281 698.027344 377.453125 C 698.164062 376.921875 697.734375 376.550781 697.238281 376.429688 C 696.269531 376.191406 695.683594 376.621094 695.484375 377.585938 Z M 896.46875 408.589844 C 895.703125 409.019531 895.082031 409.566406 895.277344 410.558594 C 895.359375 410.96875 895.71875 411.050781 896.097656 410.863281 C 896.863281 410.476562 897.652344 410.074219 897.304688 409.011719 C 897.238281 408.804688 896.769531 408.734375 896.46875 408.589844 Z M 487.042969 240.492188 C 487.117188 241.027344 487.40625 241.402344 487.949219 241.433594 C 488.496094 241.460938 488.894531 241.101562 488.90625 240.578125 C 488.921875 240.042969 488.496094 239.71875 487.976562 239.65625 C 487.394531 239.589844 487.117188 239.945312 487.042969 240.492188 Z M 703.78125 402.257812 C 704.308594 402.289062 704.550781 402.375 704.632812 402.292969 C 705.332031 401.617188 706.304688 401.082031 706.152344 399.898438 C 706.128906 399.730469 705.542969 399.441406 705.359375 399.523438 C 704.554688 399.878906 704.152344 400.636719 703.839844 401.425781 C 703.78125 401.570312 703.8125 401.753906 703.78125 402.257812 Z M 1034.558594 273.625 C 1034.640625 272.839844 1034.339844 272.492188 1033.765625 272.667969 C 1033.355469 272.789062 1032.828125 273.101562 1032.707031 273.449219 C 1032.535156 273.972656 1033.019531 274.386719 1033.539062 274.289062 C 1033.941406 274.210938 1034.28125 273.816406 1034.558594 273.625 Z M 811.9375 305.351562 C 811.367188 305.417969 811.03125 305.773438 810.917969 306.285156 C 810.804688 306.804688 810.90625 307.394531 811.457031 307.550781 C 812.351562 307.804688 812.601562 307.121094 812.660156 306.421875 C 812.703125 305.921875 812.519531 305.46875 811.9375 305.351562 Z M 909.214844 403.246094 C 908.628906 403.3125 908.355469 403.699219 908.367188 404.230469 C 908.386719 405.007812 908.84375 405.402344 909.621094 405.339844 C 910.28125 405.28125 910.996094 405.097656 910.761719 404.230469 C 910.578125 403.550781 909.90625 403.296875 909.214844 403.246094 Z M 968.898438 374.214844 C 968.179688 374.1875 967.59375 374.414062 967.5625 375.214844 C 967.535156 375.910156 967.863281 376.5 968.632812 376.5625 C 969.320312 376.625 969.964844 376.359375 970.007812 375.574219 C 970.046875 374.871094 969.597656 374.398438 968.898438 374.214844 Z M 722.300781 320.109375 C 721.550781 320.285156 721.078125 320.742188 721.140625 321.53125 C 721.183594 322.101562 721.617188 322.507812 722.175781 322.433594 C 723.097656 322.304688 723.835938 321.839844 723.535156 320.742188 C 723.394531 320.226562 722.835938 320.082031 722.300781 320.109375 Z M 733.332031 414.875 C 734.898438 412.992188 733.445312 411.976562 732.847656 410.808594 C 732.546875 412.132812 732.210938 413.464844 733.332031 414.875 Z M 1040.019531 220.945312 C 1039.015625 220.894531 1038.3125 221.460938 1038.199219 222.335938 C 1038.117188 222.972656 1038.664062 223.589844 1039.453125 223.6875 C 1040.5 223.824219 1041.089844 223.21875 1041.1875 222.300781 C 1041.257812 221.605469 1040.851562 221.007812 1040.019531 220.945312 Z M 676.519531 352.234375 C 675.582031 352.523438 674.589844 352.84375 674.597656 354.140625 C 674.597656 354.703125 674.90625 355.140625 675.539062 355.035156 C 676.777344 354.828125 677.859375 354.34375 677.75 352.839844 C 677.710938 352.308594 677.09375 352.191406 676.519531 352.234375 Z M 915.28125 401.363281 C 915.417969 402.214844 915.808594 402.820312 916.558594 402.78125 C 917.753906 402.71875 918.945312 402.390625 919.113281 400.921875 C 919.171875 400.394531 918.632812 399.964844 918.101562 400.023438 C 917.003906 400.148438 915.664062 399.914062 915.28125 401.363281 Z M 950.425781 367.835938 C 949 368.316406 947.542969 367.832031 947.179688 369.378906 C 947.132812 369.582031 947.816406 370.144531 948.226562 370.226562 C 949.722656 370.53125 950.445312 369.804688 950.425781 367.835938 Z M 718.5625 285.515625 C 717.945312 285.5625 717.496094 285.886719 717.496094 286.4375 C 717.503906 287.664062 718.453125 288.171875 719.4375 288.410156 C 720.164062 288.582031 720.832031 288.054688 720.714844 287.300781 C 720.539062 286.15625 719.554688 285.742188 718.5625 285.515625 Z M 737.410156 345.363281 C 736.226562 345.558594 735.839844 346.53125 735.65625 347.503906 C 735.496094 348.324219 736.160156 348.640625 736.902344 348.605469 C 737.941406 348.554688 738.335938 347.871094 738.3125 346.929688 C 738.296875 346.289062 738.296875 345.574219 737.410156 345.363281 Z M 737.761719 339.660156 C 737.800781 340.289062 738.230469 340.492188 738.710938 340.589844 C 739.609375 340.777344 740.359375 340.546875 740.613281 339.582031 C 740.816406 338.828125 740.445312 338.273438 739.640625 338.429688 C 738.890625 338.578125 738.035156 338.757812 737.761719 339.660156 Z M 620.78125 334.027344 C 620.273438 332.6875 619.863281 331.210938 618.371094 330.523438 C 617.902344 330.3125 617.261719 330.699219 617.28125 331.195312 C 617.34375 332.761719 618.285156 333.917969 619.378906 334.929688 C 619.539062 335.078125 620.039062 335.039062 620.261719 334.894531 C 620.496094 334.746094 620.589844 334.371094 620.78125 334.027344 Z M 729.953125 357.957031 C 728.941406 358.269531 728.90625 359.128906 729.113281 359.925781 C 729.308594 360.691406 729.753906 361.382812 730.089844 362.109375 C 731.316406 361.480469 731.445312 360.34375 731.304688 359.1875 C 731.226562 358.519531 730.792969 357.976562 729.953125 357.957031 Z M 539.734375 281.742188 C 539.738281 282.683594 540.441406 282.777344 541.078125 282.820312 C 542.277344 282.894531 542.976562 282.292969 542.90625 281.066406 C 542.871094 280.386719 542.429688 279.710938 541.695312 279.773438 C 540.574219 279.871094 540.0625 280.773438 539.734375 281.742188 Z M 707.050781 356.707031 C 706.3125 357.035156 705.449219 357.394531 705.1875 358.527344 C 704.996094 359.367188 704.925781 360.453125 705.804688 360.632812 C 707.347656 360.957031 707.492188 359.410156 707.933594 358.421875 C 708.234375 357.757812 708.015625 357.15625 707.050781 356.707031 Z M 709.492188 409.128906 C 708.519531 409.144531 707.71875 409.578125 707.988281 410.605469 C 708.210938 411.472656 708.058594 412.894531 709.417969 412.945312 C 710.304688 412.980469 710.867188 412.117188 711 411.25 C 711.167969 410.128906 710.871094 409.207031 709.492188 409.128906 Z M 722.621094 329.253906 C 724.300781 327.859375 725.367188 326.257812 727.15625 325.585938 C 722.882812 325.15625 722.882812 325.15625 722.621094 329.253906 Z M 468.621094 320.554688 C 468.511719 319.734375 468.113281 319.292969 467.601562 319.410156 C 466.035156 319.78125 465.066406 320.941406 464.425781 322.328125 C 464.332031 322.523438 464.875 323.289062 465.222656 323.371094 C 466.402344 323.636719 468.632812 321.546875 468.621094 320.554688 Z M 576.417969 314.289062 C 575.605469 314.484375 574.09375 313.507812 574.246094 315.355469 C 574.347656 316.535156 575.304688 317.019531 576.507812 316.855469 C 577.507812 316.71875 579 316.777344 579.074219 315.667969 C 579.191406 313.863281 577.53125 314.355469 576.417969 314.289062 Z M 725.773438 394.121094 C 723.992188 396.527344 725.027344 398.03125 725.808594 399.492188 C 726.152344 400.140625 726.898438 400.277344 727.59375 399.910156 C 728.25 399.5625 728.742188 398.898438 728.410156 398.253906 C 727.730469 396.9375 726.832031 395.742188 725.773438 394.121094 Z M 838.195312 313.992188 C 839.613281 312.234375 839.789062 310.457031 838.242188 308.722656 C 837.726562 308.144531 836.976562 308.535156 836.558594 309.113281 C 834.960938 311.335938 836.054688 312.757812 838.195312 313.992188 Z M 883.890625 412.761719 C 885.527344 412.320312 887.03125 412.5 888.519531 412.429688 C 889.828125 412.375 890.167969 411.304688 889.964844 410.207031 C 889.734375 408.9375 888.664062 408.558594 887.617188 408.878906 C 885.855469 409.410156 884.164062 410.191406 883.890625 412.761719 Z M 711.996094 353.917969 C 712.164062 352.898438 712.3125 352.082031 712.4375 351.261719 C 712.636719 349.925781 712.945312 348.535156 711.511719 347.652344 C 711.058594 347.371094 710.453125 347.488281 710.175781 347.957031 C 709.410156 349.238281 708.460938 350.523438 709.257812 352.140625 C 709.707031 353.058594 710.273438 353.898438 711.996094 353.917969 Z M 1011.417969 317.5 C 1011.433594 318.875 1011.578125 320.101562 1013.222656 320.132812 C 1014.8125 320.167969 1015.246094 318.941406 1015.277344 317.722656 C 1015.304688 316.347656 1015.058594 314.699219 1013.332031 314.617188 C 1011.410156 314.527344 1011.539062 316.261719 1011.417969 317.5 Z M 548.003906 264.140625 C 547.492188 265.949219 544.675781 267.40625 546.902344 269.082031 C 548.34375 270.164062 550.578125 268.914062 551.210938 267.425781 C 552.1875 265.121094 549.449219 265.15625 548.003906 264.140625 Z M 919.890625 366.21875 C 918.59375 366.75 916.585938 367.410156 916.355469 369.527344 C 916.152344 371.390625 917.910156 371.40625 919.296875 371.382812 C 921.417969 371.339844 922.410156 370.175781 922.304688 368.109375 C 922.246094 366.984375 921.753906 366.132812 919.890625 366.21875 Z M 721.425781 407.472656 C 720.101562 407.390625 716.207031 410.175781 715.867188 411.507812 C 715.734375 412.027344 716.007812 412.539062 716.503906 412.734375 C 718.558594 413.546875 722.386719 411.050781 722.472656 408.847656 C 722.5 408.140625 722.34375 407.496094 721.425781 407.472656 Z M 886.644531 424.777344 C 887.132812 424.824219 887.644531 424.914062 888.152344 424.902344 C 889.25 424.871094 890.328125 424.535156 890.394531 423.292969 C 890.449219 422.242188 889.410156 422.0625 888.558594 421.929688 C 888.054688 421.851562 887.515625 421.722656 887.027344 421.808594 C 885.078125 422.167969 881.714844 419.949219 881.480469 423.027344 C 881.28125 425.625 884.902344 423.914062 886.644531 424.777344 Z M 660.753906 384.570312 C 661.449219 381.949219 663.171875 381.335938 664.121094 379.980469 C 665.078125 378.617188 664.324219 377.359375 663.65625 376.210938 C 663.3125 375.621094 662.527344 375.5625 661.828125 375.78125 C 660.480469 376.199219 659.773438 377.289062 660.148438 378.488281 C 660.671875 380.167969 659.308594 381.773438 660.753906 384.570312 Z M 729.09375 346.355469 C 726.738281 346.523438 724.070312 350.882812 725.015625 353.011719 C 725.300781 353.652344 726.152344 354.167969 726.660156 353.574219 C 728.074219 351.925781 729.460938 350.210938 730.519531 348.328125 C 731.089844 347.316406 730.335938 346.402344 729.09375 346.355469 Z M 669.261719 363.824219 C 672.121094 364.652344 673.734375 363.230469 674.757812 360.894531 C 675.242188 359.796875 675.300781 358.4375 674.046875 357.753906 C 672.742188 357.046875 671.699219 357.894531 671.191406 359.019531 C 670.507812 360.519531 669.386719 361.859375 669.261719 363.824219 Z M 1028.261719 305.878906 C 1026.382812 305.789062 1023.347656 309.582031 1023.933594 311.382812 C 1024.0625 311.78125 1024.578125 312.191406 1025.003906 312.335938 C 1026.628906 312.882812 1027.523438 311.640625 1028.484375 310.703125 C 1029.503906 309.710938 1030.179688 308.535156 1029.773438 307.015625 C 1029.570312 306.257812 1028.988281 305.957031 1028.261719 305.878906 Z M 726.34375 321.632812 C 729.628906 319.644531 727.761719 316.53125 728.480469 314.09375 C 728.792969 313.03125 728.523438 311.984375 727.0625 312.078125 C 725.90625 312.152344 724.777344 313.050781 725.210938 313.984375 C 726.320312 316.382812 724.15625 319.074219 726.34375 321.632812 Z M 682.835938 343.019531 C 679.71875 343.558594 678.621094 346.292969 677 348.175781 C 676.21875 349.082031 677.222656 350.636719 678.699219 350.507812 C 680.164062 350.378906 682.207031 349.9375 682.09375 348.144531 C 681.976562 346.390625 683.152344 344.96875 682.835938 343.019531 Z M 862.347656 411.0625 C 860.375 409.378906 859.828125 407.785156 859.441406 406 C 859.144531 404.617188 857.476562 404.0625 856.09375 404.722656 C 854.921875 405.28125 855.613281 406.433594 855.746094 407.40625 C 856.183594 410.671875 858.300781 411.398438 862.347656 411.0625 Z M 804.738281 292.519531 C 803.535156 292.53125 802.125 293.578125 802.089844 294.480469 C 802.050781 295.484375 805.550781 298.925781 806.628906 298.792969 C 808.160156 298.609375 808.390625 297.300781 808.394531 296.109375 C 808.402344 294.472656 806.277344 292.496094 804.738281 292.519531 Z M 581.992188 321.929688 C 582.613281 324.175781 583.6875 326.277344 580.910156 327.21875 C 580.21875 327.457031 580.246094 328.40625 580.804688 328.9375 C 581.898438 329.988281 583.066406 331.003906 584.566406 331.410156 C 585.78125 331.734375 586.996094 330.957031 586.574219 329.96875 C 585.445312 327.34375 585.757812 323.871094 581.992188 321.929688 Z M 726.074219 365.375 C 724.886719 364.664062 723.71875 364.019531 722.605469 363.292969 C 721.011719 362.253906 719.78125 363.269531 719.105469 364.324219 C 718.207031 365.734375 717.585938 367.4375 719.414062 368.925781 C 720.722656 369.988281 721.878906 370.136719 723 368.878906 C 724 367.757812 725.429688 367.007812 726.074219 365.375 Z M 555.601562 305.847656 C 555.246094 297.71875 548.792969 293.949219 545.582031 288.261719 C 545.246094 287.664062 543.933594 288.078125 543.683594 289.152344 C 543.46875 290.085938 543.972656 290.976562 544.609375 291.429688 C 548.257812 294 550.242188 297.746094 552.199219 301.585938 C 552.925781 303.011719 554.214844 304.148438 555.601562 305.847656 Z M 732.550781 310.054688 C 735.949219 308 736.515625 303.824219 739.183594 301.273438 C 739.78125 300.699219 738.78125 299.636719 737.8125 299.757812 C 732.507812 300.40625 730.21875 304.769531 732.550781 310.054688 Z M 1031.582031 365.453125 C 1031.605469 365.058594 1031.648438 364.546875 1031.664062 364.03125 C 1031.703125 362.660156 1031.949219 360.941406 1030.148438 360.71875 C 1028.554688 360.523438 1027.183594 361.542969 1026.539062 363.109375 C 1026.222656 363.875 1026.085938 364.769531 1026.089844 365.609375 C 1026.101562 368.710938 1027.464844 371.125 1029.125 370.820312 C 1032.195312 370.246094 1031.984375 367.902344 1031.582031 365.453125 Z M 741.363281 311.421875 C 743.769531 311.8125 745.972656 312.21875 748.15625 310.570312 C 749.78125 309.34375 749.339844 307.878906 749.058594 306.421875 C 748.78125 305.015625 747.890625 303.832031 746.402344 303.785156 C 744.972656 303.738281 743.582031 304.515625 743.453125 306.078125 C 743.289062 308.03125 741.359375 309.1875 741.363281 311.421875 Z M 1026.550781 331.984375 C 1026.890625 330.625 1026.675781 329.535156 1025.175781 329.144531 C 1023.925781 328.8125 1022.234375 329.042969 1022 330.097656 C 1021.429688 332.726562 1019.609375 334.527344 1018.480469 336.757812 C 1017.929688 337.832031 1018.097656 339.152344 1018.777344 340.226562 C 1019.371094 341.167969 1020.507812 341.945312 1021.308594 341 C 1023.582031 338.324219 1026.621094 336.019531 1026.550781 331.984375 Z M 963.816406 378.027344 C 963.394531 380.300781 961.472656 381.480469 959.785156 383.054688 C 956.160156 386.445312 954.03125 390.859375 954.769531 396.09375 C 954.945312 397.375 953.101562 398.96875 954.871094 399.761719 C 956.644531 400.554688 956.730469 398.292969 957.636719 397.453125 C 962.179688 393.234375 963.839844 387.136719 967.53125 382.371094 C 968.3125 381.363281 968.210938 380.441406 967.195312 379.753906 C 966.246094 379.109375 965.589844 377.910156 963.816406 378.027344 Z M 732.675781 344.347656 C 732.785156 344.074219 732.910156 343.804688 733 343.523438 C 734.699219 338.238281 736.140625 333.058594 740.578125 328.921875 C 742.875 326.78125 743.5 322.636719 744.390625 319.265625 C 744.789062 317.753906 744.152344 315.828125 742.175781 315.355469 C 740.265625 321.453125 736.085938 324.941406 730.269531 326.734375 C 731.550781 329.765625 729.207031 332.941406 730.648438 335.964844 C 727.945312 339.582031 730.59375 341.894531 732.675781 344.347656 Z M 926.261719 377.109375 C 926.148438 378.710938 928.347656 379.753906 927.230469 380.613281 C 924.972656 382.335938 925.015625 385.683594 922.421875 386.957031 C 920.128906 388.082031 919.898438 390.542969 918.742188 392.382812 C 917.71875 394.011719 918.851562 395.328125 920.078125 396.382812 C 921.371094 397.488281 922.675781 396.960938 923.863281 396.167969 C 925.699219 394.945312 926.652344 392.945312 926.933594 390.972656 C 927.167969 389.34375 927.3125 388.566406 929.144531 388.507812 C 931.222656 388.441406 932.519531 387.199219 933.175781 385.132812 C 934.535156 380.828125 936.445312 376.765625 938.855469 373.066406 C 939.847656 373.03125 940.25 373.574219 940.628906 374.171875 C 941.191406 375.070312 941.914062 376.074219 943.046875 375.589844 C 944.53125 374.957031 944.019531 373.660156 943.652344 372.472656 C 943.449219 371.828125 943.542969 371.09375 943.34375 370.449219 C 942.980469 369.292969 937.867188 367.730469 937.324219 368.675781 C 935.339844 372.132812 930.785156 374.515625 932.714844 380.066406 C 931.496094 376.617188 928.863281 377.324219 926.261719 377.109375 Z M 983.3125 362.679688 C 985.242188 366.335938 985.179688 369.800781 983.707031 373.183594 C 982.847656 375.160156 980.058594 376.453125 981.929688 379.304688 C 982.277344 379.839844 981.414062 380.457031 980.75 380.726562 C 979.964844 381.046875 979.078125 381.207031 978.589844 382.019531 C 978.03125 382.949219 977.679688 384.027344 978.445312 384.890625 C 979.203125 385.75 980.003906 384.847656 980.695312 384.484375 C 984.09375 382.695312 985.964844 379.035156 989.398438 377.273438 C 989.535156 377.203125 989.691406 377.007812 989.699219 376.867188 C 989.820312 373.480469 992.160156 371.050781 993.410156 368.148438 C 993.914062 366.972656 994.167969 365.96875 992.382812 365.394531 C 990.214844 364.699219 989.710938 362.707031 990.394531 360.832031 C 991.078125 358.949219 990.796875 356.140625 994.121094 356.066406 C 995.859375 356.03125 997.605469 355.320312 997.84375 353.183594 C 998.246094 349.597656 999.824219 346.210938 1000.296875 342.808594 C 1000.875 338.660156 1003.058594 335.640625 1005.507812 333.203125 C 1008.316406 330.398438 1008.28125 327.058594 1009.296875 323.882812 C 1009.558594 323.058594 1009.292969 322.066406 1008.363281 321.707031 C 1007.109375 321.222656 1006.46875 321.996094 1006.152344 323.121094 C 1005.53125 325.3125 1003.824219 325.472656 1001.023438 326.003906 C 1004.640625 319.878906 1006.066406 313.746094 1010.398438 309.117188 C 1012.035156 307.371094 1013.421875 305.226562 1011.28125 303.300781 C 1009.304688 301.523438 1009.460938 299.726562 1010.046875 297.734375 C 1010.621094 295.78125 1011.238281 293.765625 1013.609375 293.042969 C 1014.679688 292.714844 1016 292.324219 1015.738281 290.628906 C 1014.460938 289.359375 1011.695312 289.726562 1011.28125 288.457031 C 1010.136719 284.929688 1007.445312 283.789062 1005.121094 283.277344 C 1006.480469 278.824219 1010.679688 276.453125 1012.316406 272.042969 C 1010.65625 271.738281 1010.386719 272.402344 1010.183594 273.058594 C 1009.953125 273.792969 1009.597656 274.40625 1008.761719 274.015625 C 1007.6875 273.511719 1007.957031 272.785156 1008.550781 271.964844 C 1010.167969 269.75 1011.636719 267.425781 1013.3125 265.257812 C 1014.410156 263.832031 1015.316406 262.449219 1014.738281 260.570312 C 1014.457031 259.648438 1014.65625 258.355469 1013.25 258.199219 C 1012.320312 258.097656 1011.394531 258.65625 1011.09375 259.363281 C 1010.003906 261.902344 1007.785156 263.183594 1005.78125 264.769531 C 1004.867188 265.5 1003.867188 266.476562 1003.546875 267.535156 C 1002.519531 270.898438 999.933594 272.855469 997.367188 274.746094 C 995.394531 276.199219 994.425781 277.628906 994.539062 280.273438 C 994.652344 282.933594 990.457031 281.886719 989.953125 284.445312 C 989.824219 285.105469 990.007812 285.824219 989.957031 286.507812 C 989.785156 288.738281 988.957031 290.28125 986.535156 291.035156 C 983.976562 291.828125 982 294.027344 981.484375 296.445312 C 980.78125 299.769531 979.058594 301.898438 976.523438 303.832031 C 974.738281 305.191406 973.441406 307.175781 972.714844 309.253906 C 971.53125 312.609375 969.644531 315.53125 967.054688 317.71875 C 963.425781 320.78125 959.949219 323.746094 959.0625 328.746094 C 958.984375 329.179688 958.324219 329.480469 958.101562 329.929688 C 956.347656 333.421875 952.453125 335.542969 951.824219 339.792969 C 951.746094 340.335938 950.949219 340.796875 950.441406 341.242188 C 948.933594 342.558594 945.21875 348.644531 944.425781 350.210938 C 942.523438 353.964844 943.371094 358.347656 941.519531 362.054688 C 941.03125 363.03125 940.441406 363.875 941.46875 364.777344 C 942.488281 365.671875 943.757812 365.851562 944.789062 365.050781 C 946.636719 363.617188 949.175781 362.839844 949.789062 360.132812 C 950.238281 358.164062 951.617188 358.160156 952.9375 358.925781 C 954.523438 359.855469 956.957031 360.898438 957.210938 362.242188 C 957.882812 365.730469 959.4375 364.621094 961.851562 364.582031 C 965.820312 364.519531 969.71875 365.335938 973.851562 364.710938 C 976.707031 364.277344 979.175781 364.855469 981.578125 363.398438 C 982.003906 363.136719 982.511719 363.007812 983.3125 362.679688 Z M 701.578125 305.484375 C 699.363281 305.332031 698.359375 306.984375 697.230469 308.433594 C 696.867188 308.898438 696.984375 309.410156 697.453125 309.738281 C 697.886719 310.039062 698.476562 310.074219 698.773438 309.632812 C 699.71875 308.25 700.574219 306.800781 701.460938 305.375 C 704.894531 303.363281 705.003906 299.03125 707.816406 296.414062 C 710.398438 294.011719 713.839844 292.027344 714.820312 287.90625 C 711.792969 287.527344 709.648438 288.164062 707.929688 290.589844 C 705.886719 293.46875 703.476562 296.082031 701.269531 298.847656 C 699.457031 301.128906 699.125 303.394531 701.578125 305.484375 Z M 716.40625 389.1875 C 717.066406 389.113281 718.207031 389.222656 718.304688 388.941406 C 719.078125 386.800781 717.5 386.113281 716.023438 385.191406 C 714.992188 386.96875 716.339844 388.058594 716.5625 389.339844 C 713.84375 388.597656 710.902344 386.148438 708.832031 390.386719 C 708.71875 390.617188 708.257812 390.773438 707.945312 390.792969 C 706.1875 390.929688 704.636719 391.90625 704.988281 393.542969 C 705.332031 395.136719 707.347656 395.035156 708.859375 395.054688 C 709.367188 395.058594 709.875 395.082031 710.382812 395.136719 C 713.070312 395.433594 713.84375 392.648438 715.796875 391.765625 C 717.101562 391.175781 716.75 390.175781 716.40625 389.1875 Z M 1022.265625 282.542969 C 1021.753906 283.679688 1021.246094 284.8125 1020.554688 286.335938 C 1022.734375 285.28125 1022.777344 283.960938 1022.140625 282.417969 C 1025.320312 283.613281 1026.09375 281.414062 1027.183594 278.585938 C 1024.902344 279.742188 1023.511719 281.054688 1022.265625 282.542969 Z M 563.089844 296.359375 C 563.078125 296.191406 563.109375 296.007812 563.046875 295.859375 C 562.609375 294.789062 563.972656 292.914062 561.671875 292.691406 C 561.394531 292.664062 560.90625 292.871094 560.824219 293.085938 C 560.164062 294.894531 561.832031 295.25 562.757812 296.0625 C 562.878906 296.164062 563.074219 296.175781 563.226562 296.234375 C 562.335938 297.8125 562.910156 298.789062 564.527344 299.214844 C 564.9375 299.320312 565.785156 299.167969 565.839844 298.972656 C 566.226562 297.519531 565.246094 296.90625 564.082031 296.503906 C 563.769531 296.398438 563.417969 296.40625 563.089844 296.359375 Z M 1031.984375 293.574219 C 1035.835938 294.355469 1037.304688 291.148438 1038.503906 288.828125 C 1040.433594 285.105469 1044.800781 283.828125 1046.402344 279.941406 C 1046.792969 279 1048.117188 279.015625 1049.171875 278.898438 C 1051.1875 278.679688 1053.191406 278.308594 1054.953125 278.035156 C 1056.015625 276.242188 1053.269531 275.625 1054.289062 274.078125 C 1055.863281 273.199219 1056.777344 274.714844 1057.996094 275.121094 C 1061.132812 276.171875 1062.824219 274.921875 1062.601562 271.398438 C 1062.492188 269.710938 1063.621094 269.890625 1064.457031 269.589844 C 1065.542969 269.195312 1066.414062 269.335938 1066.734375 270.757812 C 1067.667969 274.914062 1065.082031 277.660156 1062.585938 280.105469 C 1061.285156 281.382812 1060.601562 282.597656 1060.054688 284.210938 C 1059.003906 287.300781 1056.960938 289.867188 1055.359375 292.632812 C 1052.878906 296.917969 1049.921875 300.933594 1047.734375 305.390625 C 1047.203125 306.46875 1046.738281 307.679688 1045.914062 308.488281 C 1043.507812 310.835938 1042.597656 313.632812 1042.84375 316.894531 C 1043.054688 319.621094 1042.3125 322.113281 1040.4375 324.023438 C 1038.910156 325.578125 1038.894531 327.152344 1039.925781 328.660156 C 1041.070312 330.320312 1040.914062 331.703125 1040.160156 333.433594 C 1038.273438 337.734375 1037.863281 342.738281 1033.757812 345.921875 C 1034.921875 346.851562 1036.238281 346.558594 1037.191406 347.40625 C 1039.535156 349.496094 1039.601562 350.628906 1036.777344 352.085938 C 1035.273438 352.867188 1034.824219 353.972656 1034.609375 355.304688 C 1033.5625 361.804688 1031.699219 368.230469 1032.679688 374.921875 C 1032.785156 375.625 1032.542969 375.921875 1032.0625 375.953125 C 1030.695312 376.039062 1029.171875 377.710938 1027.972656 375.578125 C 1027.222656 374.230469 1026.246094 373.886719 1025.21875 375.308594 C 1024.113281 376.84375 1020.183594 376.859375 1021.632812 379.417969 C 1023.5625 382.832031 1021.328125 384.433594 1019.984375 386.625 C 1019.710938 387.070312 1019.441406 387.5 1018.769531 387.527344 C 1017.589844 386.929688 1018.316406 386.285156 1018.769531 385.597656 C 1019.65625 384.261719 1020.574219 382.835938 1018.625 381.660156 C 1017.046875 380.703125 1015.511719 379.40625 1013.976562 382.054688 C 1013.164062 383.457031 1010.933594 383.542969 1009.894531 384.996094 C 1010.078125 385.300781 1010.199219 385.738281 1010.375 385.765625 C 1011.367188 385.894531 1012.941406 384.367188 1013.164062 386.550781 C 1013.300781 387.941406 1012.191406 388.65625 1010.800781 388.695312 C 1010.289062 388.707031 1009.648438 388.8125 1009.285156 388.5625 C 1006.75 386.828125 1005.644531 388.160156 1004.675781 390.429688 C 1004.222656 391.492188 1003.433594 392.871094 1002.492188 393.183594 C 997.351562 394.898438 996.515625 399.113281 996.007812 403.648438 C 994.675781 404.035156 993.460938 402.460938 992.082031 403.386719 C 992.050781 403.511719 991.933594 403.710938 991.988281 403.792969 C 992.761719 405.011719 994.628906 406.363281 992.496094 407.59375 C 990.902344 408.519531 989.457031 407.183594 988.984375 405.574219 C 988.449219 403.765625 985.105469 402.449219 987.910156 399.941406 C 988.417969 399.480469 988.222656 398.609375 987.507812 398.179688 C 986.882812 397.808594 986.128906 397.757812 985.542969 398.144531 C 983.921875 399.207031 982.585938 400.570312 982.390625 402.617188 C 982.261719 403.976562 982.355469 405.355469 982.347656 407.125 C 980.46875 406.414062 980.09375 404.148438 977.980469 403.855469 C 978.605469 403.082031 978.839844 402.5625 979.238281 402.351562 C 980.539062 401.652344 981.777344 400.789062 981.125 399.179688 C 980.519531 397.691406 979.085938 398.277344 977.960938 398.628906 C 977.257812 398.851562 976.617188 399.066406 976.199219 398.316406 C 975.816406 397.621094 976.054688 396.808594 976.726562 396.570312 C 978.96875 395.78125 978.628906 393.152344 980.351562 391.804688 C 981.917969 390.578125 980.945312 388.519531 978.855469 388.113281 C 974.046875 387.167969 970.300781 390.011719 966.28125 391.824219 C 965.632812 392.117188 965.695312 392.964844 965.648438 393.671875 C 965.492188 396.132812 966.074219 398.847656 963.242188 400.417969 C 962.566406 400.792969 962.792969 401.632812 963.289062 402.203125 C 964.027344 403.054688 965.46875 403.683594 964.105469 405.117188 C 963.324219 405.9375 963.226562 407.710938 961.683594 407.453125 C 958.433594 406.90625 958.191406 409.503906 957.367188 411.414062 C 956.695312 412.976562 956.296875 414.660156 955.730469 416.441406 C 954.289062 416.386719 953.664062 412.726562 952.058594 415.324219 C 950.386719 418.027344 947.695312 418.832031 945.261719 420.3125 C 943.359375 421.472656 940.65625 421.539062 939.65625 424.417969 C 939.113281 426 936.871094 425.667969 935.554688 424.8125 C 933.777344 423.652344 935.191406 422.429688 935.925781 421.355469 C 937.847656 418.550781 939.792969 415.757812 943.125 414.386719 C 941.148438 413.527344 938.5 413.832031 936.441406 415.199219 C 935.742188 415.660156 935.003906 416.808594 934.488281 416.695312 C 929.96875 415.71875 927.707031 419.273438 924.839844 421.433594 C 919.664062 425.324219 913.464844 426.046875 907.476562 427.300781 C 904.316406 427.960938 901.136719 428.398438 897.988281 429.253906 C 893.410156 430.496094 888.746094 429.378906 884.359375 427.988281 C 882.574219 427.421875 880.898438 426.578125 878.996094 426.6875 C 875.976562 426.875 873.367188 425.816406 870.714844 424.527344 C 868.414062 423.410156 866.730469 420.421875 863.441406 421.851562 C 863.171875 421.964844 862.523438 421.441406 862.175781 421.085938 C 856.5625 415.429688 849.492188 412.039062 842.710938 408.136719 C 840.207031 406.699219 837.328125 406.472656 835.09375 405.136719 C 831.25 402.839844 828.222656 399.269531 827.925781 394.445312 C 827.746094 391.523438 826.984375 389.457031 824.066406 388.519531 C 823.605469 388.371094 823.089844 388.003906 822.855469 387.59375 C 820.394531 383.253906 815.335938 384.035156 811.761719 381.902344 C 811.394531 381.683594 810.769531 381.859375 810.265625 381.898438 C 806.597656 382.171875 804.832031 381.273438 804.992188 378.035156 C 805.140625 374.996094 803.515625 373.699219 801.65625 372.183594 C 799.230469 370.210938 797.753906 367.84375 796.53125 364.777344 C 794.945312 360.800781 793.0625 356.519531 789.152344 353.886719 C 787.113281 352.507812 785.398438 350.664062 784.527344 348.441406 C 782.117188 342.304688 778.992188 336.578125 774.863281 331.488281 C 769.710938 325.125 767.160156 317.304688 762.742188 310.554688 C 761.734375 309.011719 761.257812 306.484375 759.179688 306.542969 C 756.921875 306.605469 757.351562 309.496094 756.25 310.929688 C 755.519531 311.871094 755.078125 313.046875 754.304688 313.945312 C 752.457031 316.085938 751.144531 318.089844 754.042969 320.449219 C 755.085938 321.296875 755.03125 322.519531 754.390625 323.746094 C 753.59375 325.273438 752.839844 326.832031 752.234375 328.441406 C 751.5625 330.207031 750.511719 332.242188 751.285156 333.933594 C 753.898438 339.625 750.097656 343.222656 747.421875 347.222656 C 746.757812 348.21875 746.023438 349.21875 745.140625 350.003906 C 743.140625 351.773438 742.863281 353.683594 744.148438 355.984375 C 745.152344 357.785156 744.789062 359.230469 743.632812 361.132812 C 740.894531 365.636719 738.863281 370.535156 738.738281 375.984375 C 738.671875 378.671875 736.847656 381.148438 734.992188 381.652344 C 732.902344 382.226562 729.945312 382.019531 727.785156 380.300781 C 726.199219 379.042969 726.847656 377.546875 727.355469 376.0625 C 727.710938 375.03125 727.9375 373.871094 726.542969 373.578125 C 725.480469 373.355469 725.148438 374.328125 725.066406 375.246094 C 724.933594 376.6875 723.929688 376.996094 722.878906 376.613281 C 720.359375 375.703125 719.394531 377.34375 718.609375 379.121094 C 717.574219 381.460938 718.726562 383.367188 721.023438 382.648438 C 723.613281 381.835938 725.167969 382.882812 727.117188 384.035156 C 729.230469 385.285156 731.253906 386.917969 734.222656 385.480469 C 736.09375 384.574219 738.070312 386.472656 740.085938 386.832031 C 741.347656 387.058594 740.933594 388.441406 740.972656 389.457031 C 741.070312 392.058594 738.992188 394.765625 741.421875 397.308594 C 741.867188 397.773438 740.96875 398.453125 740.621094 399.019531 C 738.601562 402.332031 738.679688 403.035156 741.203125 405.6875 C 741.914062 406.433594 742.796875 407.03125 743.429688 407.839844 C 745.417969 410.378906 744.480469 413.109375 741.335938 413.324219 C 739.167969 413.472656 738.566406 414.578125 737.261719 416.070312 C 734.457031 419.277344 733.855469 424.152344 729.339844 426.136719 C 728.015625 426.71875 726.820312 427.492188 725.316406 427.90625 C 723.242188 428.480469 720.984375 428.746094 719.265625 430.464844 C 716.757812 432.976562 713.894531 433.382812 710.980469 431.039062 C 710.109375 430.335938 709.089844 430.363281 708.113281 430.089844 C 707.03125 429.789062 706.371094 428.761719 706.851562 427.699219 C 707.230469 426.871094 707.996094 425.34375 708.976562 425.90625 C 712.671875 427.992188 713.160156 424.445312 715.160156 422.476562 C 713.464844 422.003906 712.398438 419.207031 710.730469 422.886719 C 710.203125 424.050781 708.441406 422.632812 708.5625 421.292969 C 708.847656 418.136719 708.195312 418.359375 705.539062 419.523438 C 702.367188 420.914062 699.140625 423.449219 695.171875 421.679688 C 694.515625 421.390625 693.914062 422.007812 693.46875 422.566406 C 692.867188 423.316406 692.738281 424.003906 693.410156 424.84375 C 694.3125 425.96875 696.535156 426.882812 695.351562 428.554688 C 694.089844 430.339844 691.34375 432.046875 689.652344 431.179688 C 684.972656 428.792969 681.054688 431.332031 676.863281 432.117188 C 675.269531 432.417969 673.835938 432.460938 672.082031 431.105469 C 673.96875 430.457031 675.578125 429.785156 676.855469 428.570312 C 677.328125 428.121094 678.253906 427.46875 678.566406 427.640625 C 682.699219 429.957031 682.972656 426.65625 683.851562 424.136719 C 684.144531 423.3125 684.769531 422.324219 685.640625 422.527344 C 688.511719 423.195312 689.695312 420.367188 692.089844 419.894531 C 691.304688 419.160156 690.703125 418.589844 689.867188 417.804688 C 693.632812 416.097656 696.578125 413.128906 700.875 412.835938 C 702.148438 412.75 703.007812 411.691406 702.84375 410.253906 C 702.65625 408.550781 701.699219 407.398438 700.035156 406.933594 C 699.542969 406.796875 699.136719 406.96875 698.8125 407.480469 C 697.691406 409.246094 694.667969 411.417969 692.121094 412.433594 C 691.015625 412.875 689.511719 413.085938 688.925781 413.921875 C 686.886719 416.847656 685.097656 419.679688 681.023438 416.667969 C 680.519531 416.296875 679.488281 417.089844 679.550781 417.707031 C 679.75 419.707031 679.34375 420.9375 677.015625 420.597656 C 675.511719 424.3125 672.273438 423.773438 669.21875 423.9375 C 667.53125 424.027344 665.5625 424.175781 664.242188 425.074219 C 658.425781 429.003906 651.542969 428.492188 645.175781 430.066406 C 644.679688 430.191406 644.148438 430.289062 643.652344 430.242188 C 641.617188 430.054688 639.425781 428.25 639.71875 426.960938 C 640.207031 424.824219 641.648438 424.285156 643.636719 424.859375 C 643.800781 424.90625 643.988281 424.953125 644.144531 424.921875 C 645.804688 424.597656 648.433594 424.234375 648.226562 422.667969 C 647.851562 419.847656 645.460938 422.164062 644.003906 422.039062 C 640.371094 421.742188 637.886719 423.773438 636.449219 426.945312 C 636.003906 427.933594 635.5625 428.296875 634.632812 428.246094 C 628.609375 427.90625 622.933594 426.234375 617.996094 422.835938 C 616.546875 421.839844 615.21875 420.707031 613.566406 420.617188 C 610.25 420.4375 607.734375 418.816406 605.371094 416.765625 C 603.417969 415.074219 601.320312 413.867188 598.820312 412.929688 C 596.003906 411.875 594.179688 409.089844 592.339844 406.636719 C 589.644531 403.042969 585.386719 401.726562 581.820312 399.394531 C 581.28125 399.042969 580.488281 399.347656 580.007812 399.96875 C 579.53125 400.589844 579.476562 401.292969 579.980469 401.839844 C 580.789062 402.710938 581.703125 403.492188 582.609375 404.273438 C 583.457031 405.011719 585.167969 405.664062 583.949219 406.953125 C 582.832031 408.144531 581.929688 406.460938 581.027344 405.832031 C 579.429688 404.722656 578.316406 403.246094 577.597656 401.417969 C 575.898438 397.101562 572.453125 394.269531 569.234375 391.121094 C 563.007812 385.035156 556.566406 379.121094 551.640625 371.804688 C 547.996094 366.394531 543.949219 361.265625 540.335938 355.839844 C 536.4375 349.980469 532.5625 344.070312 529.179688 337.90625 C 526.132812 332.359375 521.582031 327.8125 519.089844 321.929688 C 518.707031 321.023438 517.777344 320.351562 517.101562 319.566406 C 515.96875 318.261719 514.996094 318.085938 513.820312 319.664062 C 509.890625 324.957031 507.277344 330.824219 505.921875 337.265625 C 505.460938 339.457031 505.304688 341.738281 504.625 343.851562 C 503.6875 346.75 503.238281 349.222656 506.710938 350.726562 C 508.097656 351.324219 507.925781 352.679688 507.695312 353.886719 C 506.695312 359.183594 504.25 363.972656 502.414062 368.972656 C 502.25 369.425781 501.804688 370.046875 501.425781 370.09375 C 497.707031 370.570312 496.3125 373.78125 494.117188 376.082031 C 492.8125 377.445312 491.332031 378.78125 489.433594 379.191406 C 482.367188 380.730469 475.648438 383.390625 468.773438 385.535156 C 466.765625 386.160156 464.695312 386.167969 462.636719 385.863281 C 459.226562 385.363281 455.863281 384.734375 452.601562 386.664062 C 450.972656 387.625 449.753906 386.34375 448.472656 385.429688 C 446.707031 384.171875 445.109375 381.703125 442.523438 384.515625 C 441.871094 385.226562 440.574219 384.390625 439.761719 383.703125 C 437.355469 381.671875 434.480469 381.039062 431.527344 381.535156 C 428.074219 382.117188 425.339844 379.464844 421.664062 380.140625 C 418.132812 380.789062 414.539062 380.820312 411.40625 382.835938 C 410.195312 383.617188 408.921875 383.980469 407.515625 383.945312 C 405.796875 383.902344 404.46875 383.371094 404.308594 381.367188 C 404.25 380.683594 404.390625 379.628906 404.019531 379.382812 C 399.875 376.640625 398.519531 371.898438 395.8125 368.136719 C 394.976562 366.976562 393.765625 366.328125 392.367188 366.015625 C 390.644531 365.621094 389.207031 364.675781 387.886719 363.546875 C 385.132812 361.179688 382.371094 358.867188 378.578125 358.308594 C 377.574219 358.160156 376.523438 357.578125 376.519531 356.328125 C 376.511719 355.011719 377.574219 354.730469 378.640625 354.601562 C 380.925781 354.320312 381.460938 353.03125 380.867188 350.945312 C 380.636719 350.132812 380.6875 349.242188 380.621094 348.390625 C 380.328125 344.660156 380.328125 344.671875 376.570312 344.277344 C 375.722656 344.191406 374.859375 344.074219 374.054688 343.808594 C 371.082031 342.800781 371.042969 342.222656 371.648438 338.980469 C 372.921875 332.191406 377.285156 327.328125 381.914062 322.898438 C 384.386719 320.527344 387.960938 319.015625 391.726562 318.941406 C 393.113281 318.914062 394.527344 318.957031 395.710938 318.128906 C 398.292969 316.328125 400.910156 315.96875 403.976562 317.027344 C 406.417969 317.867188 408.136719 316.089844 409.578125 314.300781 C 416.765625 305.390625 423.390625 296.09375 429.675781 286.496094 C 433.394531 280.816406 437.21875 275.046875 441.820312 269.933594 C 442.613281 269.054688 443.203125 267.941406 443.664062 266.839844 C 444.898438 263.910156 446.824219 261.964844 450.144531 261.730469 C 451.230469 261.652344 452.421875 261.246094 452.519531 260.109375 C 452.902344 255.777344 456.203125 255.042969 459.417969 254.53125 C 461.992188 254.125 462.230469 252.964844 462.058594 250.648438 C 461.722656 246.140625 465.691406 242.199219 470.257812 242.121094 C 471.800781 242.097656 473.34375 242.347656 474.886719 242.386719 C 476.277344 242.421875 477.664062 242.246094 478.789062 241.320312 C 485.175781 236.089844 491.253906 235.453125 498.535156 238.496094 C 504.101562 240.820312 508.050781 244.714844 512.117188 249.011719 C 517.523438 254.726562 522.214844 261.105469 528.117188 266.339844 C 529.457031 267.53125 530.09375 269.125 531.058594 270.53125 C 531.457031 271.117188 532.101562 271.4375 532.839844 271.246094 C 533.675781 271.027344 533.761719 270.289062 533.757812 269.601562 C 533.75 268.035156 533.65625 266.46875 532.234375 265.40625 C 530.996094 264.480469 531.164062 263.757812 532.085938 262.480469 C 533.910156 259.929688 533.828125 259.769531 535.996094 261.902344 C 536.976562 262.871094 537.78125 263.925781 539.183594 264.417969 C 542.492188 265.566406 543.457031 264.988281 543.53125 261.398438 C 543.554688 260.363281 543.675781 259.710938 544.875 259.800781 C 546.570312 259.929688 547.753906 259.476562 546.957031 257.488281 C 546.203125 255.601562 544.6875 255.597656 543.128906 256.421875 C 542.546875 256.730469 542.007812 257.25 541.644531 257.796875 C 541.027344 258.722656 540.445312 259.601562 539.21875 258.796875 C 538.296875 258.1875 537.917969 257.1875 537.933594 256.117188 C 537.957031 254.28125 543.714844 247.324219 545.625 246.863281 C 546.246094 246.710938 547.019531 246.730469 547.605469 246.964844 C 555.679688 250.214844 563.734375 253.523438 571.800781 256.796875 C 572.625 257.128906 573.429688 257.511719 573.816406 258.308594 C 576.789062 264.484375 581.570312 269.179688 586.386719 273.847656 C 588.566406 275.960938 589.996094 278.902344 593.183594 279.925781 C 594.207031 280.257812 594.867188 281.304688 595.074219 282.269531 C 596.253906 287.703125 601.011719 291.097656 602.820312 296.140625 C 603.226562 297.277344 603.742188 297.753906 605.0625 297.597656 C 611.117188 296.867188 613.632812 301.542969 615.703125 305.683594 C 617.152344 308.582031 618.246094 311.867188 618.863281 315.335938 C 619.695312 320.027344 620.558594 325.027344 624.003906 328.9375 C 625.191406 330.285156 624.742188 332.476562 626.257812 333.996094 C 628.921875 336.675781 630.394531 336.90625 633.179688 334.535156 C 637.277344 331.054688 640.609375 326.9375 643.335938 322.355469 C 645.957031 317.941406 649.054688 313.800781 651.472656 309.328125 C 653.316406 305.921875 654.28125 302.054688 656.625 298.777344 C 657.992188 296.859375 658.9375 294.929688 661.777344 295.660156 C 662.871094 295.941406 663.757812 295.425781 664.53125 294.636719 C 665.425781 293.722656 666.253906 293.558594 667.691406 293.992188 C 669.75 294.609375 670.425781 293.542969 669.710938 291.550781 C 668.0625 286.945312 668.628906 285.746094 673.222656 284.144531 C 674.027344 283.863281 674.832031 283.53125 675.667969 283.402344 C 677.902344 283.054688 678.773438 281.550781 678.003906 279.710938 C 676.589844 276.34375 678.203125 274.25 680.226562 271.910156 C 682.121094 269.726562 683.84375 267.285156 685.144531 264.707031 C 687.648438 259.726562 692.164062 257.605469 697.023438 257.050781 C 704.335938 256.207031 710.785156 253.042969 717.488281 251.132812 C 718.265625 249.105469 716.386719 248.085938 716.382812 246.539062 C 716.542969 246.25 716.632812 245.796875 716.867188 245.695312 C 719.816406 244.398438 722.359375 242.0625 725.84375 242.117188 C 726.011719 242.117188 726.25 242.082031 726.332031 241.972656 C 729.476562 237.773438 733.921875 237.0625 738.730469 237.226562 C 739.203125 237.242188 739.726562 236.785156 739.613281 236.203125 C 739.527344 235.75 739.257812 235.109375 738.90625 234.96875 C 735.925781 233.773438 733.667969 230.957031 730.109375 231.042969 C 728.828125 231.074219 727.832031 230.496094 727.261719 229.371094 C 727.703125 227.765625 728.914062 228.140625 729.808594 228.332031 C 733.867188 229.195312 737.84375 230.675781 741.292969 232.777344 C 746.152344 235.746094 751.644531 236.894531 756.679688 239.257812 C 758.226562 239.984375 759.648438 240.585938 761.015625 241.710938 C 764.136719 244.28125 767.433594 246.722656 771.351562 247.988281 C 772.230469 248.269531 773.152344 248.394531 773.183594 249.359375 C 773.28125 252.574219 775.820312 254.007812 777.695312 255.941406 C 778.417969 256.679688 779.25 257.410156 779.671875 258.3125 C 781.878906 262.996094 786.078125 266.042969 789.203125 269.96875 C 790.722656 271.878906 792.050781 273.753906 792.960938 275.988281 C 793.664062 277.714844 794.292969 279.257812 796.597656 279.832031 C 800.242188 280.742188 800.238281 284.417969 801.132812 287.28125 C 801.378906 288.066406 801.125 288.996094 801.191406 289.851562 C 801.25 290.601562 801.691406 291.144531 802.484375 291.179688 C 803.207031 291.210938 803.8125 290.90625 804.160156 290.21875 C 804.636719 289.261719 804.992188 288.160156 804.550781 287.226562 C 803.347656 284.707031 804.425781 281.09375 800.632812 279.730469 C 799.425781 279.292969 798.472656 277.554688 799.230469 275.4375 C 802.027344 276.796875 804.675781 277.605469 806.027344 280.941406 C 806.855469 282.996094 807.632812 285.453125 809.746094 286.921875 C 810.199219 287.234375 810.566406 288.210938 810.433594 288.753906 C 809.144531 294.195312 812.050781 298.300781 814.777344 302.378906 C 815.671875 303.707031 815.769531 304.828125 815.488281 306.214844 C 815.261719 307.296875 813.496094 308.511719 814.925781 309.363281 C 816.554688 310.335938 817.480469 313 819.34375 312.574219 C 823.609375 311.605469 824.75 315.164062 825.59375 317.328125 C 827.402344 321.960938 832.308594 322.457031 835.003906 325.695312 C 835.433594 326.207031 836.296875 325.886719 836.820312 325.3125 C 837.328125 324.765625 837.675781 324.023438 837.296875 323.4375 C 834.941406 319.804688 834.351562 315.421875 832.238281 311.691406 C 830.972656 309.453125 828.773438 311.082031 827.179688 310.492188 C 826.394531 308.472656 829.3125 308.917969 829.0625 307.300781 C 828.828125 305.804688 827.195312 305.878906 826.550781 304.9375 C 824.957031 302.59375 825.082031 299.664062 824.871094 297.121094 C 824.609375 294.007812 823.332031 291.117188 823.4375 287.976562 C 823.535156 285.101562 820.355469 287.320312 819.832031 285.875 C 819.402344 284.683594 822.96875 282.824219 819.707031 281.976562 C 817.140625 281.308594 816.347656 279.167969 814.75 277.734375 C 813.332031 276.460938 813.714844 275.125 815.648438 274.890625 C 818.171875 274.578125 818.617188 272.660156 819.113281 269.542969 C 822.863281 275.253906 823.640625 281.535156 828.628906 285.074219 C 830.179688 283.261719 827.089844 282.132812 828.054688 280.226562 C 829.585938 280.371094 829.429688 281.886719 829.925781 282.773438 C 830.496094 283.804688 830.257812 285.675781 831.40625 285.921875 C 835.480469 286.785156 835.277344 290.277344 836 293.070312 C 836.898438 296.554688 839.355469 299.105469 841.289062 301.816406 C 843.582031 305.03125 845.019531 308.691406 847.328125 311.835938 C 847.636719 312.253906 847.855469 312.734375 848.175781 313.136719 C 850.019531 315.445312 848.746094 318.84375 850.480469 320.898438 C 852.21875 322.949219 854.589844 324.367188 855.457031 327.207031 C 856.347656 330.117188 860.152344 331.398438 860.066406 334.90625 C 859.945312 339.75 863.785156 342.46875 866.40625 345.375 C 869.296875 348.582031 874.207031 348.847656 878.46875 348.210938 C 884.679688 347.28125 890.640625 345.128906 897.117188 345.304688 C 901.402344 345.417969 904.035156 342.039062 906.257812 338.550781 C 909.285156 333.8125 913.289062 329.722656 915.472656 324.414062 C 915.777344 323.671875 916.488281 323.023438 917.875 323.089844 C 918.578125 325.253906 918.566406 327.195312 916.523438 328.816406 C 915.996094 329.238281 915.480469 329.726562 915.128906 330.289062 C 914.640625 331.074219 914.632812 332.015625 915.269531 332.699219 C 916.066406 333.546875 916.808594 332.890625 917.445312 332.332031 C 918.828125 331.105469 920.066406 329.941406 920.777344 328 C 921.644531 325.625 923.429688 323.601562 924.765625 321.394531 C 925.667969 319.894531 926.527344 319.429688 927.902344 320.960938 C 929.164062 322.355469 930.554688 321.816406 931.292969 320.441406 C 932.875 317.492188 934.566406 318.007812 936.46875 319.976562 C 937.289062 320.824219 938.195312 321.246094 939.109375 320.257812 C 942.03125 317.074219 945.316406 318.410156 948.765625 319.316406 C 948.046875 322.40625 946.878906 325.304688 947.089844 328.480469 C 947.234375 330.605469 945.683594 332.09375 944.191406 333.125 C 940.261719 335.855469 940.789062 339.976562 940.421875 343.851562 C 940.359375 344.527344 940.578125 345.226562 941.253906 345.601562 C 942.125 346.078125 942.976562 345.859375 943.59375 345.199219 C 944.292969 344.453125 944.851562 343.574219 945.425781 342.722656 C 949.371094 336.898438 953.304688 331.070312 957.238281 325.242188 C 957.332031 325.097656 957.445312 324.964844 957.523438 324.8125 C 959.140625 321.628906 958.90625 317.109375 961.816406 315.164062 C 965.164062 312.933594 966.113281 309.464844 968.21875 306.652344 C 970.363281 303.785156 971.9375 300.464844 973.59375 297.257812 C 975.351562 293.863281 978.230469 291.335938 980.214844 288.078125 C 983.675781 282.398438 984.976562 275.949219 987.496094 269.949219 C 988.339844 267.941406 989.480469 266.726562 991.539062 265.6875 C 995.769531 263.558594 1000.097656 261.183594 1001.332031 255.882812 C 1001.488281 255.226562 1001.671875 254.414062 1002.136719 254.019531 C 1008.722656 248.425781 1009.566406 239.570312 1014.132812 232.796875 C 1016.121094 229.851562 1012.277344 225.527344 1008.660156 225.902344 C 1006.363281 226.140625 1004.625 227.613281 1002.496094 228.382812 C 1001.527344 225.886719 1002.65625 224.3125 1004.441406 223.011719 C 1007.777344 220.585938 1010.957031 217.886719 1014.523438 215.867188 C 1018.046875 213.875 1021.046875 211.433594 1023.585938 208.355469 C 1024.964844 206.6875 1026.707031 205.296875 1025.351562 202.496094 C 1024.363281 200.445312 1026.09375 198.78125 1027.976562 198.175781 C 1030.539062 197.347656 1032.554688 195.894531 1034.328125 193.988281 C 1035.070312 193.183594 1035.945312 192.695312 1037.039062 192.730469 C 1040.277344 192.824219 1043.492188 193.128906 1046.761719 192.875 C 1049.066406 192.699219 1050.621094 196.066406 1049.023438 198.414062 C 1046.5 202.128906 1046.589844 206.605469 1044.746094 210.460938 C 1044.132812 211.746094 1044.402344 213.191406 1044.972656 214.492188 C 1045.414062 215.503906 1045.375 216.375 1044.921875 217.425781 C 1042.699219 222.605469 1042.875 223.089844 1047.390625 226.089844 C 1047.808594 226.367188 1048.34375 226.535156 1048.335938 227.3125 C 1048.273438 228.128906 1047.558594 228.65625 1046.960938 229.242188 C 1046.226562 229.96875 1045.390625 230.601562 1044.707031 231.371094 C 1042.617188 233.707031 1042.0625 237.675781 1043.609375 238.835938 C 1046.515625 241.011719 1051.546875 240.863281 1053.480469 238.445312 C 1054.210938 237.53125 1054.476562 236.234375 1056.210938 235.472656 C 1056.804688 238.085938 1058.09375 240.191406 1060.90625 241.003906 C 1062.855469 241.570312 1063.015625 243.046875 1061.964844 244.675781 C 1061.6875 245.109375 1061.351562 245.507812 1061.058594 245.929688 C 1058.789062 249.214844 1058.777344 249.238281 1062.355469 250.886719 C 1063.191406 251.273438 1064.179688 251.765625 1063.746094 252.667969 C 1062.601562 255.050781 1063.472656 257.019531 1064.617188 258.988281 C 1065.25 260.085938 1064.957031 260.878906 1064.132812 261.722656 C 1063.1875 262.695312 1062.355469 263.78125 1061.277344 265.046875 C 1058.84375 262.75 1055.679688 261.421875 1054.136719 258.15625 C 1053.332031 256.46875 1051.714844 255.855469 1049.785156 256.042969 C 1047.894531 256.226562 1047.996094 257.695312 1047.523438 258.972656 C 1046.570312 261.539062 1045.613281 264.222656 1042.417969 264.738281 C 1042.640625 266.460938 1043.761719 265.675781 1044.402344 265.832031 C 1046.675781 266.394531 1047.183594 267.832031 1046.191406 269.699219 C 1044.183594 273.464844 1042.882812 277.722656 1040.707031 281.164062 C 1038.316406 284.9375 1035.667969 288.535156 1033.808594 292.660156 C 1033.589844 293.144531 1032.667969 293.308594 1032.097656 293.644531 C 1032.074219 293.988281 1032.117188 294.382812 1031.945312 294.621094 C 1031.132812 295.746094 1030.214844 296.835938 1031.683594 298.101562 C 1032.101562 298.460938 1032.628906 298.457031 1033.007812 298.054688 C 1034.050781 296.9375 1033.402344 295.871094 1032.824219 294.832031 C 1032.578125 294.394531 1032.265625 293.992188 1031.984375 293.574219 " fill-opacity="1" fill-rule="nonzero"/><path fill="#000000" d="M 1018.453125 196.941406 C 1018.613281 195.609375 1019.269531 194.65625 1019.898438 194.5625 C 1024.367188 193.863281 1024.578125 190.214844 1025.355469 186.953125 C 1026.285156 183.042969 1025.949219 182.527344 1021.347656 181.277344 C 1024.394531 179.710938 1027.058594 178.34375 1029.722656 176.984375 C 1030.179688 176.753906 1030.6875 176.351562 1031.132812 176.40625 C 1032.90625 176.621094 1035.292969 176.367188 1035.90625 178.320312 C 1036.429688 179.976562 1034.957031 181.511719 1033.339844 182.371094 C 1032.292969 182.929688 1031 183.011719 1030.15625 183.976562 C 1029.699219 184.5 1029.316406 185.070312 1029.589844 185.832031 C 1029.871094 186.613281 1030.582031 186.675781 1031.242188 186.777344 C 1032.292969 186.941406 1033.246094 186.761719 1034.113281 186.019531 C 1035.128906 185.15625 1036.339844 185.230469 1037.519531 185.671875 C 1038.167969 185.917969 1038.847656 186.300781 1038.5625 187.128906 C 1038.425781 187.535156 1037.921875 187.980469 1037.503906 188.082031 C 1036.867188 188.238281 1036.128906 188.242188 1035.5 188.074219 C 1033.632812 187.570312 1032.289062 187.941406 1032.460938 190.132812 C 1032.625 192.230469 1031.285156 192.582031 1029.824219 193.289062 C 1026.328125 194.980469 1022.386719 195.191406 1018.453125 196.941406 " fill-opacity="1" fill-rule="nonzero"/><path fill="#000000" d="M 1029.601562 406.527344 C 1028.085938 409.261719 1026.9375 411.507812 1025.578125 413.683594 C 1024.46875 415.457031 1022.914062 417.476562 1024.246094 419.878906 C 1025.683594 422.476562 1023.808594 423.65625 1022.144531 424.851562 C 1021.339844 425.429688 1019.726562 424.910156 1019.382812 425.925781 C 1017.757812 430.753906 1012.855469 431.804688 1009.585938 434.773438 C 1008.757812 433.746094 1007.421875 432.882812 1009.433594 431.59375 C 1015.359375 427.78125 1018.800781 421.804688 1022.601562 416.152344 C 1023.3125 415.105469 1023.589844 413.964844 1023.554688 412.75 C 1023.523438 411.761719 1022.726562 410.066406 1023.539062 409.925781 C 1025.820312 409.519531 1026.6875 406.667969 1029.601562 406.527344 " fill-opacity="1" fill-rule="nonzero"/><path fill="#000000" d="M 1076.425781 253.722656 C 1075.910156 259.496094 1073.667969 263.136719 1068.1875 266.957031 C 1069.160156 263.230469 1071.640625 260.546875 1073.019531 257.519531 C 1072.261719 255.824219 1071.183594 256.746094 1070.292969 256.824219 C 1069.46875 256.894531 1068.410156 257.285156 1068.191406 256.160156 C 1067.957031 254.941406 1068.976562 254.296875 1070.011719 254.109375 C 1071.167969 253.894531 1072.390625 254.027344 1073.574219 253.878906 C 1074.394531 253.777344 1075.152344 253.230469 1076.425781 253.722656 " fill-opacity="1" fill-rule="nonzero"/><path fill="#000000" d="M 1003.074219 426.988281 C 1003.304688 429.105469 1001.515625 429.863281 1000.316406 430.976562 C 999.28125 431.933594 997.921875 432.386719 996.535156 432.335938 C 994.9375 432.277344 995.097656 430.6875 994.554688 429.691406 C 994.238281 429.113281 993.707031 428.617188 993.171875 428.210938 C 992.355469 427.59375 992.042969 426.828125 992.671875 426.042969 C 993.527344 424.96875 994.160156 425.984375 994.738281 426.515625 C 995.808594 427.503906 996.972656 427.109375 998.136719 426.855469 C 999.472656 426.566406 1000.792969 426.09375 1002.183594 426.46875 C 1002.492188 426.546875 1002.757812 426.796875 1003.074219 426.988281 " fill-opacity="1" fill-rule="nonzero"/><path fill="#000000" d="M 979.140625 437.40625 C 981.847656 436.667969 983.511719 435.589844 985.4375 436.269531 C 986.945312 436.800781 988.019531 436.5 988.910156 435.121094 C 989.644531 433.984375 990.667969 434.054688 991.320312 435.160156 C 991.796875 435.953125 991.503906 437.046875 990.609375 437.3125 C 987.152344 438.328125 983.679688 440.109375 979.140625 437.40625 " fill-opacity="1" fill-rule="nonzero"/><path fill="#000000" d="M 1017.75 396.988281 C 1018.824219 398.867188 1017.097656 399.941406 1016.910156 401.394531 C 1016.539062 404.222656 1015.199219 404.433594 1012.710938 402.921875 C 1010.953125 401.855469 1011.167969 400.746094 1012.5 399.828125 C 1014.121094 398.707031 1015.972656 397.929688 1017.75 396.988281 " fill-opacity="1" fill-rule="nonzero"/><path fill="#000000" d="M 708.847656 434.277344 C 706.941406 434.683594 705.203125 435.117188 703.753906 433.980469 C 702.851562 433.28125 702.433594 432.339844 703.15625 431.335938 C 703.828125 430.394531 704.707031 430.890625 705.378906 431.40625 C 706.574219 432.3125 707.699219 433.3125 708.847656 434.277344 " fill-opacity="1" fill-rule="nonzero"/><path fill="#000000" d="M 525.808594 253.65625 C 525.597656 254.589844 525.3125 255 524.703125 254.964844 C 523.265625 254.886719 521.144531 252.601562 521.15625 251.085938 C 521.164062 250.332031 521.808594 249.566406 522.40625 249.828125 C 524.191406 250.609375 524.914062 252.390625 525.808594 253.65625 " fill-opacity="1" fill-rule="nonzero"/><path fill="#000000" d="M 1026.03125 391.234375 C 1027.242188 389.8125 1028.363281 388.636719 1030.242188 388.0625 C 1031.121094 389.886719 1030.949219 391.550781 1029.4375 392.609375 C 1028.410156 393.332031 1027.164062 392.667969 1026.03125 391.234375 " fill-opacity="1" fill-rule="nonzero"/><path fill="#000000" d="M 724.84375 438.691406 C 723.066406 440.289062 721.285156 441.960938 718.289062 439.1875 C 720.953125 438.984375 722.898438 438.835938 724.84375 438.691406 " fill-opacity="1" fill-rule="nonzero"/><g clip-path="url(#efef023d58)"><path fill="#000000" d="M 981.574219 444.078125 C 982.171875 444.074219 982.523438 444.421875 982.582031 444.957031 C 982.722656 446.207031 980.808594 448.328125 979.839844 448.007812 C 979.320312 447.835938 979.148438 447.351562 979.1875 446.816406 C 979.296875 445.152344 980.257812 444.058594 981.574219 444.078125 " fill-opacity="1" fill-rule="nonzero"/></g><path fill="#000000" d="M 928.425781 427.734375 C 929.148438 426.328125 930.308594 425.535156 931.597656 424.730469 C 931.230469 427.46875 931.230469 427.46875 928.425781 427.734375 " fill-opacity="1" fill-rule="nonzero"/><path fill="#000000" d="M 696.96875 430.667969 C 697.871094 430.761719 698.769531 431.148438 698.96875 431.980469 C 699.160156 432.792969 698.238281 433.003906 697.582031 433.054688 C 696.683594 433.132812 695.800781 432.910156 695.664062 431.851562 C 695.558594 431 696.242188 430.746094 696.96875 430.667969 " fill-opacity="1" fill-rule="nonzero"/><path fill="#000000" d="M 1009.074219 404.339844 C 1010.753906 403.988281 1011.832031 404.214844 1012.542969 405.332031 C 1012.621094 405.457031 1012.34375 405.980469 1012.125 406.09375 C 1010.5 406.9375 1009.707031 406.046875 1009.074219 404.339844 " fill-opacity="1" fill-rule="nonzero"/><path fill="#000000" d="M 935.828125 313.609375 C 935.835938 311.710938 936.234375 310.511719 937.804688 310.132812 C 937.960938 310.097656 938.421875 310.527344 938.429688 310.753906 C 938.488281 312.304688 937.785156 313.296875 935.828125 313.609375 " fill-opacity="1" fill-rule="nonzero"/><path fill="#000000" d="M 710.589844 246.5625 C 709.09375 247.863281 707.550781 248.472656 705.234375 247.261719 C 707.242188 245.734375 708.886719 245.828125 710.589844 246.5625 " fill-opacity="1" fill-rule="nonzero"/><path fill="#000000" d="M 794.585938 261.886719 C 794.367188 262.167969 794.105469 262.675781 793.980469 262.644531 C 792.730469 262.328125 792.664062 261.257812 792.648438 260.238281 C 792.644531 259.984375 793.042969 259.476562 793.117188 259.503906 C 794.257812 259.882812 794.445312 260.882812 794.585938 261.886719 " fill-opacity="1" fill-rule="nonzero"/><path fill="#000000" d="M 700.042969 247.789062 C 699.570312 248.046875 699.441406 248.152344 699.289062 248.195312 C 698.507812 248.421875 697.734375 248.707031 696.933594 248.796875 C 696.65625 248.828125 696.550781 248.265625 696.839844 247.996094 C 697.511719 247.378906 698.367188 247.53125 699.175781 247.542969 C 699.332031 247.546875 699.488281 247.628906 700.042969 247.789062 " fill-opacity="1" fill-rule="nonzero"/><path fill="#000000" d="M 829.160156 314.796875 C 829.105469 315.390625 828.792969 315.617188 828.628906 315.359375 C 828.386719 314.972656 828.292969 314.464844 828.25 313.996094 C 828.230469 313.75 828.453125 313.484375 828.566406 313.230469 C 829.21875 313.648438 829.070312 314.335938 829.160156 314.796875 " fill-opacity="1" fill-rule="nonzero"/><path fill="#000000" d="M 1022.558594 388.992188 C 1023.035156 389.308594 1023.199219 389.769531 1022.910156 390.238281 C 1022.796875 390.425781 1022.328125 390.566406 1022.097656 390.492188 C 1021.554688 390.304688 1021.371094 389.828125 1021.722656 389.347656 C 1021.878906 389.136719 1022.273438 389.105469 1022.558594 388.992188 " fill-opacity="1" fill-rule="nonzero"/><path fill="#000000" d="M 970.667969 443.597656 C 970.671875 444.121094 970.414062 444.527344 969.9375 444.667969 C 969.210938 444.886719 968.644531 444.535156 968.445312 443.847656 C 968.300781 443.34375 968.714844 442.976562 969.179688 442.820312 C 969.914062 442.570312 970.40625 442.882812 970.667969 443.597656 " fill-opacity="1" fill-rule="nonzero"/><path fill="#000000" d="M 970.476562 401.890625 C 971.035156 401.828125 971.449219 402.078125 971.632812 402.582031 C 971.820312 403.117188 971.574219 403.566406 971.035156 403.699219 C 970.492188 403.839844 970.074219 403.5 969.894531 403.015625 C 969.695312 402.484375 969.9375 402.085938 970.476562 401.890625 " fill-opacity="1" fill-rule="nonzero"/><path fill="#000000" d="M 994.816406 328.816406 C 992.769531 329.707031 992.1875 328.582031 991.363281 328.085938 C 990.128906 327.34375 987.742188 328.707031 987.507812 326.523438 C 987.285156 324.476562 988.28125 321.976562 989.964844 321.164062 C 993.910156 319.25 994.355469 315.40625 995.960938 312.167969 C 996.4375 311.210938 996.460938 309.371094 998.222656 310.515625 C 999.5 311.34375 999.101562 312.574219 998.179688 313.605469 C 997.949219 313.859375 997.710938 314.121094 997.546875 314.414062 C 995.058594 318.878906 991.136719 323.03125 994.816406 328.816406 " fill-opacity="1" fill-rule="nonzero"/><path fill="#000000" d="M 988.71875 342.003906 C 990.746094 342.695312 991.253906 343.863281 991.179688 345.339844 C 991.167969 345.511719 990.613281 345.855469 990.433594 345.785156 C 988.867188 345.210938 988.992188 343.777344 988.71875 342.003906 " fill-opacity="1" fill-rule="nonzero"/><path fill="#000000" d="M 982.804688 348.582031 C 983.003906 347.722656 983.636719 347.664062 984.320312 347.800781 C 985 347.933594 985.636719 348.261719 985.402344 349.082031 C 985.285156 349.496094 984.792969 350.117188 984.496094 350.105469 C 983.628906 350.0625 983.003906 349.5 982.804688 348.582031 " fill-opacity="1" fill-rule="nonzero"/></g></g></g></svg>